<svg width="51" height="36" viewBox="0 0 51 36" fill="none" xmlns="http://www.w3.org/2000/svg">
<path d="M31.4073 19.2118L32.5894 19.8846L31.3271 22.2586C31.1236 22.6589 31.5258 23.0893 32.0513 23.0335C32.1415 23.0239 32.2283 22.9998 32.3069 22.9626L35.3597 21.5579L38.4125 22.9626C38.8727 23.1788 39.4466 22.9063 39.4454 22.472C39.4453 22.3987 39.4277 22.3263 39.3937 22.2586L38.1299 19.8846L40.4104 18.5841C40.7797 18.3139 40.6531 17.8179 40.1824 17.6913C40.1103 17.6719 40.0343 17.663 39.9584 17.6653H37.3313L35.9823 14.7484C35.7376 14.3584 35.0685 14.3314 34.778 14.6998C34.7656 14.7156 34.7542 14.7318 34.7436 14.7484L33.3933 17.6642H32.064" fill="#FFEF5E"/>
<path d="M37.337 17.6642L35.9829 14.7485C35.738 14.3584 35.069 14.3314 34.7784 14.6998C34.766 14.7156 34.7546 14.7318 34.744 14.7485L33.3937 17.6642H32.0645L31.4077 19.2107L32.5899 19.8835L31.3275 22.2576C31.2709 22.3721 31.2625 22.4989 31.3039 22.6176L37.3646 17.6642H37.337Z" fill="#FFF9BF"/>
<path d="M19.5856 19.2119L18.4034 19.8847L19.6669 22.2587C19.8706 22.659 19.4682 23.0894 18.9428 23.0335C18.8527 23.024 18.7658 22.9998 18.6871 22.9627L15.6449 21.558L12.5883 22.9627C12.1319 23.1813 11.5574 22.9137 11.5542 22.481C11.5536 22.4047 11.572 22.329 11.6083 22.2587L12.872 19.8846L10.5917 18.5842C10.221 18.3151 10.3455 17.8187 10.8156 17.6907C10.8903 17.6703 10.9689 17.6614 11.0475 17.6642H13.6746L15.0275 14.7475C15.2746 14.3574 15.945 14.3323 16.2343 14.7023C16.2459 14.717 16.2564 14.732 16.2662 14.7475L17.6152 17.6642H18.9288" fill="#FFEF5E"/>
<path d="M11.5846 22.4898L17.5756 17.5879L16.262 14.7485C16.0173 14.3584 15.3482 14.3314 15.0577 14.6998C15.0453 14.7156 15.0339 14.7318 15.0234 14.7485L13.6743 17.6642H11.0473C10.552 17.6498 10.2235 18.0793 10.4558 18.4374C10.4915 18.4923 10.5387 18.5416 10.5954 18.5831L12.8757 19.8835L11.6121 22.2576C11.5826 22.3324 11.5733 22.4116 11.5846 22.4898Z" fill="#FFF9BF"/>
<path d="M26.1311 10.4497L27.4814 13.3654H30.1086C30.6037 13.3501 30.9333 13.7791 30.7019 14.1376C30.6663 14.1929 30.6187 14.2426 30.5618 14.2842L28.2813 15.5857L29.5451 17.9598C29.7486 18.3601 29.3463 18.7905 28.8209 18.7347C28.7307 18.725 28.6438 18.701 28.5651 18.6638L25.5124 17.2592L22.4584 18.6638C21.9997 18.8807 21.426 18.61 21.4257 18.1765C21.4256 18.1021 21.4436 18.0284 21.4785 17.9598L22.7382 15.5857L20.4619 14.2854C20.0902 14.0184 20.2111 13.5225 20.6795 13.3926C20.7548 13.3718 20.8342 13.3625 20.9136 13.3654H23.5408L24.8924 10.4497C25.1371 10.0595 25.8062 10.0326 26.0967 10.401C26.1093 10.4168 26.1208 10.433 26.1311 10.4497Z" fill="#FFEF5E"/>
<path d="M27.4816 13.3653L26.1314 10.4496C25.8844 10.0595 25.2139 10.0345 24.9244 10.4045C24.9131 10.4191 24.9024 10.4342 24.8927 10.4496L23.541 13.3653H20.9139C20.4188 13.351 20.0902 13.7805 20.3225 14.1386C20.3582 14.1935 20.4054 14.2428 20.4621 14.2842L22.7384 15.5847L21.4788 17.9588C21.4217 18.0831 21.4217 18.2202 21.4788 18.3445L27.5604 13.3653H27.4816Z" fill="#FFF9BF"/>
<path d="M26.1311 10.4497L27.4814 13.3654H30.1086C30.6037 13.3501 30.9333 13.7791 30.7019 14.1376C30.6663 14.1929 30.6187 14.2426 30.5618 14.2842L28.2813 15.5857L29.5451 17.9598C29.7486 18.3601 29.3463 18.7905 28.8209 18.7347C28.7307 18.725 28.6438 18.701 28.5651 18.6638L25.5124 17.2592L22.4584 18.6638C21.9997 18.8807 21.426 18.61 21.4257 18.1765C21.4256 18.1021 21.4436 18.0284 21.4785 17.9598L22.7382 15.5857L20.4619 14.2854C20.0902 14.0184 20.2111 13.5225 20.6795 13.3926C20.7548 13.3718 20.8342 13.3625 20.9136 13.3654H23.5408L24.8924 10.4497C25.1371 10.0595 25.8062 10.0326 26.0967 10.401C26.1093 10.4168 26.1208 10.433 26.1311 10.4497Z" stroke="#191919" stroke-linecap="round" stroke-linejoin="round"/>
<path d="M19.5856 19.2119L18.4034 19.8847L19.6669 22.2587C19.8706 22.659 19.4682 23.0894 18.9428 23.0335C18.8527 23.024 18.7658 22.9998 18.6871 22.9627L15.6449 21.558L12.5883 22.9627C12.1319 23.1813 11.5574 22.9137 11.5542 22.481C11.5536 22.4047 11.572 22.329 11.6083 22.2587L12.872 19.8846L10.5917 18.5842C10.221 18.3151 10.3455 17.8187 10.8156 17.6907C10.8903 17.6703 10.9689 17.6614 11.0475 17.6642H13.6746L15.0275 14.7475C15.2746 14.3574 15.945 14.3323 16.2343 14.7023C16.2459 14.717 16.2564 14.732 16.2662 14.7475L17.6152 17.6642H18.9288" stroke="#191919" stroke-linecap="round" stroke-linejoin="round"/>
<path d="M31.4073 19.2118L32.5894 19.8846L31.3271 22.2586C31.1236 22.6589 31.5258 23.0893 32.0513 23.0335C32.1415 23.0239 32.2283 22.9998 32.3069 22.9626L35.3597 21.5579L38.4125 22.9626C38.8727 23.1788 39.4466 22.9063 39.4454 22.472C39.4453 22.3987 39.4277 22.3263 39.3937 22.2586L38.1299 19.8846L40.4104 18.5841C40.7797 18.3139 40.6531 17.8179 40.1824 17.6913C40.1103 17.6719 40.0343 17.663 39.9584 17.6653H37.3313L35.9823 14.7484C35.7376 14.3584 35.0685 14.3314 34.778 14.6998C34.7656 14.7156 34.7542 14.7318 34.7436 14.7484L33.3933 17.6642H32.064" stroke="#191919" stroke-linecap="round" stroke-linejoin="round"/>
<path d="M3.45825 12.9204C3.94128 12.3766 4.43777 11.8772 4.94772 11.4223C5.1045 11.5753 5.27697 11.7605 5.46513 11.9777C5.65776 12.19 5.82353 12.3974 5.96244 12.5999C5.85954 12.674 5.74772 12.7828 5.62697 12.9262C5.50621 13.0695 5.34521 13.2623 5.14396 13.5046L5.13055 13.5194L5.12384 13.5268C5.12832 13.5318 5.13056 13.5392 5.13057 13.549C5.13057 13.549 5.13281 13.5515 5.13729 13.5564C5.15522 13.5861 5.18658 13.6305 5.23139 13.6898C5.27618 13.7391 5.3501 13.8206 5.45314 13.9342C5.55169 14.0428 5.68385 14.1884 5.8496 14.3711C6.01535 14.5439 6.23037 14.771 6.49467 15.0524C6.75449 15.3289 7.06807 15.6646 7.43541 16.0596C7.79827 16.4496 8.22832 16.9088 8.72556 17.437L8.73228 17.4444L8.739 17.4518C8.67194 17.5556 8.59144 17.6644 8.49753 17.7781C8.40361 17.8819 8.30745 17.9882 8.20905 18.097C8.11513 18.2008 8.0212 18.3046 7.92728 18.4084C7.83336 18.5122 7.75286 18.616 7.6858 18.7198C7.6634 18.705 7.58277 18.6162 7.44389 18.4532C7.305 18.2903 7.09445 18.0533 6.81222 17.7423C6.52999 17.4213 6.16265 17.0214 5.7102 16.5425C5.26223 16.0587 4.71123 15.486 4.05723 14.8245L4.0438 14.8245C3.96325 14.8542 3.88048 14.9111 3.79549 14.9951C3.70603 15.0742 3.62104 15.1583 3.54054 15.2473C3.45555 15.3313 3.37952 15.4104 3.31243 15.4846C3.24534 15.5587 3.1939 15.6057 3.1581 15.6255C3.13124 15.6156 3.0775 15.5761 2.99687 15.507C2.92072 15.433 2.83113 15.3441 2.72811 15.2405C2.62507 15.1269 2.51532 15.0059 2.39884 14.8776C2.28237 14.7492 2.17484 14.6208 2.07627 14.4925C2.07179 14.4875 2.06732 14.4875 2.06284 14.4925C2.06284 14.4925 2.0606 14.49 2.05612 14.4851C2.50784 13.9759 2.97522 13.4543 3.45825 12.9204Z" fill="black"/>
<path d="M12.3589 12.6629C12.7144 12.4294 13.0721 12.1737 13.4321 11.8959L13.4423 11.913C13.5624 12.0885 13.6794 12.2783 13.7935 12.4827C13.9042 12.6813 13.9891 12.8822 14.0484 13.0853C13.4947 13.4791 12.9389 13.8951 12.3807 14.3333C11.8246 14.7618 11.2712 15.1431 10.7206 15.4773C10.4236 14.9791 10.1247 14.4905 9.82374 14.0116C9.51938 13.527 9.21942 13.0433 8.92387 12.5604C8.62832 12.0776 8.33816 11.5909 8.0534 11.1002C7.76863 10.6095 7.49295 10.1082 7.22635 9.59613C7.4299 9.4319 7.65134 9.25878 7.89067 9.07677C8.13199 8.88512 8.375 8.69633 8.61973 8.51041C8.86445 8.32448 9.10109 8.14443 9.32963 7.97026C9.55817 7.79609 9.76145 7.64436 9.93946 7.51509C10.1175 7.38582 10.2621 7.28487 10.3734 7.21225C10.4847 7.13963 10.5421 7.10618 10.5455 7.11191C10.692 7.29274 10.8185 7.49211 10.9252 7.71002C11.0373 7.924 11.1531 8.13121 11.2726 8.33163L11.2777 8.34022C11.129 8.50566 10.969 8.65874 10.7979 8.79947C10.6287 8.93055 10.455 9.06073 10.277 9.19C10.0956 9.31355 9.91589 9.43996 9.73788 9.56923C9.55986 9.6985 9.38697 9.83637 9.2192 9.98282L9.19493 10.0004L9.19195 10.0149C9.29634 10.1771 9.39066 10.3547 9.47491 10.5479C9.56113 10.7315 9.66921 10.8868 9.79914 11.014L9.81235 11.0167C9.98101 10.9107 10.1489 10.7969 10.3162 10.6755C10.4834 10.554 10.6523 10.4355 10.823 10.3197L10.8281 10.3283C10.9711 10.5034 11.0953 10.6923 11.2005 10.8948C11.3058 11.0973 11.4243 11.3026 11.556 11.5105C11.4887 11.5922 11.4056 11.6731 11.3065 11.7533C11.204 11.8277 11.1042 11.9002 11.0071 11.9707C10.9154 12.0373 10.8335 12.1009 10.7614 12.1614C10.6893 12.222 10.6466 12.2735 10.6333 12.316C10.7053 12.5017 10.8054 12.6956 10.9337 12.8979C11.0674 13.0962 11.1806 13.2601 11.2733 13.3897L11.2865 13.3924C11.6426 13.1339 12 12.8907 12.3589 12.6629Z" fill="black"/>
<path d="M14.846 6.65194C14.7672 6.7082 14.7125 6.77213 14.6817 6.84371C14.674 6.86161 14.6696 6.88891 14.6687 6.92563C14.6716 6.9534 14.6723 6.97489 14.6707 6.99012C14.6652 7.01429 14.6925 7.12942 14.7525 7.33552C14.8185 7.53895 14.8981 7.78002 14.9913 8.05873C15.0844 8.33744 15.1851 8.62736 15.2934 8.92849C15.3994 9.22335 15.501 9.47655 15.5983 9.6881C15.682 9.86201 15.7921 10.0207 15.9285 10.1643C16.0688 10.2989 16.2365 10.3526 16.4316 10.3252C16.5705 10.2789 16.6889 10.2052 16.7869 10.1042C16.8887 9.99428 16.9476 9.8632 16.9636 9.71098C16.9789 9.53727 16.9522 9.37467 16.8836 9.22318C16.8189 9.06274 16.7736 8.89742 16.7477 8.7272C16.8377 8.70231 16.9335 8.66399 17.0351 8.61225C17.1427 8.55783 17.2515 8.50655 17.3614 8.45841C17.4714 8.41027 17.5794 8.3666 17.6854 8.32741C17.7976 8.28554 17.9009 8.25843 17.9955 8.24608C18.2166 8.52684 18.3613 8.84103 18.4298 9.18865C18.4959 9.53 18.4928 9.86538 18.4204 10.1948C18.348 10.5242 18.2079 10.8325 18.0001 11.1196C17.7962 11.3977 17.5274 11.6134 17.1938 11.7668C16.9852 11.8944 16.7593 11.9934 16.5159 12.0637C16.2749 12.1402 16.0366 12.1755 15.8013 12.1697C15.5637 12.1576 15.3431 12.0945 15.1395 11.9803C14.942 11.8635 14.7836 11.6787 14.6645 11.4259C14.5711 11.2054 14.4773 10.9742 14.3833 10.7322C14.2892 10.4902 14.185 10.2199 14.0706 9.92149C13.9601 9.61408 13.836 9.26904 13.6985 8.88635C13.5647 8.49472 13.4096 8.04348 13.233 7.53265C13.1824 7.43135 13.1471 7.32336 13.1271 7.20869C13.1109 7.08507 13.1043 6.96818 13.1071 6.85803C13.1034 6.67085 13.1164 6.49086 13.1462 6.31808C13.1821 6.14262 13.2388 5.97615 13.3165 5.81868C13.3657 5.73908 13.4243 5.6662 13.4924 5.60007C13.5582 5.52766 13.6294 5.46018 13.7059 5.39764C13.953 5.18051 14.2173 5.02118 14.4988 4.91965C14.7804 4.81811 15.0606 4.77165 15.3393 4.78027C15.6219 4.77994 15.8937 4.82795 16.1545 4.92429C16.4153 5.02064 16.6466 5.1626 16.8483 5.35018C17.0478 5.53149 17.2094 5.75481 17.333 6.02015C17.4567 6.28548 17.5215 6.58384 17.5276 6.91522C17.3197 7.06436 17.1036 7.1808 16.8792 7.26454C16.6587 7.33933 16.4245 7.40558 16.1767 7.4633C16.1155 7.35213 16.0548 7.22259 15.9946 7.0747C15.9405 6.92414 15.8756 6.79281 15.7999 6.68071C15.722 6.56234 15.6257 6.4811 15.5109 6.43698C15.4021 6.3902 15.2604 6.40872 15.0855 6.49256C15.0107 6.53987 14.9308 6.593 14.846 6.65194Z" fill="black"/>
<path d="M22.5196 2.98622C22.6439 2.96215 22.7557 2.94391 22.8549 2.9315L24.2182 9.79352C24.1101 9.83481 23.9911 9.87141 23.8612 9.90332C23.7379 9.93397 23.6141 9.96133 23.4897 9.98539C23.3719 10.0082 23.2541 10.031 23.1363 10.0538C23.025 10.0753 22.9306 10.097 22.8531 10.1188L22.8433 10.1207C22.776 9.90972 22.7176 9.69029 22.6679 9.46238C22.6237 9.22662 22.58 8.99415 22.5369 8.76497C22.5003 8.53453 22.4604 8.30472 22.4172 8.07554C22.3741 7.84636 22.3227 7.62896 22.263 7.42334L22.2516 7.41536C22.0566 7.41917 21.8642 7.43944 21.6744 7.47617C21.4845 7.5129 21.2984 7.57268 21.1159 7.6555C21.1329 7.88974 21.1591 8.1188 21.1947 8.34266C21.2368 8.56525 21.2789 8.78784 21.321 9.01044C21.3631 9.23303 21.3982 9.4536 21.4261 9.67214C21.4596 9.88283 21.4767 10.0967 21.4774 10.3137C21.4062 10.375 21.3052 10.4183 21.1743 10.4436C21.0433 10.469 20.9114 10.4877 20.7784 10.4999C20.6454 10.512 20.5195 10.5262 20.4006 10.5425C20.2883 10.5574 20.2053 10.587 20.1516 10.6314C20.1092 10.4495 20.0531 10.2025 19.9833 9.89027C19.919 9.57018 19.8489 9.21388 19.773 8.82136C19.6961 8.42226 19.6156 8.00012 19.5314 7.55494C19.4537 7.10848 19.376 6.66203 19.2984 6.21558C19.2197 5.76254 19.1474 5.32862 19.0815 4.91382C19.0211 4.49117 18.9675 4.11132 18.9207 3.77426L18.9191 3.76438L18.9289 3.76248L18.9486 3.75868C19.0499 3.75944 19.1524 3.74639 19.2561 3.71954C19.3663 3.69143 19.4733 3.66394 19.5769 3.63709C19.6872 3.60898 19.7946 3.58479 19.8993 3.56452C20.0041 3.54425 20.1043 3.53842 20.2002 3.54703C20.3312 3.98993 20.4308 4.42537 20.4987 4.85334C20.5667 5.2813 20.6735 5.69838 20.8189 6.10456L20.8288 6.10266C20.9987 6.1105 21.1775 6.08947 21.3652 6.03958C21.5519 5.98309 21.726 5.93243 21.8875 5.8876L21.8973 5.8857C21.8644 5.4238 21.8166 4.99532 21.7539 4.60028C21.6977 4.20396 21.6221 3.77068 21.5271 3.30042C21.6015 3.25888 21.6927 3.21747 21.8009 3.17619C21.9156 3.13364 22.0345 3.09704 22.1579 3.06639C22.2801 3.02916 22.4007 3.00243 22.5196 2.98622Z" fill="black"/>
<path d="M34.1543 4.15215C34.2781 4.17899 34.3883 4.20628 34.4848 4.23404L33.522 11.1829C33.4078 11.1786 33.2849 11.1656 33.1534 11.1439C33.0285 11.1236 32.9041 11.1001 32.7803 11.0732C32.663 11.0478 32.5458 11.0224 32.4285 10.9969C32.3177 10.9729 32.2227 10.9557 32.1433 10.9453L32.1335 10.9432C32.1395 10.7196 32.1564 10.4915 32.1843 10.2589C32.2198 10.0212 32.2548 9.7868 32.2892 9.55566C32.3301 9.32594 32.3677 9.09551 32.4021 8.86437C32.4364 8.63324 32.4593 8.40983 32.4706 8.19414L32.4626 8.18218C32.2795 8.10839 32.0935 8.05102 31.9045 8.01005C31.7156 7.96908 31.5225 7.95108 31.3254 7.95606C31.265 8.18154 31.2149 8.40587 31.1752 8.62903C31.142 8.8536 31.1088 9.07817 31.0756 9.30274C31.0424 9.52731 31.0032 9.74719 30.9582 9.96238C30.9208 10.1724 30.8671 10.3789 30.7971 10.5819C30.7108 10.6109 30.6025 10.6112 30.4721 10.583C30.3418 10.5547 30.2127 10.5199 30.0847 10.4785C29.9568 10.4371 29.8347 10.4005 29.7186 10.3685C29.609 10.3379 29.522 10.3327 29.4575 10.3528C29.4772 10.1662 29.5053 9.91321 29.5418 9.59392C29.586 9.26948 29.6367 8.90895 29.6937 8.51231C29.752 8.10911 29.8143 7.68294 29.8807 7.2338C29.9536 6.78606 30.0266 6.33833 30.0995 5.8906C30.1736 5.43631 30.2474 5.00241 30.321 4.58891C30.4023 4.17026 30.476 3.79427 30.5421 3.46094L30.5438 3.45109L30.5536 3.45321L30.5732 3.45745C30.6674 3.49833 30.7672 3.52679 30.8726 3.54283C30.9845 3.56029 31.0932 3.57703 31.1986 3.59307C31.3106 3.61052 31.4186 3.63055 31.5229 3.65316C31.6271 3.67576 31.7225 3.71008 31.8091 3.75611C31.7871 4.2217 31.7381 4.66782 31.6622 5.09444C31.5863 5.52107 31.55 5.9529 31.5534 6.38991L31.5632 6.39203C31.7191 6.46673 31.8926 6.518 32.0839 6.54584C32.2764 6.56712 32.4552 6.58885 32.6204 6.61104L32.6302 6.61316C32.7499 6.16876 32.8448 5.74965 32.9149 5.35584C32.9915 4.96344 33.0621 4.52884 33.1267 4.05203C33.2095 4.04272 33.3081 4.04024 33.4223 4.04456C33.5431 4.0503 33.666 4.06331 33.7909 4.08359C33.9171 4.0973 34.0382 4.12015 34.1543 4.15215Z" fill="black"/>
<path d="M37.4316 11.804C37.8115 12.0024 38.2094 12.1908 38.6253 12.3692L38.6182 12.3879C38.5543 12.5929 38.4778 12.8029 38.3886 13.0182C38.3019 13.2272 38.1987 13.4139 38.0791 13.5783C37.4647 13.2857 36.8323 13.0031 36.1818 12.7305C35.5398 12.4544 34.935 12.1553 34.3675 11.8331C34.574 11.2911 34.7721 10.7526 34.9619 10.2175C35.1539 9.67609 35.3479 9.13925 35.5436 8.60693C35.7394 8.0746 35.9412 7.54509 36.149 7.01838C36.3569 6.49167 36.578 5.96747 36.8124 5.44576C37.053 5.54279 37.3105 5.65135 37.585 5.77145C37.8679 5.88813 38.1496 6.00792 38.4301 6.13083C38.7107 6.25374 38.9821 6.37244 39.2445 6.48692C39.5069 6.60141 39.7378 6.70498 39.9374 6.79762C40.1369 6.89026 40.296 6.96777 40.4145 7.03015C40.5331 7.09252 40.5912 7.12683 40.5888 7.13306C40.536 7.36513 40.4577 7.58909 40.3541 7.80493C40.2566 8.02358 40.1662 8.24192 40.0831 8.45996L40.0796 8.4693C39.8695 8.42308 39.6623 8.35987 39.458 8.27969C39.2621 8.19608 39.0644 8.10796 38.8648 8.01531C38.6677 7.91644 38.4693 7.82068 38.2698 7.72804C38.0702 7.6354 37.8671 7.5521 37.6605 7.47815L37.6332 7.46551L37.6206 7.47065C37.5578 7.65411 37.4775 7.83679 37.3797 8.01868C37.2904 8.19714 37.2348 8.3803 37.213 8.56815L37.2185 8.58171C37.3952 8.67839 37.5772 8.77024 37.7647 8.85727C37.9521 8.9443 38.1384 9.03444 38.3235 9.1277L38.3199 9.13704C38.2694 9.36288 38.1978 9.5789 38.105 9.78509C38.0121 9.99128 37.9248 10.211 37.843 10.4443C37.7428 10.4271 37.6341 10.395 37.5168 10.3479C37.402 10.2945 37.2901 10.2426 37.1813 10.1921C37.0785 10.1443 36.9835 10.1039 36.8965 10.0709C36.8095 10.0378 36.7461 10.0267 36.7064 10.0376C36.6073 10.2042 36.518 10.4011 36.4386 10.6281C36.3652 10.858 36.3061 11.0505 36.2612 11.2056L36.2667 11.2192C36.6658 11.4045 37.0541 11.5994 37.4316 11.804Z" fill="black"/>
<path d="M42.8443 16.4504C42.8302 16.7541 42.7922 17.0525 42.7302 17.3455L42.7383 17.3515C42.5509 17.2124 42.337 17.066 42.0964 16.9121C41.8593 16.7526 41.6255 16.5749 41.3951 16.379L41.387 16.3731C41.4133 16.2024 41.4418 15.9962 41.4725 15.7544C41.5033 15.5126 41.5312 15.2563 41.5563 14.9855C41.5814 14.7148 41.5967 14.4409 41.6022 14.1639C41.6078 13.8869 41.5995 13.6326 41.5773 13.4011L41.5768 13.3636C41.481 13.4826 41.3741 13.6389 41.2561 13.8325C41.1416 14.0203 41.0246 14.2187 40.905 14.4276C40.7943 14.6348 40.6888 14.8335 40.5885 15.0236C40.4881 15.2137 40.4077 15.3648 40.3471 15.4769C40.2318 15.4492 40.0958 15.3854 39.939 15.2855C39.7875 15.1896 39.6395 15.088 39.495 14.9807C39.347 14.8791 39.2159 14.7817 39.1016 14.6886C38.9927 14.5995 38.9231 14.5478 38.8928 14.5336C38.9035 14.5416 38.9584 14.4707 39.0574 14.321C39.1599 14.1655 39.2893 13.9597 39.4454 13.7036C39.6015 13.4474 39.7802 13.1542 39.9814 12.824C40.1861 12.4882 40.3933 12.1418 40.6031 11.7849C40.8217 11.4262 41.0314 11.0693 41.2324 10.7141C41.4421 10.3572 41.6328 10.0316 41.8044 9.73726C41.9795 9.43726 42.1241 9.18082 42.2383 8.96793C42.3613 8.75333 42.44 8.60505 42.4744 8.5231C42.8019 8.70011 43.1571 8.90182 43.54 9.12823C43.923 9.35465 44.2959 9.63569 44.6589 9.97134C44.9643 10.2229 45.189 10.5303 45.333 10.8936C45.477 11.2568 45.5388 11.621 45.5184 11.9862C45.498 12.3514 45.3933 12.6954 45.2044 13.0182C45.0242 13.3392 44.761 13.5861 44.4147 13.759C44.1881 13.8884 43.9475 13.9578 43.6929 13.9673C43.4437 13.9807 43.1855 13.9006 42.9181 13.7269L42.886 13.7031L42.878 13.6971L42.8728 13.7056C42.8568 13.9997 42.8515 14.3018 42.857 14.6118C42.8659 14.916 42.8704 15.2212 42.8705 15.5272C42.8706 15.8332 42.8619 16.1409 42.8443 16.4504ZM43.5501 10.8721C43.3647 10.7427 43.154 10.6483 42.918 10.5889C42.8783 10.6669 42.8289 10.7543 42.7699 10.851C42.7198 10.9461 42.6652 11.042 42.6062 11.1388C42.5473 11.2356 42.49 11.3295 42.4345 11.4206C42.3843 11.5156 42.3455 11.5984 42.3181 11.669L42.3261 11.675C42.4423 11.7778 42.5709 11.8857 42.7119 11.9986C42.853 12.1116 42.9947 12.2044 43.137 12.277C43.2526 12.3298 43.3632 12.3333 43.4687 12.2877C43.5831 12.2403 43.6769 12.1694 43.7501 12.0748C43.8267 11.9746 43.8802 11.8614 43.9105 11.7351C43.9443 11.6031 43.9428 11.4779 43.9061 11.3597C43.8577 11.1584 43.739 10.9959 43.5501 10.8721Z" fill="black"/>
<path d="M49.1985 15.523C49.2117 15.7947 49.1668 16.0466 49.0636 16.2788C49.0278 16.3874 48.9807 16.4887 48.9224 16.5825C48.8731 16.6763 48.8171 16.7677 48.7544 16.8566C48.6513 16.9899 48.5438 17.1183 48.4318 17.2417C48.3287 17.3651 48.219 17.4861 48.1025 17.6046C47.8517 17.8514 47.6165 18.1007 47.397 18.3525C47.1775 18.6043 46.9423 18.8487 46.6914 19.0857L46.4496 19.3078C46.2838 19.4707 46.1002 19.6188 45.8987 19.7521C45.7016 19.8804 45.4979 19.9716 45.2875 20.0258C45.1039 20.0603 44.9159 20.0453 44.7235 19.9809C44.54 19.9166 44.361 19.8275 44.1866 19.7138C44.0255 19.6148 43.8756 19.4986 43.737 19.3651C43.6028 19.2366 43.4753 19.0957 43.3546 18.9424C43.2696 18.8287 43.1913 18.7126 43.1198 18.594C43.0483 18.4852 42.9902 18.3666 42.9455 18.2381C42.9053 18.1146 42.8808 17.9886 42.8719 17.8601C42.8675 17.7267 42.89 17.5884 42.9394 17.4452C42.9888 17.2525 43.065 17.0747 43.168 16.9118C43.2801 16.7488 43.3988 16.5933 43.5242 16.4451C43.8603 16.0452 44.194 15.6428 44.5256 15.2379C44.866 14.8331 45.2244 14.448 45.6007 14.0827C45.8068 13.8654 46.0329 13.6704 46.2793 13.4977C46.5345 13.325 46.8099 13.2288 47.1053 13.2093C47.1949 13.2094 47.2866 13.2218 47.3806 13.2466C47.5999 13.3307 47.8102 13.4494 48.0115 13.6027C48.2217 13.756 48.4074 13.9316 48.5684 14.1293C48.7338 14.332 48.8702 14.5519 48.9775 14.7892C49.0937 15.0264 49.1673 15.271 49.1985 15.523ZM46.3836 17.6478L46.7062 17.2923L47.1497 16.7739C47.1542 16.7689 47.1945 16.7146 47.2707 16.6109C47.3558 16.5072 47.4342 16.411 47.5059 16.3221C47.6224 16.174 47.7008 16.0085 47.7413 15.8257C47.7862 15.6479 47.7818 15.475 47.7282 15.307C47.6746 15.1686 47.5896 15.0599 47.4733 14.9807C47.357 14.9016 47.2362 14.8521 47.1109 14.8322C46.8334 14.7925 46.5737 14.8467 46.3319 14.9947C46.1259 15.1428 45.9243 15.3155 45.7272 15.513C45.5346 15.7154 45.3487 15.9253 45.1695 16.1425C45.035 16.34 44.8894 16.5351 44.7326 16.7276C44.5803 16.9153 44.4526 17.1153 44.3495 17.3276C44.3046 17.4758 44.3 17.624 44.3357 17.7723C44.3714 17.9205 44.434 18.0539 44.5234 18.1726C44.6173 18.2863 44.7292 18.3802 44.8589 18.4544C44.9931 18.5237 45.1319 18.5534 45.2751 18.5437C45.3691 18.5289 45.4408 18.5141 45.49 18.4994C45.5437 18.4796 45.593 18.45 45.6378 18.4105C45.6826 18.371 45.7296 18.3192 45.7789 18.255C45.8371 18.1908 45.9178 18.1118 46.0208 18.0181C46.1149 17.9243 46.1955 17.8403 46.2627 17.7663C46.3344 17.6972 46.3747 17.6577 46.3836 17.6478Z" fill="black"/>
</svg>
