<svg width="35" height="30" viewBox="0 0 35 30" fill="none" xmlns="http://www.w3.org/2000/svg">
<g clip-path="url(#clip0_10_31)">
<path d="M30.3152 15.4606V28.2381C30.3152 28.4495 30.2312 28.6523 30.0817 28.8017C29.9323 28.9512 29.7296 29.0352 29.5182 29.0352H15.9674C15.756 29.0352 15.5533 28.9512 15.4038 28.8017C15.2543 28.6523 15.1703 28.4495 15.1703 28.2381V11.499C15.1703 11.2876 15.2543 11.0848 15.4038 10.9353C15.5533 10.7859 15.756 10.7019 15.9674 10.7019H25.5566C25.8156 10.7019 26.0747 10.7258 26.3297 10.7736V13.8903C26.3297 14.1017 26.4137 14.3044 26.5632 14.4539C26.7127 14.6034 26.9154 14.6874 27.1268 14.6874H30.2435C30.2913 14.9425 30.3152 15.2015 30.3152 15.4606Z" fill="#66E1FF"/>
<path d="M26.6087 14.4961L15.1703 25.9425V11.499C15.1703 11.2876 15.2543 11.0848 15.4038 10.9353C15.5533 10.7859 15.756 10.7019 15.9674 10.7019H25.5566C25.8156 10.7019 26.0747 10.7258 26.3297 10.7736V13.8903C26.3312 14.0052 26.3569 14.1184 26.4049 14.2228C26.453 14.3271 26.5224 14.4202 26.6087 14.4961Z" fill="#C2F3FF"/>
<path d="M30.2429 14.6874H27.1262C26.9148 14.6874 26.7122 14.6034 26.5627 14.4539C26.4132 14.3044 26.3292 14.1017 26.3292 13.8903V10.7736C27.3104 10.931 28.217 11.3941 28.9197 12.0968C29.6225 12.7995 30.0855 13.7061 30.2429 14.6874Z" fill="#E3E3E3"/>
<path d="M30.3152 17.8758V15.4669C30.3156 14.8413 30.1926 14.2217 29.9534 13.6436C29.7142 13.0655 29.3634 12.5402 28.9212 12.0977C28.4788 11.6552 27.9537 11.3041 27.3757 11.0646C26.7977 10.8251 26.1782 10.7019 25.5526 10.7019H15.9674C15.756 10.7019 15.5533 10.7859 15.4038 10.9353C15.2543 11.0848 15.1703 11.2876 15.1703 11.499V28.2381C15.1703 28.4495 15.2543 28.6523 15.4038 28.8017C15.5533 28.9512 15.756 29.0352 15.9674 29.0352H29.5182C29.7296 29.0352 29.9323 28.9512 30.0817 28.8017C30.2312 28.6523 30.3152 28.4495 30.3152 28.2381V27.441" stroke="#191919" stroke-linecap="round" stroke-linejoin="round"/>
<path d="M20.7497 20.2703V25.0529" stroke="#191919" stroke-linecap="round" stroke-linejoin="round"/>
<path d="M18.3584 25.0529V20.2703" stroke="#191919" stroke-linecap="round" stroke-linejoin="round"/>
<path d="M18.3584 22.6616H20.7497" stroke="#191919" stroke-linecap="round" stroke-linejoin="round"/>
<path d="M22.3444 20.2703H25.5328" stroke="#191919" stroke-linecap="round" stroke-linejoin="round"/>
<path d="M23.9378 20.2703V25.0529" stroke="#191919" stroke-linecap="round" stroke-linejoin="round"/>
<path d="M27.1267 25.0529V20.2703L28.3223 22.6616L29.518 20.2703V25.0529" stroke="#191919" stroke-linecap="round" stroke-linejoin="round"/>
<path d="M31.1119 20.2671V24.2526C31.1119 24.464 31.1958 24.6668 31.3453 24.8162C31.4948 24.9657 31.6976 25.0497 31.909 25.0497H33.5032" stroke="#191919" stroke-linecap="round" stroke-linejoin="round"/>
<path d="M28.9197 12.1C28.2164 11.3966 27.3105 10.9311 26.3292 10.7688V13.8903C26.3292 14.1017 26.4132 14.3044 26.5627 14.4539C26.7122 14.6034 26.9148 14.6874 27.1262 14.6874H30.2509C30.0877 13.7073 29.6223 12.8026 28.9197 12.1Z" stroke="#191919" stroke-linecap="round" stroke-linejoin="round"/>
</g>
<g clip-path="url(#clip1_10_31)">
<path d="M9.23582 14.4866L8.28096 15.8234H11.1455L10.5726 19.2609L12.1004 17.1602L13.2463 15.6325L14.3921 13.9137H11.5275L12.1004 10.4762L10.3817 12.7679L9.23582 14.4866Z" fill="#FFEF5E"/>
<path d="M12.2914 13.9137H11.5275L12.1004 10.4762L10.3817 12.7679L9.23582 14.4866L8.28096 15.8234H10.3817L12.2914 13.9137Z" fill="#FFF9BF"/>
<path d="M9.66991 13.7147L12.1005 10.4762L11.5276 13.9137H14.3922L12.5866 16.407" stroke="#191919" stroke-linecap="round" stroke-linejoin="round"/>
<path d="M12.5866 16.407L10.5726 19.2609L11.1455 15.8234H8.28096L9.66992 13.7147" stroke="#191919" stroke-linecap="round" stroke-linejoin="round"/>
</g>
<g clip-path="url(#clip2_10_31)">
<path d="M9.23582 23.4866L8.28096 24.8234H11.1455L10.5726 28.2609L12.1004 26.1602L13.2463 24.6325L14.3921 22.9137H11.5275L12.1004 19.4762L10.3817 21.7679L9.23582 23.4866Z" fill="#FFEF5E"/>
<path d="M12.2914 22.9137H11.5275L12.1004 19.4762L10.3817 21.7679L9.23582 23.4866L8.28096 24.8234H10.3817L12.2914 22.9137Z" fill="#FFF9BF"/>
<path d="M9.66991 22.7147L12.1005 19.4762L11.5276 22.9137H14.3922L12.5866 25.407" stroke="#191919" stroke-linecap="round" stroke-linejoin="round"/>
<path d="M12.5866 25.407L10.5726 28.2609L11.1455 24.8234H8.28096L9.66992 22.7147" stroke="#191919" stroke-linecap="round" stroke-linejoin="round"/>
</g>
<path d="M2.46983 27.2153C2.48983 27.3084 2.52649 27.3813 2.57982 27.434C2.59315 27.4472 2.61648 27.4602 2.64982 27.4732C2.67648 27.4795 2.69648 27.486 2.70981 27.4925C2.72981 27.5056 2.84647 27.5175 3.05979 27.5283C3.27311 27.5325 3.52642 27.5362 3.81973 27.5394C4.11305 27.5426 4.41969 27.5423 4.73967 27.5385C5.05298 27.5348 5.3263 27.5216 5.55961 27.4988C5.75293 27.4766 5.94292 27.4243 6.12957 27.3421C6.30956 27.2533 6.42622 27.1119 6.47955 26.918C6.49288 26.7712 6.47288 26.6347 6.41955 26.5087C6.35956 26.3761 6.2629 26.2772 6.12957 26.2121C5.97625 26.1406 5.81626 26.1125 5.64961 26.1278C5.47628 26.1365 5.3063 26.1252 5.13964 26.0938C5.15297 26.0003 5.15631 25.8969 5.14964 25.7837C5.14297 25.6638 5.13964 25.5438 5.13964 25.4238C5.13964 25.3038 5.14297 25.1871 5.14964 25.0737C5.15631 24.9536 5.17297 24.8467 5.19964 24.7531C5.54628 24.6357 5.89292 24.6016 6.23957 24.6508C6.57954 24.7001 6.88619 24.8132 7.1595 24.99C7.43282 25.1667 7.65947 25.4007 7.83945 25.6919C8.01277 25.9765 8.10277 26.3021 8.10943 26.6687C8.14277 26.9083 8.14277 27.155 8.10943 27.4087C8.08277 27.6624 8.01944 27.8998 7.91945 28.121C7.81279 28.3422 7.66613 28.5306 7.47948 28.6862C7.29283 28.835 7.05951 28.9245 6.77953 28.9544C6.53954 28.9706 6.28956 28.9836 6.02958 28.9933C5.7696 29.003 5.47962 29.0131 5.15964 29.0236C4.833 29.0274 4.46636 29.0317 4.05972 29.0365C3.64641 29.0348 3.16978 29.0337 2.62982 29.0334C2.51649 29.0481 2.40317 29.0461 2.28984 29.0274C2.16985 29.0022 2.05986 28.9701 1.95986 28.9313C1.78654 28.8734 1.62655 28.8019 1.4799 28.717C1.33324 28.6254 1.20325 28.5169 1.08992 28.3916C1.03659 28.3189 0.993264 28.2394 0.959933 28.1531C0.919935 28.0669 0.886604 27.9773 0.85994 27.8843C0.759947 27.5788 0.71995 27.276 0.739948 26.9757C0.759947 26.6755 0.829942 26.3947 0.949933 26.1332C1.06326 25.8652 1.21658 25.6234 1.4099 25.4078C1.60322 25.1922 1.82654 25.0196 2.07985 24.8899C2.3265 24.7603 2.59649 24.6805 2.8898 24.6504C3.18311 24.6202 3.48309 24.6567 3.78974 24.7597C3.84307 25.0058 3.86306 25.2489 3.84973 25.489C3.82973 25.7226 3.7964 25.9663 3.74974 26.2202C3.62308 26.2417 3.47976 26.2567 3.31977 26.2653C3.15978 26.2672 3.01312 26.2856 2.8798 26.3205C2.73981 26.3555 2.62648 26.4201 2.53982 26.5145C2.45316 26.6022 2.41316 26.7426 2.41983 26.9359C2.43316 27.0224 2.44983 27.1155 2.46983 27.2153ZM1.4699 20.5343C1.64322 20.3389 1.84654 20.1999 2.07985 20.1171C2.17985 20.0693 2.28317 20.0347 2.38983 20.0134C2.48983 19.9856 2.59315 19.9644 2.69981 19.9498C2.86647 19.9345 3.03312 19.9258 3.19978 19.9239C3.35977 19.9153 3.52309 19.9134 3.68974 19.9181C4.04305 19.9339 4.38636 19.9365 4.71967 19.9259C5.05298 19.9153 5.39296 19.9213 5.7396 19.9439L6.06958 19.97C6.30289 19.9806 6.53954 20.0145 6.77953 20.0716C7.01284 20.1289 7.22616 20.2164 7.41948 20.3341C7.57947 20.4455 7.70946 20.594 7.80946 20.7795C7.90278 20.9584 7.97611 21.1508 8.02944 21.3569C8.08277 21.5429 8.1161 21.7325 8.12943 21.9257C8.14277 22.1122 8.14277 22.3022 8.12943 22.4957C8.1161 22.6358 8.0961 22.7727 8.06944 22.9064C8.04944 23.0333 8.01277 23.1571 7.95945 23.2777C7.90612 23.3917 7.83945 23.4958 7.75946 23.5901C7.6728 23.6844 7.56281 23.7624 7.42948 23.824C7.26283 23.9193 7.08617 23.9847 6.89952 24.0202C6.7062 24.0492 6.51288 24.0681 6.31956 24.0771C5.7996 24.1032 5.27963 24.1327 4.75967 24.1655C4.23304 24.1917 3.70641 24.1912 3.17978 24.1641C2.8798 24.161 2.57982 24.1279 2.27984 24.0647C1.9732 23.995 1.70321 23.8582 1.4699 23.6543C1.40324 23.5884 1.34324 23.5125 1.28991 23.4264C1.18325 23.2077 1.10659 22.9719 1.05993 22.7191C1.0066 22.4598 0.986598 22.2033 0.99993 21.9498C1.01326 21.6897 1.05993 21.4391 1.13992 21.1982C1.21325 20.9507 1.32324 20.7294 1.4699 20.5343ZM4.99965 21.1526L4.51968 21.1583L3.83973 21.1863C3.83307 21.1864 3.7664 21.1939 3.63975 21.2087C3.50642 21.2169 3.3831 21.225 3.26977 21.2331C3.08312 21.2486 2.91313 21.3039 2.75981 21.3991C2.60648 21.4875 2.49316 21.6089 2.41983 21.7631C2.3665 21.897 2.3565 22.0338 2.38983 22.1734C2.42316 22.313 2.47983 22.4357 2.55982 22.5414C2.73981 22.7726 2.96979 22.9266 3.24977 23.0033C3.50309 23.0536 3.76974 23.0838 4.04972 23.0938C4.3297 23.0972 4.60968 23.0906 4.88966 23.0739C5.12298 23.0378 5.36296 23.0117 5.60961 22.9954C5.84959 22.9793 6.07958 22.9366 6.29956 22.8673C6.43289 22.799 6.53621 22.7012 6.60954 22.5736C6.68287 22.4461 6.7262 22.3089 6.73953 22.1621C6.7462 22.0154 6.7262 21.8689 6.67953 21.7228C6.6262 21.5768 6.54288 21.4544 6.42955 21.3558C6.34956 21.2967 6.28623 21.2541 6.23957 21.228C6.18624 21.202 6.12957 21.186 6.06958 21.18C6.00958 21.174 5.93959 21.1749 5.85959 21.1825C5.77293 21.1835 5.65961 21.1782 5.51962 21.1665C5.38629 21.1614 5.26963 21.1594 5.16964 21.1606C5.06965 21.1551 5.01298 21.1525 4.99965 21.1526ZM1.30991 16.2122C1.46323 16.0104 1.63655 15.8483 1.82987 15.7261C2.05652 15.5767 2.29317 15.4539 2.53982 15.3577C2.77981 15.2549 3.03312 15.1719 3.29977 15.1087C3.40643 15.0741 3.51309 15.0529 3.61975 15.0449C3.71974 15.0304 3.82307 15.0192 3.92973 15.0113C4.24304 15.0209 4.55968 15.0305 4.87966 15.0401C5.19297 15.043 5.50295 15.0727 5.8096 15.1291C5.81626 15.129 5.81959 15.1323 5.81959 15.139C5.81959 15.139 5.82293 15.1389 5.82959 15.1389C6.2229 15.2675 6.59621 15.4465 6.94952 15.6756C7.30282 15.8981 7.63613 16.1342 7.94945 16.3838C7.96278 16.8237 7.97278 17.2669 7.97944 17.7135C7.97944 18.1601 7.97944 18.5935 7.97944 19.0135C7.97944 19.0135 7.98278 19.0168 7.98944 19.0234C7.46281 19.1029 6.91952 19.156 6.35956 19.1826C5.79293 19.2093 5.21964 19.2261 4.63968 19.2329C4.05972 19.2397 3.47642 19.2433 2.8898 19.2436C2.29651 19.2372 1.70988 19.2441 1.12992 19.2643C1.12325 19.2577 1.11659 19.2545 1.10992 19.2546C1.10326 19.248 1.09659 19.2414 1.08992 19.2348C1.04326 19.0487 1.01326 18.8557 0.99993 18.6559C0.979931 18.4494 0.973265 18.2428 0.979931 18.0361C0.979931 17.8294 0.983265 17.6261 0.989931 17.426C0.996597 17.2192 0.996597 17.0192 0.989931 16.826C1.04326 16.612 1.14992 16.4074 1.30991 16.2122ZM5.63961 16.7411C5.57961 16.6885 5.51962 16.6425 5.45962 16.6032C5.2863 16.4919 5.09631 16.4142 4.88966 16.3699C4.68301 16.3191 4.45636 16.3217 4.20971 16.378C4.10971 16.3992 4.00639 16.4237 3.89973 16.4516C3.7864 16.4796 3.67974 16.5209 3.57975 16.5754C3.47976 16.6233 3.3931 16.6843 3.31977 16.7585C3.23977 16.8328 3.17978 16.9268 3.13978 17.0406C3.12645 17.1541 3.11978 17.2775 3.11978 17.4108C3.11312 17.5443 3.12312 17.6708 3.14978 17.7905V17.8105V17.8205L3.18978 17.82C3.36976 17.8046 3.56308 17.7956 3.76974 17.7932C3.97639 17.7907 4.19304 17.7915 4.41969 17.7955C4.63968 17.7996 4.86633 17.8002 5.09964 17.7975C5.3263 17.7948 5.55295 17.7855 5.7796 17.7694C5.84626 17.6953 5.87626 17.595 5.86959 17.4684C5.86292 17.3351 5.85293 17.2086 5.83959 17.0887C5.84626 17.0553 5.84293 17.0254 5.82959 16.9989C5.8096 16.9724 5.79293 16.9426 5.7796 16.9094C5.7396 16.8432 5.69294 16.7871 5.63961 16.7411ZM6.62954 11.4652C6.64954 11.0383 6.65287 10.5982 6.63954 10.1451L6.65954 10.1448C6.87285 10.129 7.09617 10.123 7.32949 10.1269C7.55614 10.1309 7.76946 10.1584 7.96944 10.2094C7.96278 10.8895 7.97278 11.5827 7.99944 12.289C8.01944 12.9888 8.00278 13.6623 7.94945 14.3096C7.36949 14.3165 6.79619 14.3299 6.22957 14.3499C5.65627 14.37 5.08631 14.3867 4.51968 14.4001C3.95306 14.4135 3.38643 14.4201 2.8198 14.4202C2.25318 14.4202 1.68322 14.4069 1.10992 14.3803C1.09659 14.1205 1.08659 13.8406 1.07992 13.5407C1.06659 13.2342 1.05659 12.9276 1.04993 12.6211C1.04326 12.3145 1.03659 12.0179 1.02993 11.7313C1.02326 11.4447 1.01993 11.1914 1.01993 10.9714C1.01993 10.7514 1.02326 10.5747 1.02993 10.4413C1.03659 10.3079 1.04326 10.2411 1.04993 10.2411C1.28324 10.205 1.51989 10.1955 1.75988 10.2127C1.99986 10.2232 2.23651 10.227 2.46983 10.2243L2.47983 10.2242C2.52649 10.437 2.55649 10.6533 2.56982 10.8731C2.57649 11.0864 2.57982 11.303 2.57982 11.523C2.57315 11.7431 2.56982 11.9631 2.56982 12.1831C2.56982 12.4031 2.57982 12.623 2.59982 12.8428V12.8728L2.60982 12.8826C2.80314 12.8737 3.00312 12.8813 3.20978 12.9056C3.40976 12.9232 3.59975 12.9076 3.77974 12.8588L3.78974 12.8487C3.80307 12.6486 3.80973 12.4451 3.80973 12.2385C3.80973 12.0318 3.81307 11.8251 3.81973 11.6184L3.82973 11.6182C4.05638 11.5822 4.28303 11.5696 4.50969 11.5802C4.73634 11.5909 4.97299 11.5914 5.21964 11.5818C5.2463 11.6815 5.26297 11.7947 5.26963 11.9212C5.26963 12.0479 5.26963 12.1712 5.26963 12.2912C5.26963 12.4046 5.27297 12.5079 5.27963 12.6011C5.2863 12.6944 5.30296 12.7575 5.32963 12.7905C5.52295 12.8216 5.7396 12.8324 5.97958 12.8229C6.21957 12.8067 6.41955 12.791 6.57954 12.7758L6.58954 12.7657C6.58954 12.3257 6.60287 11.8922 6.62954 11.4652ZM7.56947 2.41769L7.65947 2.41663L7.70946 2.42604C7.78279 2.44517 7.83945 2.48117 7.87945 2.53403C7.91945 2.58689 7.94945 2.64987 7.96944 2.72297C7.98944 2.7894 7.99944 2.86261 7.99944 2.94261C8.00611 3.02254 8.00944 3.1025 8.00944 3.1825V3.2325C8.00944 3.3525 8.00611 3.4592 7.99944 3.55261C7.99278 3.64603 7.97611 3.73289 7.94945 3.8132C7.92278 3.89352 7.88612 3.97395 7.83945 4.0545C7.78612 4.13513 7.7128 4.226 7.61947 4.3271C7.75279 4.52553 7.84945 4.74772 7.90945 4.99368C7.96278 5.23971 7.99611 5.49265 8.00944 5.7525C8.00944 6.08583 7.94611 6.37991 7.81946 6.63474C7.68613 6.88298 7.51614 7.09165 7.30949 7.26076C7.09617 7.42994 6.85952 7.5594 6.59954 7.64914C6.33289 7.73895 6.06624 7.78543 5.7996 7.78858C5.61961 7.79071 5.44295 7.76612 5.26963 7.71484C5.09631 7.65688 4.92966 7.58218 4.76967 7.49074C4.60301 7.39937 4.44636 7.29456 4.2997 7.17629C4.15304 7.05802 4.01972 6.93626 3.89973 6.81101C3.79307 6.89227 3.67308 6.98035 3.53975 7.07526C3.40643 7.1635 3.26644 7.24848 3.11978 7.33021C2.97313 7.40528 2.82314 7.47038 2.66981 7.52553C2.50982 7.57408 2.35317 7.59926 2.19985 7.60107C1.98653 7.60359 1.78987 7.55258 1.60989 7.44804C1.42323 7.33691 1.26324 7.19213 1.12992 7.0137C0.989931 6.82869 0.883272 6.62328 0.809943 6.39748C0.729949 6.16509 0.689952 5.9289 0.689952 5.6889C0.689952 5.43556 0.733282 5.20172 0.819942 4.98736C0.899937 4.77308 1.00993 4.59179 1.14992 4.44347C1.28991 4.28848 1.45323 4.16989 1.63989 4.08768C1.81987 3.99889 2.00986 3.95332 2.20985 3.95096C2.45649 3.94804 2.68315 4.00203 2.8898 4.11293C3.08978 4.2239 3.28644 4.34158 3.47976 4.46596C3.53975 4.50526 3.59975 4.54455 3.65974 4.58384C3.71307 4.62321 3.76974 4.65921 3.82973 4.69183C3.90306 4.73763 3.94639 4.76046 3.95972 4.7603C3.97972 4.76006 4.01305 4.763 4.05972 4.76912C4.09971 4.76865 4.16304 4.7579 4.2497 4.73688C4.3297 4.71593 4.42969 4.67475 4.54968 4.61334C4.66967 4.55192 4.813 4.45689 4.97965 4.32826C4.92632 4.29556 4.86633 4.27293 4.79967 4.26038C4.72634 4.24125 4.65301 4.23212 4.57968 4.23298C4.45302 4.22114 4.34636 4.17574 4.2597 4.09676C4.16638 4.01786 4.11971 3.87174 4.11971 3.65841V2.94841C4.11971 2.83508 4.14304 2.7448 4.18971 2.67758C4.23637 2.61037 4.33636 2.57585 4.48969 2.57404C4.70301 2.57153 4.89299 2.59928 5.05965 2.65732C5.21964 2.71543 5.38629 2.78013 5.55961 2.85141L5.54961 2.85153C5.58294 2.86447 5.61628 2.87741 5.64961 2.89035C5.67627 2.90337 5.71294 2.91627 5.7596 2.92905C5.7796 2.94215 5.8096 2.95846 5.84959 2.97799C5.88292 2.99093 5.91625 3.0072 5.94959 3.02681C6.02291 3.05928 6.09957 3.09504 6.17957 3.1341C6.25956 3.17315 6.31623 3.19248 6.34956 3.19209C6.38955 3.19162 6.44288 3.16432 6.50955 3.1102C6.56954 3.04949 6.63954 2.98867 6.71953 2.92772L6.70953 2.92784C6.82952 2.83309 6.95951 2.73489 7.09951 2.63324C7.2395 2.52492 7.39615 2.45307 7.56947 2.41769ZM1.87987 5.52485C1.83987 5.55199 1.81987 5.60223 1.81987 5.67556C1.81987 5.80889 1.85654 5.91513 1.92986 5.99426C1.99653 6.06681 2.09652 6.10229 2.22984 6.10072C2.29651 6.09993 2.37317 6.08903 2.45983 6.068C2.54649 6.04698 2.62982 6.02266 2.70981 5.99505C2.78981 5.96078 2.85647 5.92666 2.9098 5.89269C2.96313 5.85206 2.98646 5.81512 2.97979 5.78187L2.98979 5.78175C2.96979 5.66198 2.86647 5.57987 2.67981 5.53541C2.48649 5.49102 2.26984 5.47025 2.02986 5.47308C1.96986 5.47379 1.91987 5.49104 1.87987 5.52485ZM6.59954 5.45914C6.59287 5.41255 6.58621 5.37263 6.57954 5.33937C6.56621 5.29953 6.54621 5.24977 6.51955 5.19008C6.48621 5.12381 6.46622 5.09071 6.45955 5.09079C6.43288 5.09111 6.37956 5.08507 6.29956 5.07268C6.2129 5.06037 6.11624 5.05151 6.00958 5.0461C5.90292 5.04069 5.79293 5.04866 5.6796 5.07C5.55961 5.08475 5.45629 5.12263 5.36963 5.18366C5.28297 5.24468 5.2163 5.33213 5.16964 5.44602C5.11631 5.55998 5.10298 5.71014 5.12964 5.89649C5.13631 5.95641 5.17297 6.01264 5.23963 6.06519C5.29963 6.11782 5.37296 6.16362 5.45962 6.20259C5.54628 6.2349 5.63961 6.25714 5.7396 6.26929C5.83293 6.28152 5.91959 6.2805 5.99958 6.26622C6.06624 6.25877 6.13624 6.24461 6.20957 6.22374C6.2829 6.19621 6.34956 6.15876 6.40955 6.11138C6.46955 6.05734 6.51955 5.99008 6.55954 5.90961C6.59287 5.82922 6.60954 5.72902 6.60954 5.60902C6.60954 5.55569 6.60621 5.50573 6.59954 5.45914Z" fill="black"/>
<path d="M13.9416 3.98839C14.0981 4.25504 14.1886 4.57835 14.2131 4.95832L14.2132 4.96832C14.2137 5.01499 14.2143 5.06165 14.2148 5.10831C14.2153 5.14831 14.2124 5.18831 14.2062 5.2283C14.17 5.54828 14.0668 5.84159 13.8966 6.10824C13.7331 6.37489 13.5258 6.60154 13.2747 6.78819C13.0235 6.97485 12.7451 7.11151 12.4395 7.19817C12.1338 7.27816 11.8206 7.29149 11.5 7.23816C11.5077 7.33149 11.5122 7.42482 11.5133 7.51814C11.5143 7.6048 11.5158 7.7348 11.5179 7.90812C11.5198 8.07477 11.5225 8.30142 11.5259 8.58807C11.5359 8.87472 11.5505 9.26136 11.5696 9.74799L11.5697 9.75799C11.563 9.75799 11.5564 9.76132 11.5498 9.76799C11.5498 9.76799 11.5465 9.76799 11.5398 9.76799C11.4468 9.79465 11.327 9.81465 11.1805 9.82798C11.0406 9.83465 10.8907 9.84132 10.7308 9.84798C10.5774 9.84798 10.4241 9.84465 10.2707 9.83798C10.1172 9.83132 9.98379 9.82132 9.8703 9.80798C9.84455 9.32135 9.82834 8.79472 9.82165 8.22809C9.81488 7.6548 9.80796 7.06818 9.80087 6.46822C9.79379 5.86826 9.78334 5.26497 9.76951 4.65834C9.76235 4.05172 9.7455 3.47176 9.71897 2.91846C9.99144 2.84514 10.2875 2.79181 10.6071 2.75848C10.9334 2.72514 11.2567 2.72181 11.577 2.74848C11.9039 2.77514 12.2213 2.83514 12.5291 2.92846C12.8368 3.01512 13.1084 3.14845 13.3438 3.32844C13.5859 3.50176 13.7851 3.72174 13.9416 3.98839ZM12.6605 4.73834C12.6128 4.65834 12.5454 4.59168 12.4581 4.53835C12.2899 4.40503 12.0955 4.3217 11.8751 4.28837C11.6547 4.24837 11.4381 4.25504 11.2254 4.30837C11.212 4.30837 11.2021 4.3117 11.1955 4.31837C11.2036 4.43836 11.2051 4.56502 11.2 4.69834C11.2016 4.83166 11.2031 4.96499 11.2047 5.09831C11.2129 5.23164 11.2211 5.36163 11.2293 5.48829C11.2441 5.60828 11.2687 5.71827 11.3032 5.81826H11.3332C11.4398 5.8116 11.5531 5.80826 11.6731 5.80826C11.793 5.8016 11.9096 5.7916 12.0227 5.77827C12.1426 5.76493 12.2556 5.7416 12.3619 5.70827C12.4748 5.66827 12.5707 5.60828 12.6498 5.52828C12.7022 5.45495 12.7379 5.37163 12.7568 5.2783C12.7824 5.18497 12.7846 5.09165 12.7635 4.99832C12.7491 4.90499 12.7147 4.81833 12.6605 4.73834ZM18.2846 3.33843C18.48 3.51176 18.6191 3.71508 18.7018 3.94839C18.7497 4.04839 18.7842 4.15171 18.8055 4.25837C18.8333 4.35836 18.8546 4.46169 18.8692 4.56835C18.8845 4.735 18.8931 4.90166 18.8951 5.06831C18.9036 5.2283 18.9055 5.39163 18.9008 5.55828C18.885 5.91159 18.8824 6.2549 18.893 6.58821C18.9036 6.92152 18.8976 7.2615 18.875 7.60814L18.8489 7.93811C18.8383 8.17143 18.8045 8.40808 18.7473 8.64807C18.6901 8.88138 18.6026 9.0947 18.4849 9.28802C18.3734 9.44801 18.225 9.578 18.0395 9.67799C17.8606 9.77132 17.6681 9.84465 17.4621 9.89798C17.276 9.95131 17.0864 9.98464 16.8932 9.99797C16.7067 10.0113 16.5167 10.0113 16.3232 9.99797C16.1831 9.98464 16.0462 9.96464 15.9125 9.93798C15.7856 9.91798 15.6619 9.88131 15.5412 9.82798C15.4273 9.77465 15.3232 9.70799 15.2289 9.628C15.1345 9.54134 15.0566 9.43134 14.995 9.29802C14.8997 9.13137 14.8343 8.95471 14.7987 8.76806C14.7698 8.57474 14.7508 8.38142 14.7419 8.1881C14.7157 7.66813 14.6863 7.14817 14.6535 6.62821C14.6272 6.10158 14.6277 5.57495 14.6548 5.04832C14.6579 4.74834 14.6911 4.44836 14.7542 4.14838C14.8239 3.84173 14.9607 3.57175 15.1646 3.33843C15.2305 3.27177 15.3065 3.21178 15.3925 3.15845C15.6112 3.05179 15.847 2.97513 16.0998 2.92846C16.3592 2.87513 16.6156 2.85514 16.8691 2.86847C17.1292 2.8818 17.3798 2.92846 17.6207 3.00846C17.8683 3.08179 18.0896 3.19178 18.2846 3.33843ZM17.6663 6.86819L17.6606 6.38822L17.6326 5.70827C17.6325 5.7016 17.6251 5.63494 17.6102 5.50828C17.602 5.37496 17.5939 5.25164 17.5859 5.13831C17.5703 4.95166 17.515 4.78167 17.4199 4.62835C17.3314 4.47502 17.21 4.3617 17.0558 4.28837C16.9219 4.23504 16.7851 4.22504 16.6455 4.25837C16.5059 4.2917 16.3832 4.34836 16.2775 4.42836C16.0463 4.60835 15.8923 4.83833 15.8156 5.11831C15.7653 5.37163 15.7351 5.63828 15.7251 5.91826C15.7217 6.19824 15.7284 6.47822 15.745 6.7582C15.7811 6.99151 15.8073 7.2315 15.8235 7.47815C15.8397 7.71813 15.8824 7.94811 15.9516 8.1681C16.0199 8.30142 16.1178 8.40475 16.2453 8.47808C16.3728 8.55141 16.51 8.59474 16.6568 8.60807C16.8036 8.61473 16.95 8.59474 17.0961 8.54807C17.2422 8.49474 17.3645 8.41142 17.4632 8.29809C17.5222 8.2181 17.5648 8.15477 17.5909 8.1081C17.617 8.05477 17.633 7.99811 17.6389 7.93811C17.6449 7.87812 17.6441 7.80812 17.6364 7.72813C17.6354 7.64147 17.6408 7.52814 17.6524 7.38815C17.6575 7.25483 17.6595 7.13817 17.6583 7.03818C17.6638 6.93818 17.6665 6.88152 17.6663 6.86819ZM22.9331 2.86847C23.1597 2.86847 23.3832 2.87847 23.6034 2.89847L23.6135 2.90847C23.5272 4.06172 23.4274 5.21164 23.3143 6.35822C23.2078 7.50481 23.1147 8.65806 23.0351 9.81798C22.9886 9.83132 22.9353 9.83798 22.8753 9.83798C22.822 9.83798 22.762 9.83798 22.6953 9.83798H22.3353H22.2153C22.1544 9.75799 22.0997 9.64466 22.0513 9.49801C22.0095 9.34468 21.9643 9.18469 21.9157 9.01804C21.8669 8.84472 21.8183 8.67806 21.7698 8.51807C21.7212 8.35809 21.6664 8.23143 21.6053 8.1381H21.5953C21.536 8.1981 21.4839 8.30476 21.4391 8.45808C21.4008 8.60474 21.3627 8.76472 21.3247 8.93805C21.2867 9.1047 21.2486 9.26802 21.2105 9.42801C21.1724 9.588 21.1272 9.71132 21.0749 9.79799C20.9884 9.81132 20.9085 9.82465 20.8353 9.83798C20.7621 9.84465 20.6788 9.84798 20.5855 9.84798C20.4788 9.84798 20.352 9.83798 20.2051 9.81798H20.1951C20.0216 8.67806 19.8514 7.53148 19.6845 6.37822C19.5176 5.22497 19.4173 4.07172 19.3837 2.91846L19.3835 2.90847C19.4834 2.89513 19.5866 2.88513 19.6932 2.87847C19.8064 2.86513 19.9196 2.85847 20.033 2.85847C20.1663 2.85847 20.2997 2.8618 20.4331 2.86847C20.5665 2.87513 20.6932 2.8818 20.8133 2.88847C20.8434 3.18178 20.8607 3.51176 20.865 3.8784C20.8693 4.24504 20.8737 4.61501 20.8781 4.98832C20.8825 5.36163 20.8968 5.72827 20.9211 6.08824C20.9453 6.44822 20.9958 6.77153 21.0725 7.05818C21.1557 6.7582 21.2289 6.46488 21.2921 6.17824C21.362 5.88492 21.4318 5.58828 21.5016 5.2883C21.5081 5.27497 21.5114 5.26497 21.5113 5.2583C21.5112 5.25164 21.5145 5.24497 21.521 5.2383C21.5479 5.2583 21.5858 5.35496 21.6345 5.52828C21.6898 5.69494 21.742 5.88492 21.7912 6.09824C21.847 6.31156 21.8995 6.52155 21.9486 6.7282C22.0044 6.93485 22.0529 7.08817 22.0941 7.18817C22.1173 6.90152 22.1335 6.57488 22.1425 6.20824C22.1514 5.83493 22.1569 5.45495 22.159 5.06831C22.1678 4.68167 22.1734 4.30503 22.1757 3.93839C22.1846 3.56509 22.2007 3.23178 22.2239 2.93846L22.2238 2.92846C22.3368 2.9018 22.4533 2.88513 22.5732 2.87847C22.6931 2.8718 22.8131 2.86847 22.9331 2.86847ZM27.178 8.49808C27.6049 8.51807 28.0449 8.52141 28.4981 8.50808L28.4983 8.52807C28.5142 8.74139 28.5201 8.96471 28.5162 9.19803C28.5122 9.42468 28.4847 9.638 28.4338 9.83798C27.7537 9.83132 27.0605 9.84132 26.3541 9.86798C25.6544 9.88798 24.9808 9.87131 24.3335 9.81798C24.3267 9.23802 24.3133 8.66473 24.2932 8.0981C24.2731 7.52481 24.2564 6.95485 24.2431 6.38822C24.2297 5.8216 24.223 5.25497 24.223 4.68834C24.223 4.12171 24.2362 3.55175 24.2628 2.97846C24.5226 2.96513 24.8025 2.95513 25.1025 2.94846C25.409 2.93513 25.7155 2.92513 26.0221 2.91846C26.3287 2.9118 26.6253 2.90513 26.9119 2.89847C27.1984 2.8918 27.4517 2.88847 27.6717 2.88847C27.8917 2.88847 28.0684 2.8918 28.2019 2.89847C28.3353 2.90513 28.402 2.9118 28.4021 2.91846C28.4382 3.15178 28.4476 3.38843 28.4305 3.62842C28.42 3.8684 28.4161 4.10505 28.4189 4.33837L28.419 4.34836C28.2062 4.39503 27.9899 4.42503 27.77 4.43836C27.5568 4.44502 27.3402 4.44836 27.1202 4.44836C26.9001 4.44169 26.68 4.43836 26.46 4.43836C26.24 4.43836 26.0202 4.44836 25.8004 4.46836H25.7704L25.7605 4.47836C25.7695 4.67168 25.7618 4.87166 25.7376 5.07831C25.72 5.2783 25.7355 5.46829 25.7843 5.64827L25.7944 5.65827C25.9946 5.67161 26.198 5.67827 26.4047 5.67827C26.6113 5.67827 26.818 5.68161 27.0248 5.68827L27.0249 5.69827C27.0609 5.92492 27.0736 6.15157 27.0629 6.37822C27.0523 6.60487 27.0517 6.84152 27.0613 7.08817C26.9616 7.11484 26.8485 7.1315 26.7219 7.13817C26.5952 7.13817 26.4719 7.13817 26.3519 7.13817C26.2386 7.13817 26.1353 7.1415 26.042 7.14817C25.9488 7.15484 25.8856 7.1715 25.8526 7.19817C25.8216 7.39149 25.8108 7.60814 25.8203 7.84812C25.8365 8.0881 25.8521 8.28809 25.8674 8.44808L25.8775 8.45808C26.3175 8.45808 26.751 8.47141 27.178 8.49808ZM33.4789 9.04804C33.6286 9.30135 33.755 9.56467 33.8582 9.83798H33.8682C33.6349 9.83798 33.375 9.84798 33.0886 9.86798C32.8021 9.88131 32.5087 9.87798 32.2085 9.85798H32.1985C32.13 9.70466 32.0445 9.52134 31.942 9.30802C31.8395 9.0947 31.7268 8.87138 31.6041 8.63807C31.4813 8.40475 31.3486 8.17477 31.2059 7.94811C31.0632 7.72146 30.9209 7.52148 30.7788 7.34816L30.7585 7.31816C30.7403 7.47148 30.7325 7.66147 30.7352 7.88812C30.7378 8.1081 30.7439 8.33809 30.7534 8.57807C30.7694 8.81139 30.7854 9.03471 30.8013 9.24802C30.8171 9.46134 30.8291 9.63133 30.8373 9.75799C30.7245 9.80465 30.5749 9.83465 30.3883 9.84798C30.2085 9.86131 30.0286 9.86798 29.8486 9.86798C29.6687 9.87465 29.5053 9.87465 29.3586 9.86798C29.2185 9.86131 29.1318 9.86131 29.0986 9.86798C29.1119 9.86798 29.1209 9.77799 29.1254 9.598C29.1299 9.41135 29.1303 9.16803 29.1268 8.86805C29.1232 8.56807 29.1192 8.22476 29.1146 7.83812C29.11 7.44482 29.1019 7.04151 29.0903 6.62821C29.0854 6.20824 29.0738 5.79493 29.0557 5.38829C29.0442 4.97499 29.033 4.59835 29.0224 4.25837C29.0116 3.91173 28.9981 3.61842 28.982 3.37843C28.9724 3.13178 28.9604 2.96513 28.9461 2.87847C29.3188 2.82514 29.7282 2.77514 30.1743 2.72848C30.6204 2.68181 31.0871 2.68515 31.5744 2.73848C31.968 2.75848 32.3227 2.8718 32.6384 3.07845C32.9542 3.28511 33.2006 3.54175 33.3775 3.8484C33.5545 4.15504 33.6485 4.49502 33.6596 4.86833C33.6772 5.23497 33.5848 5.59161 33.3822 5.93825C33.2584 6.17824 33.0907 6.37822 32.8793 6.53821C32.6745 6.6982 32.4122 6.78819 32.0925 6.80819H32.0525H32.0425L32.0426 6.81819C32.1855 7.06484 32.3417 7.31149 32.5113 7.55814C32.6808 7.79812 32.847 8.04144 33.0099 8.28809C33.1728 8.53474 33.3292 8.78806 33.4789 9.04804ZM31.1108 4.12838C30.8842 4.13505 30.6548 4.18504 30.4226 4.27837C30.4303 4.36503 30.4348 4.46502 30.4361 4.57835C30.4441 4.68501 30.4487 4.795 30.45 4.90833C30.4514 5.02165 30.4527 5.13164 30.4539 5.2383C30.4619 5.34496 30.4729 5.43496 30.4871 5.50828H30.4971C30.6506 5.52162 30.8174 5.53162 30.9975 5.53828C31.1776 5.54495 31.3474 5.53495 31.5071 5.50828C31.6335 5.48162 31.7294 5.41829 31.7949 5.3183C31.867 5.21164 31.9089 5.09831 31.9209 4.97832C31.9327 4.85166 31.9179 4.72834 31.8765 4.60835C31.835 4.48169 31.7672 4.3817 31.673 4.30837C31.5247 4.17504 31.3373 4.11505 31.1108 4.12838Z" fill="black"/>
<defs>
<clipPath id="clip0_10_31">
<rect width="20" height="20" fill="white" transform="translate(14.3366 9.86854)"/>
</clipPath>
<clipPath id="clip1_10_31">
<rect width="10" height="10" fill="white" transform="translate(6.33658 9.86854)"/>
</clipPath>
<clipPath id="clip2_10_31">
<rect width="10" height="10" fill="white" transform="translate(6.33658 18.8685)"/>
</clipPath>
</defs>
</svg>
