<svg width="40" height="30" viewBox="0 0 40 30" fill="none" xmlns="http://www.w3.org/2000/svg">
<g clip-path="url(#clip0_10_31)">
<path d="M30.9787 15.592V28.3696C30.9787 28.581 30.8947 28.7838 30.7452 28.9332C30.5957 29.0827 30.393 29.1667 30.1816 29.1667H16.6308C16.4194 29.1667 16.2167 29.0827 16.0672 28.9332C15.9177 28.7838 15.8337 28.581 15.8337 28.3696V11.6304C15.8337 11.419 15.9177 11.2163 16.0672 11.0668C16.2167 10.9173 16.4194 10.8333 16.6308 10.8333H26.22C26.479 10.8333 26.7381 10.8573 26.9932 10.9051V14.0217C26.9932 14.2331 27.0772 14.4359 27.2267 14.5854C27.3761 14.7349 27.5788 14.8188 27.7902 14.8188H30.9069C30.9547 15.0739 30.9787 15.333 30.9787 15.592Z" fill="#66E1FF"/>
<path d="M27.2722 14.6275L15.8337 26.0739V11.6304C15.8337 11.419 15.9177 11.2163 16.0672 11.0668C16.2167 10.9173 16.4194 10.8333 16.6308 10.8333H26.22C26.479 10.8333 26.7381 10.8573 26.9932 10.9051V14.0217C26.9947 14.1366 27.0203 14.2499 27.0683 14.3542C27.1164 14.4586 27.1858 14.5517 27.2722 14.6275Z" fill="#C2F3FF"/>
<path d="M30.9063 14.8188H27.7897C27.5783 14.8188 27.3756 14.7348 27.2261 14.5854C27.0766 14.4359 26.9926 14.2331 26.9926 14.0217V10.9051C27.9738 11.0625 28.8804 11.5255 29.5832 12.2283C30.2859 12.931 30.7489 13.8376 30.9063 14.8188Z" fill="#E3E3E3"/>
<path d="M30.9787 18.0073V15.5984C30.979 14.9728 30.856 14.3532 30.6168 13.7751C30.3776 13.197 30.0268 12.6716 29.5846 12.2291C29.1422 11.7866 28.6172 11.4356 28.0392 11.1961C27.4612 10.9566 26.8417 10.8333 26.216 10.8333H16.6308C16.4194 10.8333 16.2167 10.9173 16.0672 11.0668C15.9177 11.2163 15.8337 11.419 15.8337 11.6304V28.3696C15.8337 28.581 15.9177 28.7838 16.0672 28.9332C16.2167 29.0827 16.4194 29.1667 16.6308 29.1667H30.1816C30.393 29.1667 30.5957 29.0827 30.7452 28.9332C30.8947 28.7838 30.9787 28.581 30.9787 28.3696V27.5725" stroke="#191919" stroke-linecap="round" stroke-linejoin="round"/>
<path d="M21.4132 20.4017V25.1843" stroke="#191919" stroke-linecap="round" stroke-linejoin="round"/>
<path d="M19.0218 25.1843V20.4017" stroke="#191919" stroke-linecap="round" stroke-linejoin="round"/>
<path d="M19.0218 22.7931H21.4131" stroke="#191919" stroke-linecap="round" stroke-linejoin="round"/>
<path d="M23.0078 20.4017H26.1962" stroke="#191919" stroke-linecap="round" stroke-linejoin="round"/>
<path d="M24.6013 20.4017V25.1843" stroke="#191919" stroke-linecap="round" stroke-linejoin="round"/>
<path d="M27.7901 25.1843V20.4017L28.9857 22.7931L30.1814 20.4017V25.1843" stroke="#191919" stroke-linecap="round" stroke-linejoin="round"/>
<path d="M31.7753 20.3986V24.3841C31.7753 24.5955 31.8592 24.7982 32.0087 24.9477C32.1582 25.0972 32.361 25.1812 32.5724 25.1812H34.1666" stroke="#191919" stroke-linecap="round" stroke-linejoin="round"/>
<path d="M29.5832 12.2314C28.8798 11.5281 27.9739 11.0626 26.9926 10.9003V14.0217C26.9926 14.2331 27.0766 14.4359 27.2261 14.5854C27.3756 14.7349 27.5783 14.8188 27.7897 14.8188H30.9143C30.7512 13.8387 30.2858 12.9341 29.5832 12.2314Z" stroke="#191919" stroke-linecap="round" stroke-linejoin="round"/>
</g>
<path d="M9.89923 14.6181L8.94437 15.9549H11.8089L11.236 19.3924L12.7638 17.2917L13.9097 15.7639L15.0555 14.0452H12.1909L12.7638 10.6077L11.0451 12.8993L9.89923 14.6181Z" fill="#FFEF5E"/>
<path d="M12.9548 14.0452H12.1909L12.7638 10.6077L11.0451 12.8993L9.89923 14.6181L8.94437 15.9549H11.0451L12.9548 14.0452Z" fill="#FFF9BF"/>
<path d="M10.3333 13.8462L12.764 10.6077L12.1911 14.0452H15.0556L13.25 16.5385" stroke="#191919" stroke-linecap="round" stroke-linejoin="round"/>
<path d="M13.25 16.5385L11.236 19.3924L11.8089 15.9549H8.94437L10.3333 13.8462" stroke="#191919" stroke-linecap="round" stroke-linejoin="round"/>
<path d="M9.89923 23.6181L8.94437 24.9549H11.8089L11.236 28.3924L12.7638 26.2917L13.9097 24.7639L15.0555 23.0452H12.1909L12.7638 19.6077L11.0451 21.8993L9.89923 23.6181Z" fill="#FFEF5E"/>
<path d="M12.9548 23.0452H12.1909L12.7638 19.6077L11.0451 21.8993L9.89923 23.6181L8.94437 24.9549H11.0451L12.9548 23.0452Z" fill="#FFF9BF"/>
<path d="M10.3333 22.8462L12.764 19.6077L12.1911 23.0452H15.0556L13.25 25.5385" stroke="#191919" stroke-linecap="round" stroke-linejoin="round"/>
<path d="M13.25 25.5385L11.236 28.3924L11.8089 24.9549H8.94437L10.3333 22.8462" stroke="#191919" stroke-linecap="round" stroke-linejoin="round"/>
<path d="M3.13325 27.3468C3.15325 27.4399 3.18991 27.5128 3.24324 27.5655C3.25657 27.5786 3.27991 27.5917 3.31324 27.6046C3.3399 27.611 3.3599 27.6174 3.37323 27.6239C3.39323 27.637 3.50989 27.649 3.72321 27.6598C3.93653 27.664 4.18984 27.6676 4.48316 27.6708C4.77647 27.674 5.08311 27.6738 5.40309 27.67C5.7164 27.6663 5.98972 27.6531 6.22303 27.6303C6.41635 27.608 6.60634 27.5558 6.79299 27.4736C6.97298 27.3848 7.08964 27.2434 7.14297 27.0494C7.1563 26.9026 7.1363 26.7662 7.08297 26.6401C7.02298 26.5075 6.92632 26.4087 6.79299 26.3436C6.63967 26.272 6.47968 26.2439 6.31303 26.2592C6.13971 26.2679 5.96972 26.2566 5.80306 26.2253C5.8164 26.1318 5.81973 26.0284 5.81306 25.9151C5.8064 25.7952 5.80306 25.6753 5.80306 25.5553C5.80306 25.4353 5.8064 25.3185 5.81306 25.2051C5.81973 25.0851 5.83639 24.9782 5.86306 24.8845C6.2097 24.7671 6.55634 24.733 6.90299 24.7823C7.24296 24.8316 7.54961 24.9446 7.82292 25.1214C8.09624 25.2982 8.32289 25.5322 8.50288 25.8234C8.6762 26.108 8.76619 26.4336 8.77286 26.8002C8.80619 27.0398 8.80619 27.2865 8.77286 27.5402C8.74619 27.7938 8.68286 28.0313 8.58287 28.2524C8.47621 28.4737 8.32955 28.6621 8.1429 28.8176C7.95625 28.9665 7.72293 29.0559 7.44295 29.0859C7.20297 29.1021 6.95298 29.115 6.693 29.1248C6.43302 29.1345 6.14304 29.1446 5.82306 29.155C5.49642 29.1589 5.12978 29.1632 4.72314 29.168C4.30983 29.1662 3.8332 29.1652 3.29324 29.1649C3.17991 29.1796 3.06659 29.1776 2.95326 29.1589C2.83327 29.1336 2.72328 29.1016 2.62328 29.0628C2.44996 29.0048 2.28997 28.9334 2.14332 28.8485C1.99666 28.7569 1.86667 28.6484 1.75335 28.5231C1.70002 28.4504 1.65669 28.3709 1.62335 28.2846C1.58336 28.1984 1.55003 28.1088 1.52336 28.0158C1.42337 27.7103 1.38337 27.4074 1.40337 27.1072C1.42337 26.807 1.49336 26.5261 1.61336 26.2647C1.72668 25.9967 1.88 25.7549 2.07332 25.5393C2.26664 25.3237 2.48996 25.151 2.74328 25.0214C2.98993 24.8918 3.25991 24.8119 3.55322 24.7818C3.84653 24.7517 4.14651 24.7881 4.45316 24.8912C4.50649 25.1372 4.52649 25.3803 4.51315 25.6205C4.49315 25.8541 4.45982 26.0978 4.41316 26.3517C4.2865 26.3732 4.14318 26.3882 3.98319 26.3967C3.8232 26.3986 3.67654 26.417 3.54322 26.4519C3.40323 26.4869 3.2899 26.5516 3.20324 26.6459C3.11658 26.7336 3.07659 26.8741 3.08325 27.0674C3.09658 27.1539 3.11325 27.247 3.13325 27.3468ZM2.13332 20.6658C2.30664 20.4704 2.50996 20.3313 2.74328 20.2486C2.84327 20.2007 2.9466 20.1662 3.05325 20.1449C3.15325 20.1171 3.25657 20.0958 3.36323 20.0812C3.52989 20.0659 3.69654 20.0573 3.8632 20.0553C4.02319 20.0468 4.18651 20.0449 4.35316 20.0496C4.70647 20.0654 5.04978 20.068 5.38309 20.0574C5.7164 20.0468 6.05638 20.0528 6.40302 20.0754L6.733 20.1015C6.96632 20.112 7.20297 20.1459 7.44295 20.2031C7.67627 20.2603 7.88958 20.3478 8.0829 20.4655C8.24289 20.577 8.37288 20.7254 8.47288 20.9109C8.5662 21.0898 8.63953 21.2823 8.69286 21.4883C8.74619 21.6744 8.77952 21.864 8.79286 22.0572C8.80619 22.2437 8.80619 22.4337 8.79286 22.6272C8.77952 22.7673 8.75952 22.9042 8.73286 23.0379C8.71286 23.1648 8.6762 23.2885 8.62287 23.4092C8.56954 23.5231 8.50288 23.6272 8.42288 23.7215C8.33622 23.8159 8.22623 23.8938 8.0929 23.9554C7.92625 24.0507 7.74959 24.1161 7.56294 24.1517C7.36962 24.1806 7.1763 24.1996 6.98298 24.2085C6.46302 24.2347 5.94305 24.2641 5.42309 24.2969C4.89646 24.3231 4.36983 24.3227 3.8432 24.2956C3.54322 24.2925 3.24324 24.2593 2.94326 24.1962C2.63662 24.1265 2.36664 23.9897 2.13332 23.7858C2.06666 23.7199 2.00666 23.6439 1.95333 23.5579C1.84667 23.3391 1.77001 23.1034 1.72335 22.8506C1.67002 22.5912 1.65002 22.3348 1.66335 22.0813C1.67668 21.8212 1.72335 21.5706 1.80334 21.3297C1.87667 21.0821 1.98666 20.8608 2.13332 20.6658ZM5.66307 21.2841L5.18311 21.2898L4.50315 21.3178C4.49649 21.3179 4.42983 21.3253 4.30317 21.3401C4.16984 21.3484 4.04652 21.3565 3.93319 21.3645C3.74654 21.3801 3.57655 21.4354 3.42323 21.5305C3.26991 21.619 3.15658 21.7403 3.08325 21.8945C3.02992 22.0285 3.01992 22.1653 3.05325 22.3049C3.08659 22.4445 3.14325 22.5672 3.22324 22.6729C3.40323 22.9041 3.63321 23.0581 3.91319 23.1348C4.16651 23.1851 4.43316 23.2153 4.71314 23.2253C4.99312 23.2287 5.2731 23.222 5.55308 23.2054C5.7864 23.1693 6.02638 23.1431 6.27303 23.1269C6.51301 23.1107 6.743 23.068 6.96298 22.9988C7.09631 22.9305 7.19963 22.8326 7.27296 22.7051C7.34629 22.5776 7.38962 22.4404 7.40295 22.2936C7.40962 22.1468 7.38962 22.0004 7.34296 21.8543C7.28963 21.7082 7.2063 21.5859 7.09297 21.4872C7.01298 21.4282 6.94965 21.3856 6.90299 21.3595C6.84966 21.3334 6.79299 21.3174 6.733 21.3115C6.673 21.3055 6.60301 21.3063 6.52301 21.3139C6.43635 21.315 6.32303 21.3096 6.18304 21.298C6.04971 21.2929 5.93305 21.2909 5.83306 21.2921C5.73307 21.2866 5.67641 21.2839 5.66307 21.2841ZM1.97333 16.3437C2.12665 16.1419 2.29997 15.9798 2.49329 15.8575C2.71994 15.7082 2.9566 15.5854 3.20324 15.4891C3.44323 15.3863 3.69654 15.3033 3.96319 15.2402C4.06985 15.2056 4.17651 15.1843 4.28317 15.1764C4.38316 15.1619 4.48649 15.1507 4.59315 15.1427C4.90646 15.1524 5.2231 15.162 5.54308 15.1715C5.85639 15.1745 6.16637 15.2042 6.47302 15.2606C6.47968 15.2605 6.48302 15.2638 6.48302 15.2704C6.48302 15.2704 6.48635 15.2704 6.49302 15.2703C6.88632 15.399 7.25963 15.5779 7.61294 15.8071C7.96625 16.0296 8.29956 16.2657 8.61287 16.5153C8.6262 16.9551 8.6362 17.3983 8.64287 17.8449C8.64287 18.2916 8.64287 18.7249 8.64287 19.1449C8.64287 19.1449 8.6462 19.1482 8.65286 19.1548C8.12623 19.2344 7.58294 19.2874 7.02298 19.3141C6.45635 19.3407 5.88306 19.3575 5.3031 19.3644C4.72314 19.3712 4.13985 19.3748 3.55322 19.375C2.95993 19.3687 2.3733 19.3756 1.79334 19.3958C1.78668 19.3892 1.78001 19.3859 1.77334 19.386C1.76668 19.3794 1.76001 19.3729 1.75335 19.3663C1.70668 19.1801 1.67668 18.9872 1.66335 18.7873C1.64335 18.5809 1.63669 18.3743 1.64335 18.1676C1.64335 17.9609 1.64669 17.7575 1.65335 17.5574C1.66002 17.3507 1.66002 17.1507 1.65335 16.9574C1.70668 16.7435 1.81334 16.5389 1.97333 16.3437ZM6.30303 16.8726C6.24303 16.8199 6.18304 16.774 6.12304 16.7347C5.94972 16.6234 5.75973 16.5456 5.55308 16.5014C5.34643 16.4505 5.11978 16.4532 4.87313 16.5094C4.77314 16.5306 4.66981 16.5552 4.56315 16.5831C4.44982 16.6111 4.34317 16.6524 4.24317 16.7069C4.14318 16.7547 4.05652 16.8157 3.98319 16.8899C3.9032 16.9642 3.8432 17.0583 3.8032 17.1721C3.78987 17.2856 3.7832 17.409 3.7832 17.5423C3.77654 17.6757 3.78654 17.8023 3.8132 17.9219V17.9419V17.9519L3.8532 17.9515C4.03319 17.936 4.22651 17.9271 4.43316 17.9246C4.63981 17.9222 4.85646 17.923 5.08311 17.927C5.3031 17.931 5.52975 17.9317 5.76307 17.9289C5.98972 17.9263 6.21637 17.9169 6.44302 17.9009C6.50968 17.8268 6.53968 17.7264 6.53301 17.5998C6.52635 17.4666 6.51635 17.34 6.50301 17.2202C6.50968 17.1868 6.50635 17.1568 6.49302 17.1303C6.47302 17.1039 6.45635 17.0741 6.44302 17.0409C6.40302 16.9747 6.35636 16.9186 6.30303 16.8726ZM7.29296 11.5967C7.31296 11.1698 7.31629 10.7297 7.30296 10.2765L7.32296 10.2763C7.53628 10.2604 7.75959 10.2545 7.99291 10.2584C8.21956 10.2624 8.43288 10.2899 8.63287 10.3408C8.6262 11.0209 8.6362 11.7141 8.66286 12.4205C8.68286 13.1202 8.6662 13.7938 8.61287 14.4411C8.03291 14.4479 7.45961 14.4614 6.89299 14.4814C6.31969 14.5015 5.74973 14.5182 5.18311 14.5316C4.61648 14.5449 4.04985 14.5516 3.48323 14.5516C2.9166 14.5516 2.34664 14.5384 1.77334 14.5118C1.76001 14.252 1.75001 13.9721 1.74335 13.6722C1.73001 13.3657 1.72001 13.0591 1.71335 12.7525C1.70668 12.4459 1.70002 12.1493 1.69335 11.8628C1.68668 11.5762 1.68335 11.3229 1.68335 11.1029C1.68335 10.8829 1.68668 10.7062 1.69335 10.5728C1.70002 10.4393 1.70668 10.3726 1.71335 10.3725C1.94667 10.3364 2.18332 10.327 2.4233 10.3441C2.66328 10.3546 2.89993 10.3585 3.13325 10.3558L3.14325 10.3556C3.18991 10.5684 3.21991 10.7847 3.23324 11.0046C3.23991 11.2178 3.24324 11.4345 3.24324 11.6545C3.23658 11.8745 3.23324 12.0946 3.23324 12.3146C3.23324 12.5346 3.24324 12.7545 3.26324 12.9742V13.0042L3.27324 13.0141C3.46656 13.0052 3.66655 13.0128 3.8732 13.037C4.07318 13.0547 4.26317 13.0391 4.44316 12.9903L4.45316 12.9802C4.46649 12.78 4.47316 12.5766 4.47316 12.3699C4.47316 12.1633 4.47649 11.9566 4.48316 11.7498L4.49315 11.7497C4.71981 11.7137 4.94646 11.701 5.17311 11.7117C5.39976 11.7223 5.63641 11.7229 5.88306 11.7133C5.90972 11.813 5.92639 11.9261 5.93305 12.0527C5.93305 12.1794 5.93305 12.3027 5.93305 12.4227C5.93305 12.536 5.93639 12.6393 5.94305 12.7326C5.94972 12.8258 5.96639 12.889 5.99305 12.922C6.18637 12.953 6.40302 12.9638 6.643 12.9543C6.88299 12.9382 7.08297 12.9225 7.24296 12.9072L7.25296 12.8971C7.25296 12.4571 7.26629 12.0236 7.29296 11.5967ZM8.23289 2.54915L8.32289 2.54809L8.37288 2.5575C8.44621 2.57663 8.50288 2.61263 8.54287 2.66549C8.58287 2.71835 8.61287 2.78133 8.63287 2.85443C8.65286 2.92086 8.66286 2.99408 8.66286 3.07408C8.66953 3.154 8.67286 3.23396 8.67286 3.31396V3.36396C8.67286 3.48396 8.66953 3.59066 8.66286 3.68408C8.6562 3.77749 8.63953 3.86435 8.61287 3.94467C8.5862 4.02498 8.54954 4.10541 8.50288 4.18596C8.44955 4.26659 8.37622 4.35746 8.28289 4.45856C8.41621 4.65699 8.51287 4.87918 8.57287 5.12514C8.6262 5.37118 8.65953 5.62412 8.67286 5.88396C8.67286 6.21729 8.60953 6.51137 8.48288 6.7662C8.34955 7.01444 8.17956 7.22311 7.97291 7.39222C7.75959 7.56141 7.52294 7.69087 7.26296 7.7806C6.99631 7.87042 6.72967 7.9169 6.46302 7.92004C6.28303 7.92217 6.10638 7.89759 5.93305 7.8463C5.75973 7.78835 5.59308 7.71365 5.43309 7.6222C5.26643 7.53083 5.10978 7.42602 4.96312 7.30775C4.81647 7.18948 4.68314 7.06772 4.56315 6.94247C4.45649 7.02373 4.3365 7.11181 4.20317 7.20672C4.06985 7.29496 3.92986 7.37995 3.7832 7.46168C3.63655 7.53674 3.48656 7.60184 3.33324 7.65699C3.17325 7.70554 3.01659 7.73073 2.86327 7.73254C2.64995 7.73505 2.4533 7.68404 2.27331 7.5795C2.08666 7.46837 1.92667 7.32359 1.79334 7.14517C1.65335 6.96015 1.54669 6.75474 1.47336 6.52894C1.39337 6.29655 1.35337 6.06036 1.35337 5.82036C1.35337 5.56703 1.3967 5.33318 1.48336 5.11882C1.56336 4.90455 1.67335 4.72325 1.81334 4.57493C1.95333 4.41994 2.11665 4.30135 2.30331 4.21915C2.48329 4.13035 2.67328 4.08478 2.87327 4.08242C3.11992 4.07951 3.34657 4.1335 3.55322 4.24439C3.75321 4.35536 3.94986 4.47304 4.14318 4.59743C4.20317 4.63672 4.26317 4.67601 4.32317 4.7153C4.3765 4.75467 4.43316 4.79067 4.49315 4.8233C4.56648 4.8691 4.60981 4.89192 4.62315 4.89176C4.64314 4.89153 4.67648 4.89447 4.72314 4.90058C4.76314 4.90011 4.82646 4.88936 4.91313 4.86834C4.99312 4.84739 5.09311 4.80621 5.2131 4.7448C5.3331 4.68338 5.47642 4.58836 5.64307 4.45972C5.58974 4.42702 5.52975 4.40439 5.46309 4.39185C5.38976 4.37271 5.31643 4.36358 5.2431 4.36444C5.11644 4.35261 5.00979 4.3072 4.92312 4.22822C4.8298 4.14932 4.78313 4.00321 4.78313 3.78987V3.07987C4.78313 2.96654 4.80647 2.87626 4.85313 2.80905C4.89979 2.74183 4.99979 2.70732 5.15311 2.70551C5.36643 2.70299 5.55641 2.73075 5.72307 2.78878C5.88306 2.84689 6.04971 2.91159 6.22303 2.98288L6.21303 2.98299C6.24637 2.99593 6.2797 3.00887 6.31303 3.02181C6.33969 3.03483 6.37636 3.04773 6.42302 3.06052C6.44302 3.07361 6.47302 3.08993 6.51301 3.10945C6.54634 3.12239 6.57968 3.13867 6.61301 3.15827C6.68634 3.19074 6.763 3.2265 6.84299 3.26556C6.92299 3.30461 6.97965 3.32394 7.01298 3.32355C7.05298 3.32308 7.10631 3.29578 7.17297 3.24166C7.23296 3.18095 7.30296 3.12013 7.38295 3.05918L7.37295 3.0593C7.49295 2.96455 7.62294 2.86635 7.76293 2.7647C7.90292 2.65638 8.05957 2.58453 8.23289 2.54915ZM2.54329 5.65631C2.50329 5.68345 2.48329 5.73369 2.48329 5.80702C2.48329 5.94035 2.51996 6.04659 2.59329 6.12572C2.65995 6.19827 2.75994 6.23376 2.89327 6.23218C2.95993 6.23139 3.03659 6.22049 3.12325 6.19947C3.20991 6.17844 3.29324 6.15413 3.37323 6.12652C3.45323 6.09224 3.51989 6.05812 3.57322 6.02416C3.62655 5.98353 3.64988 5.94658 3.64321 5.91333L3.65321 5.91321C3.63321 5.79345 3.52989 5.71133 3.34323 5.66687C3.14991 5.62249 2.93326 5.60171 2.69328 5.60454C2.63328 5.60525 2.58329 5.62251 2.54329 5.65631ZM7.26296 5.5906C7.2563 5.54401 7.24963 5.50409 7.24296 5.47084C7.22963 5.43099 7.20963 5.38123 7.18297 5.32154C7.14964 5.25527 7.12964 5.22217 7.12297 5.22225C7.09631 5.22257 7.04298 5.21653 6.96298 5.20414C6.87632 5.19183 6.77966 5.18297 6.673 5.17756C6.56634 5.17216 6.45635 5.18012 6.34303 5.20146C6.22303 5.21621 6.11971 5.2541 6.03305 5.31512C5.94639 5.37614 5.87972 5.4636 5.83306 5.57748C5.77973 5.69144 5.7664 5.8416 5.79306 6.02795C5.79973 6.08787 5.83639 6.14411 5.90306 6.19665C5.96305 6.24928 6.03638 6.29508 6.12304 6.33406C6.2097 6.36637 6.30303 6.3886 6.40302 6.40075C6.49635 6.41298 6.58301 6.41196 6.663 6.39768C6.72967 6.39023 6.79966 6.37607 6.87299 6.3552C6.94632 6.32767 7.01298 6.29022 7.07297 6.24284C7.13297 6.1888 7.18297 6.12155 7.22296 6.04107C7.2563 5.96068 7.27296 5.86048 7.27296 5.74048C7.27296 5.68715 7.26963 5.63719 7.26296 5.5906Z" fill="black"/>
<path d="M14.605 4.11985C14.7615 4.3865 14.852 4.70981 14.8765 5.08978L14.8766 5.09978C14.8771 5.14645 14.8777 5.19311 14.8782 5.23977C14.8787 5.27977 14.8759 5.31977 14.8697 5.35977C14.8334 5.67974 14.7302 5.97306 14.56 6.2397C14.3965 6.50635 14.1892 6.733 13.9381 6.91966C13.6869 7.10631 13.4086 7.24297 13.1029 7.32963C12.7972 7.40962 12.484 7.42296 12.1634 7.36963C12.1712 7.46295 12.1756 7.55628 12.1767 7.64961C12.1777 7.73627 12.1792 7.86626 12.1813 8.03958C12.1833 8.20623 12.1859 8.43289 12.1893 8.71953C12.1994 9.00618 12.2139 9.39282 12.233 9.87945L12.2331 9.88945C12.2265 9.88945 12.2198 9.89278 12.2132 9.89945C12.2132 9.89945 12.2099 9.89945 12.2032 9.89945C12.1102 9.92611 11.9905 9.94611 11.844 9.95945C11.704 9.96611 11.5541 9.97278 11.3942 9.97944C11.2409 9.97944 11.0875 9.97611 10.9341 9.96944C10.7807 9.96278 10.6472 9.95278 10.5337 9.93945C10.508 9.45281 10.4918 8.92618 10.4851 8.35956C10.4783 7.78626 10.4714 7.19964 10.4643 6.59968C10.4572 5.99972 10.4468 5.39643 10.4329 4.78981C10.4258 4.18318 10.4089 3.60322 10.3824 3.04993C10.6549 2.9766 10.9509 2.92327 11.2705 2.88994C11.5968 2.85661 11.9201 2.85327 12.2404 2.87994C12.5674 2.9066 12.8847 2.9666 13.1925 3.05993C13.5002 3.14659 13.7718 3.27991 14.0072 3.4599C14.2493 3.63322 14.4485 3.8532 14.605 4.11985ZM13.3239 4.8698C13.2763 4.78981 13.2088 4.72314 13.1215 4.66981C12.9533 4.53649 12.759 4.45316 12.5386 4.41983C12.3181 4.37983 12.1015 4.3865 11.8888 4.43983C11.8755 4.43983 11.8655 4.44316 11.8589 4.44983C11.867 4.56982 11.8685 4.69648 11.8634 4.8298C11.865 4.96313 11.8666 5.09645 11.8681 5.22977C11.8764 5.3631 11.8846 5.49309 11.8927 5.61975C11.9075 5.73974 11.9321 5.84973 11.9666 5.94972H11.9966C12.1032 5.94306 12.2165 5.93973 12.3365 5.93973C12.4564 5.93306 12.573 5.92306 12.6862 5.90973C12.806 5.8964 12.9191 5.87306 13.0253 5.83973C13.1382 5.79974 13.2341 5.73974 13.3132 5.65974C13.3657 5.58642 13.4014 5.50309 13.4202 5.40976C13.4458 5.31644 13.448 5.22311 13.4269 5.12978C13.4125 5.03645 13.3782 4.94979 13.3239 4.8698ZM18.9481 3.4699C19.1434 3.64322 19.2825 3.84654 19.3653 4.07985C19.4131 4.17985 19.4477 4.28317 19.4689 4.38983C19.4968 4.48983 19.518 4.59315 19.5326 4.69981C19.5479 4.86647 19.5565 5.03312 19.5585 5.19978C19.567 5.35977 19.569 5.52309 19.5643 5.68974C19.5484 6.04305 19.5458 6.38636 19.5564 6.71967C19.567 7.05298 19.561 7.39296 19.5385 7.7396L19.5123 8.06958C19.5018 8.30289 19.4679 8.53954 19.4107 8.77953C19.3535 9.01284 19.266 9.22616 19.1483 9.41948C19.0368 9.57947 18.8884 9.70946 18.7029 9.80946C18.524 9.90278 18.3315 9.97611 18.1255 10.0294C17.9394 10.0828 17.7498 10.1161 17.5567 10.1294C17.3702 10.1428 17.1802 10.1428 16.9867 10.1294C16.8465 10.1161 16.7096 10.0961 16.576 10.0694C16.4491 10.0494 16.3253 10.0128 16.2047 9.95945C16.0907 9.90612 15.9866 9.83945 15.8923 9.75946C15.7979 9.6728 15.72 9.56281 15.6584 9.42948C15.5631 9.26283 15.4977 9.08617 15.4621 8.89952C15.4332 8.7062 15.4142 8.51288 15.4053 8.31956C15.3792 7.7996 15.3497 7.27963 15.3169 6.75967C15.2907 6.23304 15.2911 5.70641 15.3182 5.17978C15.3214 4.8798 15.3545 4.57982 15.4176 4.27984C15.4873 3.9732 15.6241 3.70321 15.8281 3.4699C15.8939 3.40324 15.9699 3.34324 16.0559 3.28991C16.2747 3.18325 16.5104 3.10659 16.7632 3.05993C17.0226 3.0066 17.279 2.9866 17.5325 2.99993C17.7927 3.01326 18.0432 3.05993 18.2842 3.13992C18.5317 3.21325 18.753 3.32324 18.9481 3.4699ZM18.3297 6.99965L18.3241 6.51968L18.296 5.83973C18.2959 5.83307 18.2885 5.7664 18.2737 5.63975C18.2654 5.50642 18.2573 5.3831 18.2493 5.26977C18.2338 5.08312 18.1784 4.91313 18.0833 4.75981C17.9948 4.60648 17.8735 4.49316 17.7193 4.41983C17.5853 4.3665 17.4485 4.3565 17.3089 4.38983C17.1693 4.42316 17.0466 4.47983 16.9409 4.55982C16.7097 4.73981 16.5558 4.96979 16.4791 5.24977C16.4287 5.50309 16.3985 5.76974 16.3885 6.04972C16.3851 6.3297 16.3918 6.60968 16.4084 6.88966C16.4445 7.12298 16.4707 7.36296 16.4869 7.60961C16.5031 7.84959 16.5458 8.07958 16.6151 8.29956C16.6833 8.43289 16.7812 8.53621 16.9087 8.60954C17.0363 8.68287 17.1734 8.7262 17.3203 8.73953C17.467 8.7462 17.6134 8.7262 17.7595 8.67953C17.9056 8.6262 18.0279 8.54288 18.1266 8.42955C18.1857 8.34956 18.2282 8.28623 18.2544 8.23957C18.2804 8.18624 18.2964 8.12957 18.3023 8.06958C18.3083 8.00958 18.3075 7.93959 18.2999 7.85959C18.2988 7.77293 18.3042 7.65961 18.3159 7.51962C18.321 7.38629 18.3229 7.26963 18.3217 7.16964C18.3272 7.06965 18.3299 7.01298 18.3297 6.99965ZM23.5965 2.99993C23.8232 2.99993 24.0466 3.00993 24.2668 3.02993L24.277 3.03993C24.1906 4.19318 24.0908 5.3431 23.9777 6.48969C23.8712 7.63627 23.7782 8.78953 23.6985 9.94945C23.652 9.96278 23.5988 9.96944 23.5388 9.96944C23.4854 9.96944 23.4254 9.96944 23.3588 9.96944H22.9988H22.8788C22.8178 9.88945 22.7631 9.77612 22.7147 9.62947C22.6729 9.47615 22.6277 9.31616 22.5791 9.1495C22.5304 8.97618 22.4817 8.80953 22.4332 8.64954C22.3846 8.48955 22.3298 8.36289 22.2687 8.26956H22.2587C22.1994 8.32956 22.1473 8.43622 22.1025 8.58954C22.0642 8.7362 22.0261 8.89619 21.9881 9.06951C21.9501 9.23616 21.912 9.39948 21.8739 9.55947C21.8358 9.71946 21.7906 9.84279 21.7383 9.92945C21.6518 9.94278 21.5719 9.95611 21.4988 9.96944C21.4255 9.97611 21.3422 9.97944 21.2489 9.97944C21.1422 9.97944 21.0154 9.96944 20.8685 9.94945H20.8585C20.6851 8.80953 20.5149 7.66294 20.3479 6.50969C20.181 5.35643 20.0807 4.20318 20.0471 3.04993L20.047 3.03993C20.1468 3.02659 20.25 3.0166 20.3566 3.00993C20.4698 2.9966 20.583 2.98993 20.6964 2.98993C20.8297 2.98993 20.9631 2.99326 21.0965 2.99993C21.2299 3.0066 21.3566 3.01326 21.4767 3.01993C21.5069 3.31324 21.5241 3.64322 21.5284 4.00986C21.5327 4.3765 21.5371 4.74647 21.5415 5.11978C21.5459 5.49309 21.5602 5.85973 21.5845 6.21971C21.6087 6.57968 21.6592 6.90299 21.7359 7.18964C21.8191 6.88966 21.8923 6.59635 21.9556 6.3097C22.0254 6.01639 22.0953 5.71974 22.1651 5.41976C22.1716 5.40643 22.1748 5.39643 22.1747 5.38976C22.1746 5.3831 22.1779 5.37643 22.1845 5.36976C22.2114 5.38976 22.2492 5.48642 22.2979 5.65974C22.3532 5.8264 22.4054 6.01639 22.4546 6.22971C22.5105 6.44302 22.5629 6.65301 22.6121 6.85966C22.6678 7.06631 22.7163 7.21964 22.7575 7.31963C22.7808 7.03298 22.7969 6.70634 22.8059 6.3397C22.8148 5.96639 22.8204 5.58642 22.8225 5.19978C22.8312 4.81314 22.8368 4.4365 22.8391 4.06986C22.848 3.69655 22.8641 3.36324 22.8873 3.06993L22.8872 3.05993C23.0002 3.03326 23.1167 3.0166 23.2366 3.00993C23.3565 3.00326 23.4765 2.99993 23.5965 2.99993ZM27.8414 8.62954C28.2683 8.64954 28.7083 8.65287 29.1615 8.63954L29.1617 8.65954C29.1776 8.87285 29.1836 9.09617 29.1796 9.32949C29.1757 9.55614 29.1482 9.76946 29.0972 9.96944C28.4171 9.96278 27.7239 9.97278 27.0176 9.99944C26.3178 10.0194 25.6443 10.0028 24.997 9.94945C24.9901 9.36949 24.9767 8.79619 24.9567 8.22957C24.9366 7.65627 24.9198 7.08631 24.9065 6.51968C24.8931 5.95306 24.8864 5.38643 24.8864 4.8198C24.8864 4.25318 24.8997 3.68322 24.9262 3.10992C25.1861 3.09659 25.466 3.08659 25.7659 3.07992C26.0724 3.06659 26.3789 3.05659 26.6855 3.04993C26.9921 3.04326 27.2887 3.03659 27.5753 3.02993C27.8619 3.02326 28.1152 3.01993 28.3352 3.01993C28.5552 3.01993 28.7319 3.02326 28.8653 3.02993C28.9987 3.03659 29.0654 3.04326 29.0655 3.04993C29.1016 3.28324 29.1111 3.51989 29.0939 3.75988C29.0834 3.99986 29.0795 4.23651 29.0823 4.46983L29.0824 4.47983C28.8696 4.52649 28.6533 4.55649 28.4335 4.56982C28.2202 4.57649 28.0036 4.57982 27.7836 4.57982C27.5635 4.57315 27.3435 4.56982 27.1235 4.56982C26.9035 4.56982 26.6836 4.57982 26.4638 4.59982H26.4338L26.4239 4.60982C26.4329 4.80314 26.4252 5.00312 26.401 5.20978C26.3834 5.40976 26.399 5.59975 26.4477 5.77974L26.4579 5.78974C26.658 5.80307 26.8614 5.80973 27.0681 5.80973C27.2748 5.80973 27.4815 5.81307 27.6882 5.81973L27.6883 5.82973C27.7243 6.05638 27.737 6.28303 27.7264 6.50969C27.7157 6.73634 27.7152 6.97299 27.7247 7.21964C27.6251 7.2463 27.5119 7.26297 27.3853 7.26963C27.2587 7.26963 27.1353 7.26963 27.0153 7.26963C26.902 7.26963 26.7987 7.27297 26.7054 7.27963C26.6122 7.2863 26.5491 7.30296 26.516 7.32963C26.485 7.52295 26.4742 7.7396 26.4837 7.97958C26.4999 8.21957 26.5156 8.41955 26.5308 8.57954L26.5409 8.58954C26.9809 8.58954 27.4144 8.60287 27.8414 8.62954ZM34.1423 9.1795C34.292 9.43282 34.4184 9.69613 34.5217 9.96944H34.5317C34.2983 9.96944 34.0384 9.97944 33.752 9.99944C33.4655 10.0128 33.1721 10.0094 32.8719 9.98944H32.8619C32.7934 9.83612 32.7079 9.6528 32.6054 9.43948C32.5029 9.22616 32.3902 9.00285 32.2675 8.76953C32.1447 8.53621 32.012 8.30623 31.8693 8.07958C31.7267 7.85293 31.5843 7.65294 31.4423 7.47962L31.4219 7.44962C31.4037 7.60294 31.396 7.79293 31.3986 8.01958C31.4012 8.23957 31.4073 8.46955 31.4168 8.70953C31.4329 8.94285 31.4488 9.16617 31.4647 9.37949C31.4805 9.5928 31.4925 9.76279 31.5007 9.88945C31.3879 9.93611 31.2383 9.96611 31.0518 9.97944C30.8719 9.99278 30.692 9.99944 30.512 9.99944C30.3321 10.0061 30.1688 10.0061 30.022 9.99944C29.8819 9.99278 29.7953 9.99278 29.762 9.99944C29.7753 9.99944 29.7843 9.90945 29.7888 9.72946C29.7933 9.54281 29.7937 9.29949 29.7902 8.99951C29.7867 8.69953 29.7826 8.35622 29.778 7.96958C29.7734 7.57628 29.7653 7.17297 29.7538 6.75967C29.7488 6.3397 29.7373 5.92639 29.7191 5.51975C29.7076 5.10645 29.6965 4.72981 29.6858 4.38983C29.675 4.04319 29.6616 3.74988 29.6454 3.50989C29.6358 3.26324 29.6239 3.09659 29.6095 3.00993C29.9822 2.9566 30.3916 2.9066 30.8377 2.85994C31.2838 2.81328 31.7506 2.81661 32.2378 2.86994C32.6314 2.88994 32.9861 3.00326 33.3019 3.20992C33.6176 3.41657 33.864 3.67322 34.0409 3.97986C34.2179 4.28651 34.3119 4.62648 34.323 4.99979C34.3406 5.36643 34.2482 5.72307 34.0456 6.06972C33.9218 6.3097 33.7541 6.50969 33.5427 6.66967C33.3379 6.82966 33.0757 6.91966 32.7559 6.93966H32.7159H32.7059L32.706 6.94966C32.8489 7.1963 33.0052 7.44295 33.1747 7.6896C33.3442 7.92959 33.5104 8.1729 33.6734 8.41955C33.8363 8.6662 33.9926 8.91952 34.1423 9.1795ZM31.7743 4.25984C31.5477 4.26651 31.3183 4.31651 31.086 4.40983C31.0937 4.49649 31.0982 4.59649 31.0996 4.70981C31.1075 4.81647 31.1121 4.92646 31.1135 5.03979C31.1148 5.15311 31.1161 5.26311 31.1174 5.36976C31.1253 5.47642 31.1363 5.56642 31.1505 5.63975H31.1605C31.314 5.65308 31.4808 5.66308 31.6609 5.66974C31.841 5.67641 32.0109 5.66641 32.1705 5.63975C32.2969 5.61308 32.3928 5.54975 32.4583 5.44976C32.5304 5.3431 32.5724 5.22977 32.5843 5.10978C32.5961 4.98313 32.5813 4.8598 32.5399 4.73981C32.4984 4.61315 32.4306 4.51316 32.3364 4.43983C32.1881 4.30651 32.0008 4.24651 31.7743 4.25984Z" fill="black"/>
<defs>
<clipPath id="clip0_10_31">
<rect width="20" height="20" fill="white" transform="translate(15 10)"/>
</clipPath>
</defs>
</svg>
