<svg xmlns="http://www.w3.org/2000/svg" data-name="Layer 1" viewBox="0 0 1262.06 1024.68"><path fill="#684d9f" d="m1254.16 376.55-55.92-55.92c-10.54-10.54-27.64-10.54-38.18 0L633.04 847.65 333.16 547.77c-10.54-10.54-27.64-10.54-38.18 0l-55.92 55.92c-10.54 10.54-10.54 27.64 0 38.18l318.9 318.9s.03.06.06.09l55.92 55.92c5.28 5.28 12.19 7.91 19.11 7.9 6.91 0 13.83-2.63 19.1-7.9l55.92-55.92s.03-.06.06-.09l546.04-546.04c10.54-10.54 10.54-27.64 0-38.18z"/><path fill="#3d256b" d="m7.91 648.13 55.92 55.92c10.54 10.54 27.64 10.54 38.18 0l527.02-527.01 299.88 299.88c10.54 10.54 27.64 10.54 38.18 0l55.92-55.92c10.54-10.54 10.54-27.64 0-38.18L704.12 63.91s-.03-.06-.06-.09L648.14 7.9c-5.28-5.27-12.2-7.9-19.11-7.9s-13.83 2.63-19.1 7.9l-55.92 55.92s-.03.06-.06.09L7.91 609.95c-10.54 10.54-10.54 27.64 0 38.18z"/></svg>