<svg width="41" height="37" viewBox="0 0 41 37" fill="none" xmlns="http://www.w3.org/2000/svg">
<path d="M4.90688 30.3436C5.02661 30.5462 5.12776 30.7569 5.21034 30.9755H5.21834C5.03167 30.9755 4.82377 30.9835 4.59462 30.9995C4.36542 31.0102 4.13072 31.0075 3.89053 30.9915H3.88253C3.82775 30.8689 3.75935 30.7222 3.67734 30.5515C3.59532 30.3809 3.50521 30.2022 3.40701 30.0156C3.30881 29.8289 3.20263 29.6449 3.08849 29.4636C2.97435 29.2823 2.86046 29.1223 2.74683 28.9837L2.73054 28.9597C2.71599 29.0823 2.70979 29.2343 2.71193 29.4156C2.714 29.5916 2.71884 29.7756 2.72644 29.9676C2.73931 30.1542 2.75209 30.3329 2.76477 30.5035C2.77745 30.6742 2.78706 30.8102 2.79358 30.9115C2.70336 30.9488 2.58364 30.9728 2.43443 30.9835C2.29056 30.9942 2.14662 30.9995 2.00262 30.9995C1.85869 31.0048 1.72802 31.0048 1.61062 30.9995C1.49856 30.9942 1.42923 30.9942 1.40262 30.9995C1.41329 30.9995 1.42044 30.9275 1.42407 30.7835C1.42764 30.6342 1.42801 30.4396 1.42518 30.1996C1.42235 29.9596 1.41911 29.6849 1.41545 29.3756C1.41174 29.061 1.40527 28.7383 1.39603 28.4077C1.39206 28.0717 1.38283 27.7411 1.36832 27.4158C1.35908 27.0851 1.35019 26.7838 1.34165 26.5118C1.33304 26.2345 1.32227 25.9999 1.30934 25.8079C1.30168 25.6106 1.2921 25.4772 1.28062 25.4079C1.57878 25.3652 1.90631 25.3252 2.2632 25.2879C2.6201 25.2506 2.99346 25.2532 3.3833 25.2959C3.69815 25.3119 3.98189 25.4026 4.23451 25.5679C4.48713 25.7332 4.68422 25.9385 4.82578 26.1838C4.96734 26.4292 5.04255 26.7011 5.05141 26.9998C5.06554 27.2931 4.99157 27.5784 4.82951 27.8557C4.73045 28.0477 4.59634 28.2077 4.42718 28.3357C4.26336 28.4637 4.05354 28.5357 3.79773 28.5517H3.76573H3.75773L3.75782 28.5597C3.87215 28.757 3.99715 28.9543 4.13281 29.1516C4.26841 29.3436 4.40137 29.5383 4.5317 29.7356C4.66203 29.9329 4.78709 30.1356 4.90688 30.3436ZM3.01242 26.4078C2.83115 26.4132 2.64762 26.4532 2.46184 26.5278C2.46799 26.5972 2.4716 26.6771 2.47267 26.7678C2.47901 26.8531 2.48272 26.9411 2.48379 27.0318C2.48486 27.1224 2.4859 27.2104 2.4869 27.2958C2.49324 27.3811 2.50209 27.4531 2.51345 27.5118H2.52145C2.64425 27.5224 2.77767 27.5304 2.92174 27.5358C3.0658 27.5411 3.20171 27.5331 3.32945 27.5118C3.43053 27.4904 3.50727 27.4398 3.55966 27.3598C3.61732 27.2744 3.65092 27.1838 3.66045 27.0878C3.66992 26.9865 3.65809 26.8878 3.62495 26.7918C3.59176 26.6905 3.53748 26.6105 3.46212 26.5518C3.34353 26.4452 3.19363 26.3972 3.01242 26.4078ZM7.85831 29.9036C8.19983 29.9196 8.55187 29.9223 8.91441 29.9116L8.9146 29.9276C8.92728 30.0982 8.93205 30.2769 8.92892 30.4635C8.92573 30.6449 8.90374 30.8155 8.86297 30.9755C8.3189 30.9702 7.76433 30.9782 7.19925 30.9995C6.63944 31.0155 6.10061 31.0022 5.58278 30.9595C5.5773 30.4955 5.56655 30.0369 5.55053 29.5836C5.53445 29.125 5.52107 28.669 5.51039 28.2157C5.4997 27.7624 5.49435 27.3091 5.49434 26.8558C5.49432 26.4025 5.50494 25.9465 5.52619 25.4879C5.73406 25.4772 5.95797 25.4692 6.19791 25.4639C6.44311 25.4532 6.68835 25.4452 6.93362 25.4399C7.17889 25.4346 7.41616 25.4292 7.64543 25.4239C7.8747 25.4186 8.07734 25.4159 8.25334 25.4159C8.42934 25.4159 8.5707 25.4186 8.67743 25.4239C8.78416 25.4292 8.83756 25.4346 8.83762 25.4399C8.86649 25.6266 8.87406 25.8159 8.86033 26.0079C8.85193 26.1998 8.84883 26.3892 8.85103 26.5758L8.85112 26.5838C8.6809 26.6212 8.50785 26.6451 8.33197 26.6558C8.16137 26.6611 7.98807 26.6638 7.81207 26.6638C7.63601 26.6585 7.45997 26.6558 7.28397 26.6558C7.10797 26.6558 6.93207 26.6638 6.75626 26.6798H6.73226L6.72435 26.6878C6.73151 26.8425 6.7254 27.0025 6.70602 27.1678C6.69191 27.3278 6.70437 27.4798 6.7434 27.6237L6.75149 27.6317C6.91162 27.6424 7.07435 27.6477 7.23968 27.6477C7.40502 27.6477 7.57038 27.6504 7.73578 27.6557L7.73587 27.6637C7.76468 27.8451 7.77482 28.0264 7.76629 28.2077C7.75777 28.389 7.75734 28.5783 7.765 28.7757C7.68525 28.797 7.59474 28.8103 7.49347 28.8157C7.39214 28.8157 7.29347 28.8157 7.19747 28.8157C7.1068 28.8157 7.02417 28.8183 6.94956 28.8237C6.87496 28.829 6.82445 28.8423 6.79804 28.8637C6.7732 29.0183 6.76457 29.1916 6.77217 29.3836C6.78511 29.5756 6.79766 29.7356 6.80984 29.8636L6.81793 29.8716C7.16993 29.8716 7.51673 29.8823 7.85831 29.9036ZM11.898 28.8957C11.8981 28.9063 11.8902 28.9117 11.8742 28.9117C11.7091 28.9383 11.5361 28.9597 11.3549 28.9757C11.179 28.9863 11.0113 29.005 10.8516 29.0316H10.8436C10.8209 29.3676 10.8088 29.7036 10.8075 30.0396C10.806 30.3702 10.8045 30.6875 10.8027 30.9915C10.6962 31.0022 10.5683 31.0102 10.419 31.0155C10.2751 31.0208 10.1311 31.0235 9.98709 31.0235C9.84309 31.0235 9.71506 31.0208 9.603 31.0155C9.49627 31.0102 9.43218 31.0022 9.41072 30.9915L9.40262 30.9835C9.39884 30.6635 9.39532 30.3649 9.39205 30.0876C9.38871 29.8049 9.3855 29.5329 9.38241 29.2716C9.38466 29.0103 9.38425 28.749 9.38116 28.4877C9.37801 28.221 9.37471 27.9411 9.37125 27.6477C9.37312 27.3544 9.37207 27.0398 9.3681 26.7038C9.36407 26.3625 9.35961 25.9839 9.3547 25.5679L9.3546 25.5599C9.44508 25.5439 9.57556 25.5279 9.74603 25.5119C9.91651 25.4959 10.1083 25.4799 10.3215 25.4639C10.5399 25.4479 10.7692 25.4372 11.0091 25.4319C11.2543 25.4212 11.4943 25.4186 11.729 25.4239C11.9637 25.4239 12.1851 25.4346 12.3934 25.4559C12.6016 25.4772 12.7806 25.5066 12.9304 25.5439C12.9312 25.6132 12.9323 25.7012 12.9335 25.8079C12.9401 25.9145 12.9441 26.0265 12.9455 26.1439C12.9468 26.2558 12.9481 26.3652 12.9494 26.4718C12.9506 26.5732 12.9489 26.6585 12.9444 26.7278C12.8005 26.7385 12.638 26.7491 12.4568 26.7598C12.2809 26.7705 12.097 26.7811 11.9051 26.7918C11.7185 26.7971 11.5293 26.8051 11.3374 26.8158C11.1509 26.8265 10.975 26.8398 10.8099 26.8558C10.7529 26.9945 10.7304 27.1278 10.7426 27.2558C10.7548 27.3838 10.7854 27.4904 10.8344 27.5758C10.8398 27.5811 10.8452 27.5838 10.8505 27.5838C10.9253 27.5944 11.008 27.6024 11.0988 27.6077C11.1948 27.6077 11.2881 27.6077 11.3788 27.6077C11.4694 27.6077 11.5574 27.6051 11.6427 27.5997C11.7279 27.5944 11.7999 27.5891 11.8585 27.5838C11.8749 27.6211 11.8838 27.6931 11.885 27.7997C11.8916 27.9064 11.893 28.0264 11.8893 28.1597C11.8855 28.2877 11.8817 28.4184 11.8779 28.5517C11.8795 28.685 11.8862 28.7997 11.898 28.8957ZM16.6656 30.1276C16.6663 30.1809 16.6695 30.2289 16.6753 30.2716C16.6883 30.4635 16.6953 30.6102 16.6965 30.7115C16.6977 30.8075 16.6905 30.8795 16.6751 30.9275C16.6649 30.9702 16.6439 30.9942 16.6119 30.9995C16.5799 30.9995 16.5346 30.9995 16.4759 30.9995C16.4172 30.9942 16.3399 30.9942 16.2439 30.9995C16.1533 31.0048 15.9961 31.0102 15.7721 31.0155C15.5535 31.0208 15.2496 31.0235 14.8602 31.0235C14.4762 31.0235 13.9615 31.0182 13.316 31.0075L13.3143 30.8635C13.3256 30.4635 13.3347 30.1036 13.3416 29.7836C13.3484 29.4583 13.3502 29.157 13.3469 28.8797C13.3489 28.597 13.3484 28.325 13.3453 28.0637C13.3422 27.8024 13.3364 27.5358 13.3278 27.2638C13.3193 26.9918 13.3106 26.7038 13.3016 26.3998C13.2927 26.0905 13.2833 25.7492 13.2736 25.3759C13.3266 25.3546 13.4091 25.3386 13.521 25.3279C13.6328 25.3119 13.7527 25.3039 13.8807 25.3039C14.0087 25.3039 14.1341 25.3119 14.257 25.3279C14.3798 25.3439 14.4788 25.3679 14.5538 25.3999C14.5473 25.7465 14.5461 26.1039 14.5505 26.4718C14.5601 26.8345 14.5697 27.1998 14.5794 27.5678C14.5891 27.9357 14.5961 28.3037 14.6005 28.6717C14.6101 29.0343 14.6142 29.3863 14.6129 29.7276L14.613 29.7356C14.6502 29.7249 14.7195 29.7223 14.8209 29.7276C14.9276 29.7276 15.0503 29.7303 15.189 29.7356C15.3277 29.7409 15.4745 29.7489 15.6293 29.7596C15.7894 29.7649 15.9388 29.7703 16.0775 29.7756C16.2216 29.7809 16.3469 29.7863 16.4537 29.7916C16.5657 29.7916 16.643 29.7889 16.6856 29.7836C16.6863 29.8423 16.6843 29.9009 16.6797 29.9596C16.675 30.0129 16.6703 30.0689 16.6656 30.1276ZM19.3505 29.9036C19.692 29.9196 20.0441 29.9223 20.4066 29.9116L20.4068 29.9276C20.4195 30.0982 20.4242 30.2769 20.4211 30.4635C20.4179 30.6449 20.3959 30.8155 20.3552 30.9755C19.8111 30.9702 19.2565 30.9782 18.6914 30.9995C18.1316 31.0155 17.5928 31.0022 17.075 30.9595C17.0695 30.4955 17.0587 30.0369 17.0427 29.5836C17.0266 29.125 17.0133 28.669 17.0026 28.2157C16.9919 27.7624 16.9865 27.3091 16.9865 26.8558C16.9865 26.4025 16.9971 25.9465 17.0184 25.4879C17.2262 25.4772 17.4502 25.4692 17.6901 25.4639C17.9353 25.4532 18.1805 25.4452 18.4258 25.4399C18.6711 25.4346 18.9084 25.4292 19.1376 25.4239C19.3669 25.4186 19.5695 25.4159 19.7455 25.4159C19.9215 25.4159 20.0629 25.4186 20.1696 25.4239C20.2764 25.4292 20.3297 25.4346 20.3298 25.4399C20.3587 25.6266 20.3662 25.8159 20.3525 26.0079C20.3441 26.1998 20.341 26.3892 20.3432 26.5758L20.3433 26.5838C20.1731 26.6212 20 26.6451 19.8242 26.6558C19.6536 26.6611 19.4803 26.6638 19.3043 26.6638C19.1282 26.6585 18.9522 26.6558 18.7762 26.6558C18.6002 26.6558 18.4243 26.6638 18.2484 26.6798H18.2244L18.2165 26.6878C18.2237 26.8425 18.2176 27.0025 18.1982 27.1678C18.1841 27.3278 18.1966 27.4798 18.2356 27.6237L18.2437 27.6317C18.4038 27.6424 18.5665 27.6477 18.7319 27.6477C18.8972 27.6477 19.0626 27.6504 19.228 27.6557L19.2281 27.6637C19.2569 27.8451 19.267 28.0264 19.2585 28.2077C19.25 28.389 19.2495 28.5783 19.2572 28.7757C19.1774 28.797 19.0869 28.8103 18.9857 28.8157C18.8843 28.8157 18.7857 28.8157 18.6897 28.8157C18.599 28.8157 18.5164 28.8183 18.4418 28.8237C18.3671 28.829 18.3166 28.8423 18.2902 28.8637C18.2654 29.0183 18.2568 29.1916 18.2644 29.3836C18.2773 29.5756 18.2898 29.7356 18.302 29.8636L18.3101 29.8716C18.6621 29.8716 19.0089 29.8823 19.3505 29.9036ZM22.2348 26.5758C22.1603 26.5918 22.102 26.6212 22.0598 26.6638C22.0493 26.6745 22.0388 26.6931 22.0285 26.7198C22.0234 26.7411 22.0183 26.7571 22.013 26.7678C22.0026 26.7838 21.993 26.8771 21.9844 27.0478C21.981 27.2184 21.9781 27.4211 21.9755 27.6557C21.973 27.8904 21.9732 28.1357 21.9762 28.3917C21.9792 28.6423 21.9898 28.861 22.008 29.0476C22.0258 29.2023 22.0676 29.3543 22.1333 29.5036C22.2044 29.6476 22.3175 29.7409 22.4726 29.7836C22.5901 29.7943 22.6992 29.7783 22.8001 29.7356C22.9062 29.6876 22.9853 29.6103 23.0373 29.5036C23.0946 29.381 23.117 29.253 23.1048 29.1196C23.0978 28.981 23.1069 28.845 23.132 28.7117C23.2068 28.7223 23.2895 28.725 23.3801 28.7197C23.476 28.7143 23.572 28.7117 23.668 28.7117C23.764 28.7117 23.8574 28.7143 23.9481 28.7197C24.0441 28.725 24.1296 28.7383 24.2046 28.7597C24.2985 29.037 24.3258 29.3143 24.2864 29.5916C24.2469 29.8636 24.1565 30.1089 24.0151 30.3276C23.8736 30.5462 23.6865 30.7275 23.4535 30.8715C23.2258 31.0102 22.9653 31.0822 22.672 31.0875C22.4804 31.1142 22.283 31.1142 22.08 31.0875C21.8771 31.0662 21.6872 31.0155 21.5102 30.9355C21.3332 30.8502 21.1825 30.7329 21.0581 30.5835C20.939 30.4342 20.8675 30.2476 20.8435 30.0236C20.8305 29.8316 20.8202 29.6316 20.8124 29.4236C20.8046 29.2156 20.7965 28.9837 20.7882 28.7277C20.7851 28.4664 20.7816 28.173 20.7778 27.8477C20.7792 27.5171 20.7801 27.1358 20.7803 26.7038C20.7686 26.6132 20.7702 26.5225 20.7851 26.4318C20.8053 26.3358 20.8309 26.2478 20.862 26.1678C20.9083 26.0292 20.9655 25.9012 21.0334 25.7839C21.1067 25.6666 21.1935 25.5626 21.2937 25.4719C21.3519 25.4292 21.4155 25.3946 21.4845 25.3679C21.5535 25.3359 21.6252 25.3092 21.6996 25.2879C21.944 25.2079 22.1863 25.1759 22.4264 25.1919C22.6666 25.2079 22.8913 25.2639 23.1004 25.3599C23.3148 25.4506 23.5083 25.5732 23.6808 25.7279C23.8533 25.8825 23.9914 26.0612 24.0951 26.2638C24.1988 26.4612 24.2626 26.6771 24.2867 26.9118C24.3108 27.1464 24.2817 27.3864 24.1992 27.6317C24.0024 27.6744 23.8079 27.6904 23.6158 27.6797C23.429 27.6637 23.234 27.6371 23.0309 27.5997C23.0137 27.4984 23.0017 27.3838 22.9948 27.2558C22.9933 27.1278 22.9786 27.0105 22.9507 26.9038C22.9227 26.7918 22.8709 26.7011 22.7954 26.6318C22.7253 26.5625 22.6129 26.5305 22.4583 26.5358C22.3891 26.5465 22.3146 26.5598 22.2348 26.5758ZM26.1667 25.3599C26.7479 25.3546 27.3136 25.3812 27.8636 25.4399C27.8764 25.6159 27.8814 25.8185 27.8788 26.0479C27.8815 26.2772 27.8707 26.4878 27.8463 26.6798C27.7447 26.6585 27.6192 26.6505 27.47 26.6558C27.3207 26.6611 27.1208 26.6691 26.8703 26.6798H26.8543H26.8463C26.8463 26.6851 26.8437 26.6905 26.8384 26.6958C26.8384 26.6958 26.8385 26.6985 26.8385 26.7038C26.8335 26.7305 26.8287 26.7731 26.8241 26.8318C26.8247 26.8851 26.8257 26.9731 26.8272 27.0958C26.8286 27.2131 26.8304 27.3704 26.8327 27.5678C26.8403 27.7597 26.8486 28.0104 26.8576 28.3197C26.8665 28.6237 26.8762 28.9917 26.8866 29.4236C26.897 29.8503 26.911 30.3542 26.9285 30.9355L26.9286 30.9435L26.9287 30.9515C26.8329 30.9675 26.7263 30.9782 26.6091 30.9835C26.4971 30.9835 26.3824 30.9835 26.2651 30.9835C26.1531 30.9835 26.0411 30.9835 25.9291 30.9835C25.8171 30.9835 25.7132 30.9915 25.6173 31.0075C25.6118 30.9862 25.6106 30.8902 25.6139 30.7195C25.6173 30.5489 25.6169 30.2956 25.613 29.9596C25.6143 29.6183 25.6065 29.1836 25.5896 28.6557C25.578 28.1277 25.5518 27.4904 25.511 26.7438L25.5029 26.7358C25.4385 26.7038 25.3583 26.6851 25.2623 26.6798C25.1661 26.6691 25.0701 26.6638 24.9741 26.6638C24.878 26.6585 24.79 26.6558 24.71 26.6558C24.63 26.6558 24.5739 26.6505 24.5418 26.6398C24.5309 26.6185 24.5196 26.5652 24.5079 26.4798C24.5016 26.3945 24.495 26.2932 24.4883 26.1758C24.4869 26.0532 24.4853 25.9225 24.4837 25.7839C24.482 25.6452 24.4858 25.5119 24.495 25.3839C24.4949 25.3786 24.4922 25.3759 24.4869 25.3759C24.4869 25.3759 24.4868 25.3732 24.4868 25.3679C25.0307 25.3626 25.5907 25.3599 26.1667 25.3599ZM28.9857 25.3759C29.1138 25.3812 29.2978 25.3812 29.5377 25.3759H29.7297L29.7301 25.4079C29.7355 25.8665 29.733 26.3278 29.7225 26.7918C29.7173 27.2558 29.7121 27.7224 29.707 28.1917C29.7071 28.6557 29.7126 29.1196 29.7234 29.5836C29.7342 30.0476 29.7556 30.5062 29.7877 30.9595C29.7455 31.0022 29.6551 31.0262 29.5165 31.0315C29.3833 31.0422 29.2367 31.0448 29.0766 31.0395C28.9219 31.0342 28.7724 31.0262 28.6283 31.0155C28.4842 31.0102 28.3856 31.0155 28.3325 31.0315C28.3642 30.5515 28.3745 30.0689 28.3634 29.5836C28.3523 29.0983 28.336 28.6183 28.3144 28.1437C28.2981 27.6637 28.2845 27.1918 28.2737 26.7278C28.2682 26.2585 28.2867 25.7999 28.3295 25.3519L28.3293 25.3359C28.3559 25.3306 28.4066 25.3332 28.4814 25.3439C28.5614 25.3492 28.6201 25.3519 28.6575 25.3519C28.7535 25.3572 28.8629 25.3652 28.9857 25.3759ZM33.2046 25.7759C33.3609 25.9145 33.4721 26.0772 33.5383 26.2638C33.5766 26.3438 33.6043 26.4265 33.6213 26.5118C33.6436 26.5918 33.6605 26.6745 33.6722 26.7598C33.6844 26.8931 33.6913 27.0265 33.6929 27.1598C33.6998 27.2878 33.7013 27.4184 33.6976 27.5518C33.6849 27.8344 33.6828 28.109 33.6913 28.3757C33.6998 28.6423 33.695 28.9143 33.6769 29.1916L33.656 29.4556C33.6476 29.6423 33.6205 29.8316 33.5747 30.0236C33.5289 30.2102 33.4589 30.3809 33.3648 30.5355C33.2756 30.6635 33.1568 30.7675 33.0085 30.8475C32.8653 30.9222 32.7114 30.9808 32.5465 31.0235C32.3977 31.0662 32.246 31.0928 32.0915 31.1035C31.9423 31.1142 31.7903 31.1142 31.6355 31.1035C31.5233 31.0928 31.4138 31.0768 31.3069 31.0555C31.2054 31.0395 31.1064 31.0102 31.0099 30.9675C30.9187 30.9249 30.8354 30.8715 30.76 30.8075C30.6845 30.7382 30.6221 30.6502 30.5729 30.5435C30.4966 30.4102 30.4443 30.2689 30.4159 30.1196C30.3927 29.9649 30.3775 29.8103 30.3704 29.6556C30.3495 29.2396 30.3259 28.8237 30.2997 28.4077C30.2787 27.9864 30.279 27.5651 30.3007 27.1438C30.3032 26.9038 30.3297 26.6638 30.3802 26.4238C30.436 26.1785 30.5455 25.9625 30.7086 25.7759C30.7613 25.7225 30.8221 25.6745 30.8909 25.6319C31.0659 25.5466 31.2545 25.4852 31.4567 25.4479C31.6642 25.4052 31.8694 25.3892 32.0721 25.3999C32.2803 25.4106 32.4807 25.4479 32.6735 25.5119C32.8715 25.5706 33.0485 25.6586 33.2046 25.7759ZM32.7099 28.5997L32.7054 28.2157L32.683 27.6717C32.6829 27.6664 32.6769 27.6131 32.6651 27.5118C32.6585 27.4051 32.652 27.3064 32.6456 27.2158C32.6332 27.0665 32.5889 26.9305 32.5128 26.8078C32.442 26.6851 32.3449 26.5945 32.2216 26.5358C32.1144 26.4932 32.005 26.4852 31.8933 26.5118C31.7816 26.5385 31.6835 26.5838 31.5989 26.6478C31.4139 26.7918 31.2908 26.9758 31.2294 27.1998C31.1891 27.4024 31.165 27.6157 31.1569 27.8397C31.1543 28.0637 31.1596 28.2877 31.1729 28.5117C31.2018 28.6983 31.2227 28.8903 31.2357 29.0876C31.2486 29.2796 31.2828 29.4636 31.3382 29.6396C31.3928 29.7463 31.4711 29.8289 31.5731 29.8876C31.6751 29.9463 31.7849 29.9809 31.9024 29.9916C32.0197 29.9969 32.1369 29.9809 32.2538 29.9436C32.3706 29.9009 32.4685 29.8343 32.5474 29.7436C32.5947 29.6796 32.6287 29.6289 32.6496 29.5916C32.6705 29.5489 32.6833 29.5036 32.688 29.4556C32.6928 29.4076 32.6921 29.3516 32.686 29.2876C32.6852 29.2183 32.6895 29.1276 32.6988 29.0157C32.7029 28.909 32.7045 28.8157 32.7035 28.7357C32.7079 28.6557 32.71 28.6103 32.7099 28.5997ZM37.5497 31.0235C37.5125 31.0342 37.4486 31.0395 37.3579 31.0395C37.2512 31.0395 37.1285 31.0315 36.9896 31.0155C36.8508 31.0048 36.7281 30.9995 36.6214 30.9995C36.4408 30.6049 36.2603 30.2236 36.0799 29.8556C35.9049 29.4823 35.754 29.125 35.6273 28.7837L35.5444 28.5437C35.5224 28.485 35.5005 28.4317 35.4786 28.3837C35.4619 28.3304 35.4483 28.3037 35.4376 28.3037C35.4323 28.3037 35.425 28.3677 35.4159 28.4957C35.4121 28.6237 35.4086 28.7863 35.4056 28.9837C35.4026 29.181 35.3999 29.3996 35.3974 29.6396C35.4002 29.8796 35.403 30.1116 35.4056 30.3356C35.407 30.4582 35.4085 30.5782 35.4098 30.6955C35.4112 30.8075 35.415 30.9089 35.4214 30.9995C35.363 31.0155 35.3044 31.0262 35.2458 31.0315C35.1872 31.0368 35.1286 31.0395 35.0699 31.0395C34.9419 31.0395 34.8111 31.0315 34.6776 31.0155C34.5494 30.9995 34.424 30.9915 34.3013 30.9915L34.2947 30.4316C34.2888 29.9249 34.2777 29.4423 34.2616 28.9837C34.2509 28.525 34.2426 28.0451 34.2366 27.5438C34.2323 27.1758 34.2334 26.8131 34.2398 26.4558C34.2462 26.0932 34.2607 25.7412 34.2833 25.3999C34.3365 25.3892 34.3925 25.3812 34.4511 25.3759C34.515 25.3706 34.579 25.3679 34.643 25.3679C34.675 25.3679 34.7283 25.3706 34.8031 25.3759C34.8777 25.3759 34.9525 25.3812 35.0272 25.3919C35.102 25.3972 35.1661 25.4052 35.2195 25.4159C35.2783 25.4266 35.3078 25.4372 35.3079 25.4479C35.3464 25.5439 35.382 25.6239 35.4147 25.6879C35.4475 25.7519 35.4775 25.8132 35.5049 25.8719C35.5376 25.9305 35.5704 25.9972 35.6033 26.0719C35.6414 26.1412 35.6852 26.2318 35.7345 26.3438C35.7455 26.3705 35.7701 26.4212 35.8083 26.4958C35.8465 26.5705 35.8902 26.6585 35.9394 26.7598C35.9885 26.8558 36.0404 26.9598 36.0951 27.0718C36.1497 27.1784 36.1988 27.2771 36.2426 27.3678C36.2916 27.4531 36.3325 27.5278 36.3652 27.5917C36.3979 27.6504 36.4169 27.6797 36.4222 27.6797C36.4381 27.6691 36.4508 27.6157 36.4604 27.5198C36.4699 27.4238 36.4741 27.3304 36.4731 27.2398C36.4705 27.0265 36.4629 26.8291 36.4501 26.6478C36.4425 26.4612 36.4376 26.2718 36.4354 26.0799C36.434 25.9679 36.4327 25.8559 36.4314 25.7439C36.4353 25.6266 36.4392 25.5012 36.443 25.3679C36.6239 25.3359 36.8157 25.3199 37.0184 25.3199C37.2157 25.3199 37.3919 25.3359 37.547 25.3679L37.5774 27.9437C37.5853 28.1677 37.5907 28.3944 37.5934 28.6237C37.5961 28.853 37.5988 29.0823 37.6015 29.3116C37.6033 29.4663 37.6024 29.6156 37.5988 29.7596C37.6005 29.9036 37.6022 30.0502 37.604 30.1996C37.6053 30.3062 37.6065 30.4129 37.6078 30.5195C37.6144 30.6262 37.6183 30.7329 37.6195 30.8395L37.6214 30.9995C37.6108 31.0048 37.5869 31.0128 37.5497 31.0235Z" fill="black"/>
<path d="M4.57726 17.1229C4.7531 17.2789 4.87826 17.4619 4.95274 17.6719C4.9958 17.7619 5.0269 17.8549 5.04603 17.9509C5.07109 18.0409 5.09019 18.1339 5.10332 18.2298C5.11709 18.3798 5.12486 18.5298 5.12663 18.6798C5.13433 18.8238 5.13607 18.9708 5.13184 19.1208C5.11759 19.4388 5.11524 19.7477 5.12478 20.0477C5.13432 20.3477 5.12893 20.6537 5.10862 20.9657L5.08512 21.2626C5.0756 21.4726 5.04511 21.6856 4.99366 21.9016C4.94214 22.1116 4.86341 22.3036 4.75746 22.4775C4.65716 22.6215 4.52354 22.7385 4.35661 22.8285C4.1956 22.9125 4.02238 22.9785 3.83694 23.0265C3.66951 23.0745 3.49886 23.1045 3.325 23.1165C3.15715 23.1285 2.98615 23.1285 2.812 23.1165C2.68586 23.1045 2.56265 23.0865 2.44237 23.0625C2.32815 23.0445 2.21676 23.0115 2.1082 22.9635C2.00563 22.9155 1.91192 22.8555 1.82707 22.7835C1.74215 22.7055 1.67198 22.6065 1.61657 22.4865C1.5308 22.3366 1.47192 22.1776 1.43994 22.0096C1.41388 21.8356 1.39683 21.6616 1.38878 21.4876C1.36525 21.0197 1.33873 20.5517 1.3092 20.0837C1.28561 19.6097 1.28602 19.1358 1.31042 18.6618C1.31323 18.3918 1.34305 18.1219 1.39986 17.8519C1.4626 17.5759 1.58573 17.3329 1.76926 17.1229C1.82855 17.0629 1.89691 17.0089 1.97434 16.9609C2.17121 16.8649 2.3834 16.7959 2.6109 16.7539C2.84433 16.706 3.07512 16.688 3.30326 16.7C3.5374 16.712 3.7629 16.7539 3.97975 16.8259C4.20253 16.8919 4.4017 16.9909 4.57726 17.1229ZM4.02075 20.2997L4.01566 19.8677L3.99043 19.2558C3.99036 19.2498 3.98365 19.1898 3.97031 19.0758C3.96289 18.9558 3.95558 18.8448 3.94838 18.7428C3.93439 18.5748 3.88459 18.4218 3.79896 18.2838C3.71933 18.1459 3.61013 18.0439 3.47135 17.9779C3.35078 17.9299 3.22767 17.9209 3.10203 17.9509C2.97638 17.9809 2.86598 18.0319 2.77083 18.1039C2.56275 18.2658 2.42419 18.4728 2.35516 18.7248C2.30986 18.9528 2.28269 19.1928 2.27366 19.4448C2.27064 19.6967 2.27661 19.9487 2.29159 20.2007C2.32406 20.4107 2.34761 20.6267 2.36223 20.8487C2.37678 21.0646 2.41523 21.2716 2.47756 21.4696C2.53898 21.5896 2.62708 21.6826 2.74186 21.7486C2.85664 21.8146 2.9801 21.8536 3.11224 21.8656C3.24431 21.8716 3.3761 21.8536 3.5076 21.8116C3.63903 21.7636 3.74915 21.6886 3.83795 21.5866C3.8911 21.5146 3.92942 21.4576 3.95293 21.4156C3.97636 21.3676 3.99076 21.3166 3.99612 21.2626C4.00148 21.2086 4.00074 21.1456 3.99389 21.0736C3.99297 20.9957 3.99777 20.8937 4.00828 20.7677C4.01286 20.6477 4.01462 20.5427 4.01356 20.4527C4.0185 20.3627 4.0209 20.3117 4.02075 20.2997ZM9.30319 16.8979C9.41733 16.9099 9.51065 16.9369 9.58314 16.9789C9.62821 17.7469 9.64938 18.5238 9.64666 19.3098C9.64386 20.0897 9.60503 20.8667 9.53017 21.6406C9.48684 22.0366 9.34081 22.3726 9.09207 22.6485C8.84332 22.9245 8.5032 23.0835 8.0717 23.1255C7.81998 23.1495 7.55884 23.1375 7.28827 23.0895C7.01778 23.0475 6.77086 22.9695 6.54751 22.8555C6.33009 22.7355 6.14525 22.5795 5.99299 22.3876C5.84665 22.1896 5.76585 21.9526 5.75059 21.6766C5.74125 20.8847 5.74083 20.0867 5.74934 19.2828C5.75785 18.4788 5.75143 17.6809 5.73008 16.8889L5.72097 16.8799H5.72997C5.81997 16.8799 5.91894 16.8769 6.02687 16.8709C6.1408 16.8649 6.25476 16.8619 6.36876 16.8619C6.48276 16.8619 6.59383 16.8679 6.70197 16.8799C6.81004 16.8859 6.90922 16.9009 6.9995 16.9249L6.99961 16.9339C6.95075 18.3858 6.99514 19.8587 7.13277 21.3526C7.17647 21.4966 7.25271 21.6016 7.36149 21.6676C7.47627 21.7336 7.59362 21.7636 7.71355 21.7576C7.83348 21.7516 7.94398 21.7096 8.04506 21.6316C8.14614 21.5536 8.21087 21.4456 8.23924 21.3076C8.26074 20.5877 8.2671 19.8557 8.25832 19.1118C8.25554 18.3678 8.25904 17.6479 8.26882 16.9519C8.34675 16.9459 8.44565 16.9369 8.5655 16.9249C8.69129 16.9069 8.81715 16.8949 8.94308 16.8889C9.06901 16.8829 9.18904 16.8859 9.30319 16.8979ZM14.2794 22.2616C14.4141 22.4895 14.5279 22.7265 14.6208 22.9725H14.6298C14.4198 22.9725 14.1859 22.9815 13.9282 22.9995C13.6703 23.0115 13.4063 23.0085 13.136 22.9905H13.127C13.0654 22.8525 12.9885 22.6875 12.8962 22.4955C12.8039 22.3036 12.7026 22.1026 12.5921 21.8926C12.4816 21.6826 12.3622 21.4756 12.2338 21.2716C12.1054 21.0676 11.9772 20.8877 11.8494 20.7317L11.8311 20.7047C11.8147 20.8427 11.8077 21.0137 11.8101 21.2176C11.8125 21.4156 11.8179 21.6226 11.8265 21.8386C11.8409 22.0486 11.8553 22.2496 11.8696 22.4416C11.8838 22.6335 11.8946 22.7865 11.902 22.9005C11.8005 22.9425 11.6658 22.9695 11.4979 22.9815C11.3361 22.9935 11.1742 22.9995 11.0122 22.9995C10.8502 23.0055 10.7032 23.0055 10.5712 22.9995C10.4451 22.9935 10.3671 22.9935 10.3372 22.9995C10.3492 22.9995 10.3572 22.9185 10.3613 22.7565C10.3653 22.5885 10.3657 22.3696 10.3625 22.0996C10.3593 21.8296 10.3557 21.5206 10.3516 21.1726C10.3474 20.8187 10.3401 20.4557 10.3297 20.0837C10.3253 19.7057 10.3149 19.3338 10.2986 18.9678C10.2882 18.5958 10.2782 18.2568 10.2686 17.9509C10.2589 17.6389 10.2468 17.3749 10.2322 17.1589C10.2236 16.9369 10.2128 16.7869 10.1999 16.709C10.5353 16.661 10.9038 16.616 11.3053 16.574C11.7068 16.532 12.1268 16.535 12.5654 16.583C12.9196 16.601 13.2388 16.703 13.523 16.8889C13.8072 17.0749 14.0289 17.3059 14.1882 17.5819C14.3475 17.8579 14.4321 18.1638 14.442 18.4998C14.4579 18.8298 14.3747 19.1508 14.1924 19.4628C14.081 19.6787 13.9301 19.8587 13.7398 20.0027C13.5555 20.1467 13.3194 20.2277 13.0316 20.2457H12.9956H12.9866L12.9868 20.2547C13.1154 20.4767 13.256 20.6987 13.4086 20.9207C13.5612 21.1366 13.7108 21.3556 13.8574 21.5776C14.004 21.7996 14.1447 22.0276 14.2794 22.2616ZM12.1482 17.8339C11.9442 17.8399 11.7378 17.8849 11.5288 17.9689C11.5357 18.0469 11.5398 18.1369 11.541 18.2388C11.5481 18.3348 11.5523 18.4338 11.5535 18.5358C11.5547 18.6378 11.5558 18.7368 11.557 18.8328C11.5641 18.9288 11.5741 19.0098 11.5868 19.0758H11.5958C11.734 19.0878 11.8841 19.0968 12.0462 19.1028C12.2082 19.1088 12.3611 19.0998 12.5048 19.0758C12.6186 19.0518 12.7049 18.9948 12.7638 18.9048C12.8287 18.8088 12.8665 18.7068 12.8772 18.5988C12.8879 18.4848 12.8746 18.3738 12.8373 18.2658C12.7999 18.1518 12.7389 18.0619 12.6541 17.9959C12.5207 17.8759 12.352 17.8219 12.1482 17.8339Z" fill="black"/>
<g clip-path="url(#clip0_65_52)">
<path d="M25.0603 22.4564C25.4616 20.3215 25.3952 19.114 26.5868 18.6105L30.7524 16.853V14.9851C30.7524 14.9851 29.8558 14.6592 29.8558 12.6503C28.9252 12.6503 28.9252 10.7825 29.8558 10.7825C29.8558 10.5135 28.2962 8.51403 30.2562 8.91467C30.722 7.04685 35.3136 7.04685 35.7794 8.91467C35.8405 9.23767 35.835 9.56943 35.7633 9.89031C35.6916 10.2111 35.5551 10.5146 35.362 10.7825C36.2642 10.7825 36.0175 12.6503 35.3687 12.6503C35.3687 14.6592 34.5471 14.9851 34.5471 14.9851V16.853L37.6464 18.1306C37.9915 18.2727 38.2862 18.5121 38.4935 18.8187C38.7008 19.1253 38.8114 19.4853 38.8114 19.8535V22.4564H25.0603Z" fill="#E3E3E3"/>
<path d="M16.9918 22.4564C17.3931 20.3215 17.3267 19.114 18.5182 18.6105L22.6838 16.853V14.9851C22.6838 14.9851 21.7873 14.6592 21.7873 12.6503C20.8567 12.6503 20.8567 10.7825 21.7873 10.7825C21.7873 10.5135 20.2277 8.51403 22.1877 8.91467C22.6535 7.04685 27.245 7.04685 27.7109 8.91467C27.7719 9.23767 27.7664 9.56943 27.6947 9.89031C27.623 10.2111 27.4865 10.5146 27.2934 10.7825C28.1957 10.7825 27.949 12.6503 27.3001 12.6503C27.3001 14.6592 26.4786 14.9851 26.4786 14.9851V16.853L30.6441 18.6105C31.8329 19.1121 31.7674 20.3093 32.1706 22.4564H16.9918Z" stroke="#191919" stroke-linecap="round" stroke-linejoin="round"/>
<path d="M35.3631 12.6503C35.3631 14.6583 34.5415 14.9851 34.5415 14.9851V16.853L37.6835 18.2277C38.0191 18.3743 38.3041 18.6138 38.5041 18.9168C38.7042 19.2198 38.8106 19.5734 38.8106 19.9349V22.4564H35.4902" stroke="#191919" stroke-linecap="round" stroke-linejoin="round"/>
</g>
<defs>
<clipPath id="clip0_65_52">
<rect width="23.8032" height="23.4328" fill="white" transform="translate(16)"/>
</clipPath>
</defs>
</svg>
