<svg width="40" height="40" viewBox="0 0 40 40" fill="none" xmlns="http://www.w3.org/2000/svg">
<path d="M4.6911 26.2958C4.81629 26.5092 4.88867 26.7678 4.90826 27.0718L4.90835 27.0798C4.9088 27.1171 4.90924 27.1544 4.90968 27.1918C4.91005 27.2238 4.90777 27.2558 4.90281 27.2878C4.87383 27.5438 4.79127 27.7784 4.65512 27.9917C4.5243 28.205 4.35844 28.3864 4.15754 28.5357C3.95664 28.685 3.73393 28.7943 3.48941 28.8637C3.24483 28.9277 2.99429 28.9383 2.73779 28.8957C2.744 28.9703 2.74755 29.045 2.74843 29.1196C2.74925 29.189 2.75048 29.293 2.75212 29.4316C2.75369 29.5649 2.75583 29.7463 2.75854 29.9756C2.76658 30.2049 2.77823 30.5142 2.79349 30.9035L2.79358 30.9115C2.78825 30.9115 2.78295 30.9142 2.77768 30.9195C2.77768 30.9195 2.77501 30.9195 2.76968 30.9195C2.69526 30.9408 2.59945 30.9568 2.48225 30.9675C2.37031 30.9728 2.25037 30.9782 2.12243 30.9835C1.99977 30.9835 1.87707 30.9808 1.75434 30.9755C1.63161 30.9702 1.52485 30.9622 1.43406 30.9515C1.41346 30.5622 1.40049 30.1409 1.39514 29.6876C1.38972 29.229 1.38418 28.7597 1.37852 28.2797C1.37285 27.7997 1.36449 27.3171 1.35343 26.8318C1.3477 26.3465 1.33422 25.8825 1.313 25.4399C1.53097 25.3812 1.7678 25.3386 2.02349 25.3119C2.2845 25.2852 2.54314 25.2826 2.79939 25.3039C3.06098 25.3252 3.31488 25.3732 3.56109 25.4479C3.80724 25.5172 4.0245 25.6239 4.21287 25.7679C4.40651 25.9065 4.56592 26.0825 4.6911 26.2958ZM3.66618 26.8958C3.62809 26.8318 3.57413 26.7785 3.50429 26.7358C3.3697 26.6291 3.21425 26.5625 3.03793 26.5358C2.86156 26.5038 2.68829 26.5092 2.51812 26.5518C2.50746 26.5518 2.49949 26.5545 2.49422 26.5598C2.50068 26.6558 2.50188 26.7571 2.4978 26.8638C2.49906 26.9705 2.50032 27.0771 2.50158 27.1838C2.50817 27.2904 2.51474 27.3944 2.52126 27.4958C2.53306 27.5917 2.55277 27.6797 2.58038 27.7597H2.60438C2.68965 27.7544 2.78029 27.7517 2.87629 27.7517C2.97222 27.7464 3.06546 27.7384 3.156 27.7277C3.25188 27.7171 3.34232 27.6984 3.42734 27.6717C3.51763 27.6397 3.5944 27.5917 3.65764 27.5278C3.69962 27.4691 3.72816 27.4024 3.74328 27.3278C3.76373 27.2531 3.76552 27.1784 3.74864 27.1038C3.73709 27.0291 3.7096 26.9598 3.66618 26.8958ZM8.88344 30.3436C9.00317 30.5462 9.10432 30.7569 9.1869 30.9755H9.1949C9.00824 30.9755 8.80033 30.9835 8.57119 30.9995C8.34198 31.0102 8.10728 31.0075 7.86709 30.9915H7.85909C7.80431 30.8689 7.73591 30.7222 7.6539 30.5515C7.57188 30.3809 7.48177 30.2022 7.38357 30.0156C7.28537 29.8289 7.1792 29.6449 7.06506 29.4636C6.95092 29.2823 6.83703 29.1223 6.72339 28.9837L6.70711 28.9597C6.69256 29.0823 6.68635 29.2343 6.68849 29.4156C6.69057 29.5916 6.69541 29.7756 6.703 29.9676C6.71587 30.1542 6.72865 30.3329 6.74133 30.5035C6.75401 30.6742 6.76362 30.8102 6.77015 30.9115C6.67992 30.9488 6.5602 30.9728 6.411 30.9835C6.26712 30.9942 6.12319 30.9995 5.97919 30.9995C5.83525 31.0048 5.70458 31.0048 5.58719 30.9995C5.47512 30.9942 5.40579 30.9942 5.37919 30.9995C5.38985 30.9995 5.397 30.9275 5.40064 30.7835C5.40421 30.6342 5.40458 30.4396 5.40174 30.1996C5.39891 29.9596 5.39567 29.6849 5.39202 29.3756C5.3883 29.061 5.38183 28.7383 5.37259 28.4077C5.36863 28.0717 5.35939 27.7411 5.34488 27.4158C5.33565 27.0851 5.32676 26.7838 5.31821 26.5118C5.30961 26.2345 5.29884 25.9999 5.2859 25.8079C5.27824 25.6106 5.26867 25.4772 5.25718 25.4079C5.55534 25.3652 5.88287 25.3252 6.23977 25.2879C6.59666 25.2506 6.97002 25.2532 7.35986 25.2959C7.67472 25.3119 7.95845 25.4026 8.21107 25.5679C8.46369 25.7332 8.66078 25.9385 8.80234 26.1838C8.9439 26.4292 9.01911 26.7011 9.02797 26.9998C9.0421 27.2931 8.96814 27.5784 8.80608 27.8557C8.70701 28.0477 8.5729 28.2077 8.40374 28.3357C8.23992 28.4637 8.0301 28.5357 7.77429 28.5517H7.74229H7.73429L7.73439 28.5597C7.84872 28.757 7.97371 28.9543 8.10937 29.1516C8.24497 29.3436 8.37794 29.5383 8.50827 29.7356C8.6386 29.9329 8.76365 30.1356 8.88344 30.3436ZM6.98899 26.4078C6.80771 26.4132 6.62419 26.4532 6.4384 26.5278C6.44455 26.5972 6.44816 26.6771 6.44923 26.7678C6.45557 26.8531 6.45928 26.9411 6.46035 27.0318C6.46142 27.1224 6.46246 27.2104 6.46347 27.2958C6.46981 27.3811 6.47866 27.4531 6.49002 27.5118H6.49802C6.62081 27.5224 6.75424 27.5304 6.8983 27.5358C7.04236 27.5411 7.17827 27.5331 7.30602 27.5118C7.4071 27.4904 7.48383 27.4398 7.53622 27.3598C7.59388 27.2744 7.62748 27.1838 7.63701 27.0878C7.64648 26.9865 7.63465 26.8878 7.60152 26.7918C7.56832 26.6905 7.51404 26.6105 7.43868 26.5518C7.32009 26.4452 7.17019 26.3972 6.98899 26.4078ZM12.3062 25.7759C12.4625 25.9145 12.5737 26.0772 12.6399 26.2638C12.6782 26.3438 12.7058 26.4265 12.7228 26.5118C12.7451 26.5918 12.7621 26.6745 12.7738 26.7598C12.786 26.8931 12.7929 27.0265 12.7945 27.1598C12.8013 27.2878 12.8029 27.4184 12.7991 27.5518C12.7864 27.8344 12.7844 28.109 12.7928 28.3757C12.8013 28.6423 12.7965 28.9143 12.7785 29.1916L12.7576 29.4556C12.7491 29.6423 12.722 29.8316 12.6763 30.0236C12.6305 30.2102 12.5605 30.3809 12.4663 30.5355C12.3772 30.6635 12.2584 30.7675 12.11 30.8475C11.9669 30.9222 11.8129 30.9808 11.6481 31.0235C11.4993 31.0662 11.3476 31.0928 11.193 31.1035C11.0438 31.1142 10.8918 31.1142 10.737 31.1035C10.6249 31.0928 10.5154 31.0768 10.4085 31.0555C10.3069 31.0395 10.2079 31.0102 10.1114 30.9675C10.0203 30.9249 9.93697 30.8715 9.86154 30.8075C9.78606 30.7382 9.72369 30.6502 9.67443 30.5435C9.59819 30.4102 9.54585 30.2689 9.51742 30.1196C9.49426 29.9649 9.47911 29.8103 9.47195 29.6556C9.45104 29.2396 9.42746 28.8237 9.40122 28.4077C9.38024 27.9864 9.3806 27.5651 9.4023 27.1438C9.4048 26.9038 9.4313 26.6638 9.4818 26.4238C9.53757 26.1785 9.64702 25.9625 9.81015 25.7759C9.86285 25.7225 9.92362 25.6745 9.99245 25.6319C10.1674 25.5466 10.3561 25.4852 10.5583 25.4479C10.7658 25.4052 10.9709 25.3892 11.1737 25.3999C11.3818 25.4106 11.5823 25.4479 11.775 25.5119C11.9731 25.5706 12.1501 25.6586 12.3062 25.7759ZM11.8115 28.5997L11.807 28.2157L11.7845 27.6717C11.7845 27.6664 11.7785 27.6131 11.7666 27.5118C11.76 27.4051 11.7536 27.3064 11.7471 27.2158C11.7347 27.0665 11.6904 26.9305 11.6143 26.8078C11.5436 26.6851 11.4465 26.5945 11.3231 26.5358C11.216 26.4932 11.1065 26.4852 10.9948 26.5118C10.8832 26.5385 10.785 26.5838 10.7004 26.6478C10.5155 26.7918 10.3923 26.9758 10.331 27.1998C10.2907 27.4024 10.2665 27.6157 10.2585 27.8397C10.2558 28.0637 10.2611 28.2877 10.2744 28.5117C10.3033 28.6983 10.3242 28.8903 10.3372 29.0876C10.3502 29.2796 10.3843 29.4636 10.4398 29.6396C10.4944 29.7463 10.5727 29.8289 10.6747 29.8876C10.7767 29.9463 10.8865 29.9809 11.0039 29.9916C11.1213 29.9969 11.2385 29.9809 11.3553 29.9436C11.4722 29.9009 11.5701 29.8343 11.649 29.7436C11.6962 29.6796 11.7303 29.6289 11.7512 29.5916C11.772 29.5489 11.7848 29.5036 11.7896 29.4556C11.7944 29.4076 11.7937 29.3516 11.7876 29.2876C11.7868 29.2183 11.791 29.1276 11.8004 29.0157C11.8045 28.909 11.806 28.8157 11.8051 28.7357C11.8095 28.6557 11.8116 28.6103 11.8115 28.5997ZM15.2326 25.3759L15.232 25.3199L16.3998 25.3039C16.395 25.8052 16.4063 26.3118 16.4337 26.8238C16.4611 27.3358 16.4725 27.8504 16.4679 28.3677C16.4598 28.5863 16.4546 28.8237 16.4523 29.0796C16.45 29.3303 16.4235 29.5729 16.3729 29.8076C16.3277 30.0422 16.2422 30.2556 16.1165 30.4476C15.9961 30.6395 15.8138 30.7809 15.5695 30.8715C15.3468 30.9835 15.1022 31.0448 14.8357 31.0555C14.5692 31.0715 14.3156 31.0528 14.075 30.9995C13.8556 30.9355 13.6782 30.8182 13.5428 30.6475C13.4075 30.4769 13.3039 30.2822 13.232 30.0636C13.16 29.8396 13.1119 29.6076 13.0877 29.3676C13.0688 29.1223 13.0635 28.8983 13.0718 28.6957C13.1409 28.6797 13.2262 28.669 13.3274 28.6637C13.434 28.6583 13.5433 28.6557 13.6553 28.6557C13.7673 28.6557 13.8794 28.661 13.9915 28.6717C14.109 28.6823 14.2158 28.6957 14.312 28.7117L14.3121 28.7197L14.3126 28.7597C14.3188 28.8397 14.3279 28.933 14.3399 29.0396C14.3571 29.141 14.3849 29.2396 14.4234 29.3356C14.4618 29.4263 14.5107 29.5036 14.5701 29.5676C14.6295 29.6316 14.7073 29.6663 14.8033 29.6716C14.8835 29.6876 14.9528 29.6823 15.0111 29.6556C15.0695 29.6289 15.117 29.5889 15.1537 29.5356C15.1957 29.477 15.2269 29.413 15.2475 29.3436C15.2679 29.269 15.2803 29.1916 15.2847 29.1116C15.267 28.5144 15.2491 27.9011 15.231 27.2718C15.2182 26.6425 15.2188 26.0105 15.2326 25.3759ZM19.4052 29.9036C19.7467 29.9196 20.0987 29.9223 20.4613 29.9116L20.4615 29.9276C20.4742 30.0982 20.4789 30.2769 20.4758 30.4635C20.4726 30.6449 20.4506 30.8155 20.4098 30.9755C19.8658 30.9702 19.3112 30.9782 18.7461 30.9995C18.1863 31.0155 17.6475 31.0022 17.1297 30.9595C17.1242 30.4955 17.1134 30.0369 17.0974 29.5836C17.0813 29.125 17.0679 28.669 17.0573 28.2157C17.0466 27.7624 17.0412 27.3091 17.0412 26.8558C17.0412 26.4025 17.0518 25.9465 17.0731 25.4879C17.2809 25.4772 17.5048 25.4692 17.7448 25.4639C17.99 25.4532 18.2352 25.4452 18.4805 25.4399C18.7258 25.4346 18.963 25.4292 19.1923 25.4239C19.4216 25.4186 19.6242 25.4159 19.8002 25.4159C19.9762 25.4159 20.1176 25.4186 20.2243 25.4239C20.331 25.4292 20.3844 25.4346 20.3845 25.4399C20.4134 25.6266 20.4209 25.8159 20.4072 26.0079C20.3988 26.1998 20.3957 26.3892 20.3979 26.5758L20.398 26.5838C20.2278 26.6212 20.0547 26.6451 19.8788 26.6558C19.7082 26.6611 19.5349 26.6638 19.3589 26.6638C19.1829 26.6585 19.0068 26.6558 18.8308 26.6558C18.6548 26.6558 18.4789 26.6638 18.3031 26.6798H18.2791L18.2712 26.6878C18.2784 26.8425 18.2723 27.0025 18.2529 27.1678C18.2388 27.3278 18.2512 27.4798 18.2903 27.6237L18.2984 27.6317C18.4585 27.6424 18.6212 27.6477 18.7866 27.6477C18.9519 27.6477 19.1173 27.6504 19.2827 27.6557L19.2827 27.6637C19.3116 27.8451 19.3217 28.0264 19.3132 28.2077C19.3046 28.389 19.3042 28.5783 19.3119 28.7757C19.2321 28.797 19.1416 28.8103 19.0403 28.8157C18.939 28.8157 18.8403 28.8157 18.7443 28.8157C18.6537 28.8157 18.571 28.8183 18.4964 28.8237C18.4218 28.829 18.3713 28.8423 18.3449 28.8637C18.3201 29.0183 18.3114 29.1916 18.319 29.3836C18.332 29.5756 18.3445 29.7356 18.3567 29.8636L18.3648 29.8716C18.7168 29.8716 19.0636 29.8823 19.4052 29.9036ZM22.2895 26.5758C22.215 26.5918 22.1567 26.6212 22.1145 26.6638C22.104 26.6745 22.0935 26.6931 22.0832 26.7198C22.0781 26.7411 22.0729 26.7571 22.0677 26.7678C22.0573 26.7838 22.0477 26.8771 22.039 27.0478C22.0357 27.2184 22.0328 27.4211 22.0302 27.6557C22.0277 27.8904 22.0279 28.1357 22.0309 28.3917C22.0339 28.6423 22.0444 28.861 22.0626 29.0476C22.0805 29.2023 22.1223 29.3543 22.188 29.5036C22.2591 29.6476 22.3722 29.7409 22.5273 29.7836C22.6448 29.7943 22.7539 29.7783 22.8548 29.7356C22.9609 29.6876 23.04 29.6103 23.092 29.5036C23.1492 29.381 23.1717 29.253 23.1595 29.1196C23.1525 28.981 23.1616 28.845 23.1867 28.7117C23.2615 28.7223 23.3442 28.725 23.4348 28.7197C23.5307 28.7143 23.6267 28.7117 23.7227 28.7117C23.8187 28.7117 23.912 28.7143 24.0028 28.7197C24.0988 28.725 24.1843 28.7383 24.2592 28.7597C24.3532 29.037 24.3805 29.3143 24.3411 29.5916C24.3016 29.8636 24.2112 30.1089 24.0698 30.3276C23.9283 30.5462 23.7411 30.7275 23.5082 30.8715C23.2805 31.0102 23.02 31.0822 22.7267 31.0875C22.535 31.1142 22.3377 31.1142 22.1347 31.0875C21.9318 31.0662 21.7419 31.0155 21.5649 30.9355C21.3879 30.8502 21.2372 30.7329 21.1128 30.5835C20.9937 30.4342 20.9221 30.2476 20.8982 30.0236C20.8852 29.8316 20.8749 29.6316 20.8671 29.4236C20.8593 29.2156 20.8512 28.9837 20.8429 28.7277C20.8398 28.4664 20.8363 28.173 20.8325 27.8477C20.8339 27.5171 20.8347 27.1358 20.835 26.7038C20.8232 26.6132 20.8248 26.5225 20.8398 26.4318C20.86 26.3358 20.8856 26.2478 20.9167 26.1678C20.963 26.0292 21.0202 25.9012 21.0881 25.7839C21.1614 25.6666 21.2482 25.5626 21.3484 25.4719C21.4066 25.4292 21.4702 25.3946 21.5392 25.3679C21.6082 25.3359 21.6799 25.3092 21.7543 25.2879C21.9987 25.2079 22.2409 25.1759 22.4811 25.1919C22.7213 25.2079 22.946 25.2639 23.1551 25.3599C23.3695 25.4506 23.563 25.5732 23.7355 25.7279C23.908 25.8825 24.0461 26.0612 24.1498 26.2638C24.2534 26.4612 24.3173 26.6771 24.3414 26.9118C24.3655 27.1464 24.3364 27.3864 24.2539 27.6317C24.0571 27.6744 23.8626 27.6904 23.6705 27.6797C23.4836 27.6637 23.2887 27.6371 23.0856 27.5997C23.0684 27.4984 23.0563 27.3838 23.0495 27.2558C23.048 27.1278 23.0333 27.0105 23.0053 26.9038C22.9774 26.7918 22.9256 26.7011 22.8501 26.6318C22.78 26.5625 22.6676 26.5305 22.513 26.5358C22.4438 26.5465 22.3693 26.5598 22.2895 26.5758ZM26.2214 25.3599C26.8026 25.3546 27.3683 25.3812 27.9183 25.4399C27.9311 25.6159 27.9361 25.8185 27.9335 26.0479C27.9362 26.2772 27.9253 26.4878 27.9009 26.6798C27.7994 26.6585 27.6739 26.6505 27.5247 26.6558C27.3754 26.6611 27.1755 26.6691 26.9249 26.6798H26.9089H26.9009C26.901 26.6851 26.8984 26.6905 26.8931 26.6958C26.8931 26.6958 26.8932 26.6985 26.8932 26.7038C26.8882 26.7305 26.8834 26.7731 26.8787 26.8318C26.8794 26.8851 26.8804 26.9731 26.8819 27.0958C26.8832 27.2131 26.8851 27.3704 26.8874 27.5678C26.895 27.7597 26.9033 28.0104 26.9123 28.3197C26.9212 28.6237 26.9309 28.9917 26.9413 29.4236C26.9517 29.8503 26.9657 30.3542 26.9832 30.9355L26.9833 30.9435L26.9834 30.9515C26.8876 30.9675 26.781 30.9782 26.6637 30.9835C26.5517 30.9835 26.4371 30.9835 26.3197 30.9835C26.2077 30.9835 26.0957 30.9835 25.9837 30.9835C25.8717 30.9835 25.7678 30.9915 25.672 31.0075C25.6664 30.9862 25.6653 30.8902 25.6686 30.7195C25.6719 30.5489 25.6716 30.2956 25.6677 29.9596C25.669 29.6183 25.6612 29.1836 25.6443 28.6557C25.6327 28.1277 25.6065 27.4904 25.5657 26.7438L25.5576 26.7358C25.4932 26.7038 25.413 26.6851 25.3169 26.6798C25.2208 26.6691 25.1248 26.6638 25.0288 26.6638C24.9327 26.6585 24.8447 26.6558 24.7647 26.6558C24.6847 26.6558 24.6286 26.6505 24.5965 26.6398C24.5856 26.6185 24.5743 26.5652 24.5626 26.4798C24.5562 26.3945 24.5497 26.2932 24.543 26.1758C24.5415 26.0532 24.54 25.9225 24.5384 25.7839C24.5367 25.6452 24.5405 25.5119 24.5496 25.3839C24.5496 25.3786 24.5469 25.3759 24.5416 25.3759C24.5416 25.3759 24.5415 25.3732 24.5415 25.3679C25.0854 25.3626 25.6454 25.3599 26.2214 25.3599ZM4.72858 34.2153C4.87033 34.4766 4.90624 34.8072 4.83629 35.2072H4.82829C4.642 35.2392 4.44225 35.2605 4.22905 35.2712C4.01578 35.2765 3.81549 35.2525 3.6282 35.1992C3.6585 35.0552 3.62775 34.9352 3.53595 34.8392C3.44415 34.7433 3.33409 34.6819 3.20578 34.6553C3.07746 34.6286 2.95229 34.6419 2.83025 34.6953C2.71354 34.7486 2.64541 34.8499 2.62584 34.9992C2.61561 35.0366 2.61072 35.0739 2.61116 35.1112C2.61687 35.1432 2.62261 35.1779 2.62839 35.2152C2.67256 35.3432 2.7429 35.4285 2.83941 35.4712C2.93591 35.5139 3.04026 35.5432 3.15245 35.5592C3.43549 35.5912 3.69789 35.6819 3.93966 35.8312C4.18675 35.9805 4.38899 36.1698 4.54636 36.3991C4.64381 36.5218 4.71738 36.6551 4.76708 36.7991C4.81672 36.9378 4.84509 37.0818 4.85218 37.2311C4.86461 37.3804 4.85574 37.5324 4.82556 37.687C4.80066 37.8364 4.75703 37.9804 4.69466 38.119C4.63261 38.2843 4.54895 38.4257 4.44367 38.543C4.33839 38.6603 4.21685 38.7563 4.07907 38.831C3.94662 38.9056 3.80061 38.9616 3.64105 38.999C3.48676 39.031 3.32692 39.0443 3.16152 39.039C2.92679 39.0336 2.69165 38.9936 2.45611 38.919C2.22583 38.839 2.0192 38.7296 1.83623 38.591C1.65326 38.4523 1.50728 38.2843 1.39829 38.087C1.28923 37.8844 1.24119 37.655 1.25416 37.3991L1.25388 37.3751L1.2536 37.3511C1.43995 37.3244 1.64522 37.3191 1.86941 37.3351C2.09354 37.3457 2.29623 37.3484 2.4775 37.3431C2.49018 37.5137 2.55836 37.6417 2.68204 37.727C2.81104 37.8124 2.94488 37.855 3.08355 37.855C3.22748 37.8497 3.34958 37.8017 3.44985 37.711C3.55544 37.6204 3.59114 37.4817 3.55694 37.2951C3.53943 37.1671 3.49023 37.0658 3.40935 36.9911C3.3284 36.9111 3.23165 36.8471 3.11908 36.7991C3.01185 36.7511 2.89411 36.7164 2.76586 36.6951C2.63754 36.6685 2.51726 36.6445 2.40501 36.6231C2.29809 36.6018 2.19901 36.5671 2.10778 36.5191C2.01654 36.4711 1.93322 36.4151 1.85779 36.3511C1.60969 36.1165 1.44664 35.8578 1.36864 35.5752C1.29597 35.2925 1.29006 35.0179 1.35091 34.7513C1.41176 34.4846 1.5289 34.242 1.70232 34.0233C1.88107 33.8046 2.09782 33.642 2.35256 33.5353C2.47993 33.482 2.62085 33.4473 2.77533 33.4313C2.92974 33.41 3.08435 33.4047 3.23914 33.4153C3.3992 33.4207 3.55412 33.442 3.7039 33.4793C3.859 33.5167 4.0009 33.5647 4.1296 33.6233C4.38717 33.7567 4.58683 33.954 4.72858 34.2153ZM6.75329 33.3593C7.33456 33.354 7.90021 33.3807 8.45024 33.4393C8.46298 33.6153 8.46804 33.818 8.46541 34.0473C8.46812 34.2766 8.45727 34.4873 8.43287 34.6793C8.33129 34.6579 8.20586 34.6499 8.05659 34.6553C7.90732 34.6606 7.70741 34.6686 7.45687 34.6793H7.44087H7.43287C7.43294 34.6846 7.43033 34.6899 7.42506 34.6953C7.42506 34.6953 7.42509 34.6979 7.42516 34.7033C7.42014 34.7299 7.41531 34.7726 7.41067 34.8312C7.4113 34.8846 7.41233 34.9726 7.41378 35.0952C7.41517 35.2126 7.41702 35.3699 7.41935 35.5672C7.42695 35.7592 7.43525 36.0098 7.44423 36.3191C7.45315 36.6231 7.46283 36.9911 7.47326 37.4231C7.48363 37.8497 7.49758 38.3537 7.51511 38.935L7.5152 38.943L7.5153 38.951C7.41948 38.967 7.31294 38.9776 7.19567 38.983C7.08367 38.983 6.96901 38.983 6.85167 38.983C6.73967 38.983 6.62767 38.983 6.51567 38.983C6.40367 38.983 6.29977 38.991 6.20396 39.007C6.19837 38.9856 6.19724 38.8896 6.20056 38.719C6.20388 38.5483 6.20355 38.295 6.19959 37.959C6.20089 37.6177 6.19309 37.1831 6.1762 36.6551C6.16463 36.1272 6.13844 35.4899 6.09763 34.7433L6.08953 34.7353C6.02516 34.7033 5.94494 34.6846 5.84887 34.6793C5.75275 34.6686 5.65668 34.6633 5.56068 34.6633C5.46462 34.6579 5.37659 34.6553 5.29659 34.6553C5.21659 34.6553 5.16053 34.6499 5.1284 34.6393C5.11748 34.6179 5.10619 34.5646 5.09451 34.4793C5.08817 34.3939 5.08164 34.2926 5.07492 34.1753C5.07348 34.0526 5.07193 33.922 5.0703 33.7833C5.06866 33.6447 5.07242 33.5113 5.08157 33.3833C5.08151 33.378 5.07881 33.3753 5.07348 33.3753C5.07348 33.3753 5.07345 33.3727 5.07339 33.3673C5.61732 33.362 6.17729 33.3593 6.75329 33.3593ZM11.0179 35.8232C11.057 35.9778 11.0878 36.1005 11.1102 36.1912L11.7433 38.991L11.7434 38.999C11.5837 39.031 11.4079 39.0416 11.2157 39.031C11.0237 39.0256 10.8421 39.0043 10.671 38.967H10.663C10.63 38.8816 10.5968 38.7803 10.5634 38.663C10.5353 38.5457 10.5046 38.4257 10.4711 38.303C10.443 38.1803 10.4123 38.063 10.379 37.951C10.3457 37.839 10.3099 37.743 10.2716 37.663C10.2021 37.6524 10.1487 37.647 10.1114 37.647C10.0741 37.647 10.0394 37.647 10.0074 37.647C9.98074 37.647 9.94877 37.6497 9.9115 37.655C9.8795 37.655 9.83417 37.655 9.7755 37.655C9.73917 37.7404 9.70837 37.8417 9.68309 37.959C9.66308 38.071 9.64049 38.191 9.61534 38.319C9.59545 38.4417 9.57287 38.5617 9.54759 38.679C9.5223 38.7963 9.4862 38.9003 9.43927 38.991C9.43393 38.991 9.42863 38.9936 9.42336 38.999C9.42336 38.999 9.4207 38.999 9.41536 38.999C9.37282 39.0096 9.26616 39.0096 9.09536 38.999C8.92457 38.9883 8.65787 38.9856 8.29527 38.991C8.28993 38.991 8.28457 38.9883 8.27917 38.983C8.2894 38.9456 8.30684 38.8416 8.33149 38.671C8.35614 38.5003 8.39086 38.279 8.43565 38.007C8.48044 37.735 8.53276 37.4231 8.59261 37.0711C8.65772 36.7138 8.73325 36.3351 8.8192 35.9352C8.90514 35.5352 8.9989 35.1192 9.10047 34.6873C9.20203 34.2553 9.3143 33.826 9.43726 33.3993C9.47453 33.394 9.5145 33.3913 9.55717 33.3913C9.59984 33.3913 9.65584 33.3913 9.72517 33.3913C9.7945 33.3913 9.8825 33.3913 9.98917 33.3913C10.1011 33.386 10.245 33.3753 10.4208 33.3593C10.4376 33.4287 10.4629 33.5353 10.4966 33.6793C10.5355 33.818 10.5748 33.978 10.6142 34.1593C10.659 34.3353 10.7039 34.5246 10.7489 34.7273C10.7993 34.9299 10.847 35.1246 10.8918 35.3112C10.9367 35.4979 10.9787 35.6685 11.0179 35.8232ZM9.99645 36.7191C10.0977 36.7138 10.199 36.7111 10.3004 36.7111C10.2416 36.2525 10.1894 35.8952 10.1437 35.6392C10.1033 35.3832 10.0666 35.2099 10.0336 35.1192C10.0058 35.0286 9.97628 35.0099 9.9449 35.0632C9.9188 35.1112 9.89333 35.2126 9.86849 35.3672C9.84899 35.5219 9.82462 35.7165 9.79539 35.9512C9.77149 36.1858 9.74248 36.4391 9.70836 36.7111C9.79909 36.7164 9.89512 36.7191 9.99645 36.7191ZM13.0424 33.3593C13.6236 33.354 14.1893 33.3807 14.7393 33.4393C14.752 33.6153 14.7571 33.818 14.7545 34.0473C14.7572 34.2766 14.7463 34.4873 14.7219 34.6793C14.6203 34.6579 14.4949 34.6499 14.3457 34.6553C14.1964 34.6606 13.9965 34.6686 13.7459 34.6793H13.7299H13.7219C13.722 34.6846 13.7194 34.6899 13.7141 34.6953C13.7141 34.6953 13.7142 34.6979 13.7142 34.7033C13.7092 34.7299 13.7044 34.7726 13.6997 34.8312C13.7004 34.8846 13.7014 34.9726 13.7028 35.0952C13.7042 35.2126 13.7061 35.3699 13.7084 35.5672C13.716 35.7592 13.7243 36.0098 13.7333 36.3191C13.7422 36.6231 13.7519 36.9911 13.7623 37.4231C13.7727 37.8497 13.7866 38.3537 13.8042 38.935L13.8043 38.943L13.8044 38.951C13.7085 38.967 13.602 38.9776 13.4847 38.983C13.3727 38.983 13.2581 38.983 13.1407 38.983C13.0287 38.983 12.9167 38.983 12.8047 38.983C12.6927 38.983 12.5888 38.991 12.493 39.007C12.4874 38.9856 12.4863 38.8896 12.4896 38.719C12.4929 38.5483 12.4926 38.295 12.4886 37.959C12.49 37.6177 12.4822 37.1831 12.4653 36.6551C12.4537 36.1272 12.4275 35.4899 12.3867 34.7433L12.3786 34.7353C12.3142 34.7033 12.234 34.6846 12.1379 34.6793C12.0418 34.6686 11.9457 34.6633 11.8497 34.6633C11.7537 34.6579 11.6657 34.6553 11.5857 34.6553C11.5057 34.6553 11.4496 34.6499 11.4175 34.6393C11.4065 34.6179 11.3952 34.5646 11.3836 34.4793C11.3772 34.3939 11.3707 34.2926 11.364 34.1753C11.3625 34.0526 11.361 33.922 11.3594 33.7833C11.3577 33.6447 11.3615 33.5113 11.3706 33.3833C11.3706 33.378 11.3679 33.3753 11.3625 33.3753C11.3625 33.3753 11.3625 33.3727 11.3624 33.3673C11.9064 33.362 12.4664 33.3593 13.0424 33.3593ZM17.5309 37.903C17.8724 37.919 18.2244 37.9217 18.587 37.911L18.5871 37.927C18.5998 38.0977 18.6046 38.2763 18.6015 38.463C18.5983 38.6443 18.5763 38.815 18.5355 38.975C17.9915 38.9696 17.4369 38.9776 16.8718 38.999C16.312 39.015 15.7732 39.0016 15.2553 38.959C15.2499 38.495 15.2391 38.0364 15.2231 37.5831C15.207 37.1244 15.1936 36.6685 15.1829 36.2151C15.1723 35.7618 15.1669 35.3085 15.1669 34.8552C15.1669 34.4019 15.1775 33.946 15.1987 33.4873C15.4066 33.4767 15.6305 33.4687 15.8705 33.4633C16.1157 33.4527 16.3609 33.4447 16.6062 33.4393C16.8514 33.434 17.0887 33.4287 17.318 33.4233C17.5473 33.418 17.7499 33.4153 17.9259 33.4153C18.1019 33.4153 18.2433 33.418 18.35 33.4233C18.4567 33.4287 18.5101 33.434 18.5102 33.4393C18.539 33.626 18.5466 33.8153 18.5329 34.0073C18.5245 34.1993 18.5214 34.3886 18.5236 34.5753L18.5237 34.5833C18.3535 34.6206 18.1804 34.6446 18.0045 34.6553C17.8339 34.6606 17.6606 34.6633 17.4846 34.6633C17.3086 34.6579 17.1325 34.6553 16.9565 34.6553C16.7805 34.6553 16.6046 34.6633 16.4288 34.6793H16.4048L16.3969 34.6873C16.4041 34.8419 16.398 35.0019 16.3786 35.1672C16.3645 35.3272 16.3769 35.4792 16.416 35.6232L16.424 35.6312C16.5842 35.6419 16.7469 35.6472 16.9122 35.6472C17.0776 35.6472 17.2429 35.6499 17.4083 35.6552L17.4084 35.6632C17.4372 35.8445 17.4474 36.0258 17.4388 36.2071C17.4303 36.3885 17.4299 36.5778 17.4375 36.7751C17.3578 36.7964 17.2673 36.8098 17.166 36.8151C17.0647 36.8151 16.966 36.8151 16.87 36.8151C16.7794 36.8151 16.6967 36.8178 16.6221 36.8231C16.5475 36.8284 16.497 36.8418 16.4706 36.8631C16.4457 37.0178 16.4371 37.1911 16.4447 37.3831C16.4577 37.5751 16.4702 37.735 16.4824 37.863L16.4905 37.871C16.8425 37.871 17.1893 37.8817 17.5309 37.903ZM22.3795 34.9432C22.4067 35.4392 22.41 35.9432 22.3893 36.4551L22.3955 39.007C22.3153 38.9963 22.2273 38.991 22.1313 38.991C22.0353 38.991 21.9393 38.991 21.8433 38.991C21.7473 38.991 21.654 38.9936 21.5634 38.999C21.478 38.999 21.4034 38.999 21.3394 38.999C21.326 38.7696 21.3151 38.5217 21.3066 38.255C21.3034 37.9884 21.2976 37.7164 21.2889 37.4391C21.2857 37.1617 21.2745 36.8898 21.2553 36.6231C21.2415 36.3565 21.2199 36.1112 21.1906 35.8872C21.154 35.9458 21.1124 36.0392 21.0659 36.1672C21.0194 36.2898 20.9729 36.4178 20.9265 36.5511C20.88 36.6844 20.8361 36.8018 20.7946 36.9031C20.7532 37.0044 20.7218 37.0551 20.7004 37.0551C20.6738 37.0551 20.6414 37.0284 20.6035 36.9751C20.5708 36.9164 20.5353 36.8444 20.4969 36.7591C20.4639 36.6738 20.4282 36.5831 20.3897 36.4871C20.3512 36.3911 20.3182 36.3031 20.2906 36.2231C20.263 36.1432 20.2382 36.0765 20.2162 36.0232C20.1996 35.9698 20.1913 35.9432 20.1913 35.9432C20.1545 36.4445 20.1445 36.9511 20.1612 37.4631C20.1833 37.975 20.2132 38.479 20.2511 38.975C20.0807 39.0016 19.8942 39.0123 19.6915 39.007C19.4887 39.0016 19.302 38.999 19.1314 38.999C19.1207 38.999 19.1126 38.991 19.1071 38.975C19.1015 38.9536 19.0956 38.903 19.0893 38.823C19.083 38.743 19.0763 38.623 19.069 38.463C19.0671 38.2977 19.0645 38.0817 19.0614 37.815C19.0582 37.5484 19.0543 37.2177 19.0497 36.8231C19.0504 36.4285 19.0475 35.9592 19.0411 35.4152C19.04 34.8712 19.0378 34.2366 19.0346 33.5113C19.1037 33.49 19.1835 33.4767 19.2741 33.4713C19.3647 33.466 19.4581 33.466 19.5541 33.4713C19.6501 33.4713 19.7461 33.474 19.8422 33.4793C19.9382 33.4793 20.0315 33.4767 20.1221 33.4713H20.1301C20.1787 33.5247 20.2277 33.6073 20.277 33.7193C20.3263 33.826 20.373 33.9406 20.4171 34.0633C20.4612 34.186 20.5026 34.3033 20.5413 34.4153C20.5852 34.5273 20.629 34.6153 20.6724 34.6793C20.6886 34.6953 20.7047 34.7033 20.7207 34.7033C20.7367 34.7086 20.7601 34.6579 20.7909 34.5513C20.8269 34.4446 20.8628 34.3219 20.8985 34.1833C20.9395 34.0393 20.9831 33.898 21.0295 33.7593C21.0812 33.6207 21.1307 33.5193 21.1779 33.4553C21.2153 33.4607 21.282 33.4607 21.3779 33.4553C21.4792 33.45 21.5858 33.4447 21.6977 33.4393C21.815 33.434 21.9323 33.4313 22.0496 33.4313C22.1722 33.426 22.2762 33.4233 22.3615 33.4233C22.3463 33.9353 22.3522 34.4419 22.3795 34.9432ZM25.3902 37.903C25.7318 37.919 26.0838 37.9217 26.4463 37.911L26.4465 37.927C26.4592 38.0977 26.464 38.2763 26.4608 38.463C26.4577 38.6443 26.4357 38.815 26.3949 38.975C25.8508 38.9696 25.2963 38.9776 24.7312 38.999C24.1714 39.015 23.6325 39.0016 23.1147 38.959C23.1092 38.495 23.0985 38.0364 23.0825 37.5831C23.0664 37.1244 23.053 36.6685 23.0423 36.2151C23.0316 35.7618 23.0263 35.3085 23.0263 34.8552C23.0262 34.4019 23.0369 33.946 23.0581 33.4873C23.266 33.4767 23.4899 33.4687 23.7298 33.4633C23.975 33.4527 24.2203 33.4447 24.4655 33.4393C24.7108 33.434 24.9481 33.4287 25.1774 33.4233C25.4066 33.418 25.6093 33.4153 25.7853 33.4153C25.9613 33.4153 26.1026 33.418 26.2094 33.4233C26.3161 33.4287 26.3695 33.434 26.3695 33.4393C26.3984 33.626 26.406 33.8153 26.3923 34.0073C26.3839 34.1993 26.3808 34.3886 26.383 34.5753L26.3831 34.5833C26.2128 34.6206 26.0398 34.6446 25.8639 34.6553C25.6933 34.6606 25.52 34.6633 25.344 34.6633C25.1679 34.6579 24.9919 34.6553 24.8159 34.6553C24.6399 34.6553 24.464 34.6633 24.2882 34.6793H24.2642L24.2563 34.6873C24.2634 34.8419 24.2573 35.0019 24.2379 35.1672C24.2238 35.3272 24.2363 35.4792 24.2753 35.6232L24.2834 35.6312C24.4435 35.6419 24.6063 35.6472 24.7716 35.6472C24.9369 35.6472 25.1023 35.6499 25.2677 35.6552L25.2678 35.6632C25.2966 35.8445 25.3067 36.0258 25.2982 36.2071C25.2897 36.3885 25.2893 36.5778 25.2969 36.7751C25.2172 36.7964 25.1267 36.8098 25.0254 36.8151C24.9241 36.8151 24.8254 36.8151 24.7294 36.8151C24.6387 36.8151 24.5561 36.8178 24.4815 36.8231C24.4069 36.8284 24.3564 36.8418 24.33 36.8631C24.3051 37.0178 24.2965 37.1911 24.3041 37.3831C24.317 37.5751 24.3296 37.735 24.3418 37.863L24.3499 37.871C24.7019 37.871 25.0487 37.8817 25.3902 37.903ZM30.191 39.023C30.1538 39.0336 30.0899 39.039 29.9992 39.039C29.8925 39.039 29.7698 39.031 29.6309 39.015C29.4921 39.0043 29.3694 38.999 29.2627 38.999C29.0821 38.6043 28.9016 38.223 28.7212 37.855C28.5462 37.4817 28.3953 37.1244 28.2686 36.7831L28.1857 36.5431C28.1637 36.4845 28.1418 36.4311 28.1199 36.3831C28.1032 36.3298 28.0896 36.3031 28.0789 36.3031C28.0736 36.3031 28.0663 36.3671 28.0572 36.4951C28.0534 36.6231 28.0499 36.7858 28.0469 36.9831C28.0439 37.1804 28.0412 37.3991 28.0387 37.639C28.0415 37.879 28.0443 38.111 28.0469 38.335C28.0483 38.4577 28.0498 38.5777 28.0511 38.695C28.0525 38.807 28.0563 38.9083 28.0627 38.999C28.0043 39.015 27.9457 39.0256 27.8871 39.031C27.8285 39.0363 27.7699 39.039 27.7112 39.039C27.5832 39.039 27.4524 39.031 27.3189 39.015C27.1907 38.999 27.0653 38.991 26.9426 38.991L26.936 38.431C26.9301 37.9244 26.919 37.4417 26.9029 36.9831C26.8922 36.5245 26.8839 36.0445 26.8779 35.5432C26.8736 35.1752 26.8747 34.8126 26.8811 34.4553C26.8875 34.0926 26.902 33.7407 26.9246 33.3993C26.9778 33.3887 27.0338 33.3807 27.0924 33.3753C27.1563 33.37 27.2203 33.3673 27.2843 33.3673C27.3163 33.3673 27.3696 33.37 27.4444 33.3753C27.519 33.3753 27.5938 33.3807 27.6685 33.3913C27.7433 33.3967 27.8074 33.4047 27.8608 33.4153C27.9196 33.426 27.9491 33.4367 27.9492 33.4473C27.9877 33.5433 28.0233 33.6233 28.056 33.6873C28.0888 33.7513 28.1189 33.8126 28.1462 33.8713C28.1789 33.93 28.2117 33.9966 28.2446 34.0713C28.2827 34.1406 28.3265 34.2313 28.3758 34.3433C28.3868 34.3699 28.4114 34.4206 28.4496 34.4953C28.4878 34.5699 28.5315 34.6579 28.5807 34.7593C28.6298 34.8552 28.6817 34.9592 28.7364 35.0712C28.791 35.1779 28.8401 35.2765 28.8839 35.3672C28.9329 35.4525 28.9738 35.5272 29.0065 35.5912C29.0392 35.6499 29.0582 35.6792 29.0636 35.6792C29.0794 35.6685 29.0921 35.6152 29.1017 35.5192C29.1112 35.4232 29.1154 35.3299 29.1144 35.2392C29.1118 35.0259 29.1042 34.8286 29.0914 34.6473C29.0838 34.4606 29.0789 34.2713 29.0767 34.0793C29.0753 33.9673 29.074 33.8553 29.0727 33.7433C29.0766 33.626 29.0805 33.5007 29.0843 33.3673C29.2652 33.3353 29.457 33.3194 29.6597 33.3194C29.857 33.3194 30.0332 33.3353 30.1883 33.3673L30.2187 35.9432C30.2266 36.1672 30.232 36.3938 30.2347 36.6231C30.2374 36.8524 30.2401 37.0818 30.2428 37.3111C30.2446 37.4657 30.2437 37.6151 30.2401 37.759C30.2418 37.903 30.2435 38.0497 30.2453 38.199C30.2466 38.3057 30.2478 38.4123 30.2491 38.519C30.2557 38.6256 30.2596 38.7323 30.2608 38.839L30.2627 38.999C30.2521 39.0043 30.2282 39.0123 30.191 39.023ZM32.2845 33.3593C32.8658 33.354 33.4315 33.3807 33.9815 33.4393C33.9942 33.6153 33.9993 33.818 33.9967 34.0473C33.9994 34.2766 33.9885 34.4873 33.9641 34.6793C33.8625 34.6579 33.7371 34.6499 33.5878 34.6553C33.4386 34.6606 33.2387 34.6686 32.9881 34.6793H32.9721H32.9641C32.9642 34.6846 32.9616 34.6899 32.9563 34.6953C32.9563 34.6953 32.9563 34.6979 32.9564 34.7033C32.9514 34.7299 32.9466 34.7726 32.9419 34.8312C32.9425 34.8846 32.9436 34.9726 32.945 35.0952C32.9464 35.2126 32.9483 35.3699 32.9506 35.5672C32.9582 35.7592 32.9665 36.0098 32.9755 36.3191C32.9844 36.6231 32.9941 36.9911 33.0045 37.4231C33.0149 37.8497 33.0288 38.3537 33.0464 38.935L33.0465 38.943L33.0465 38.951C32.9507 38.967 32.8442 38.9776 32.7269 38.983C32.6149 38.983 32.5003 38.983 32.3829 38.983C32.2709 38.983 32.1589 38.983 32.0469 38.983C31.9349 38.983 31.831 38.991 31.7352 39.007C31.7296 38.9856 31.7285 38.8896 31.7318 38.719C31.7351 38.5483 31.7348 38.295 31.7308 37.959C31.7321 37.6177 31.7243 37.1831 31.7074 36.6551C31.6959 36.1272 31.6697 35.4899 31.6289 34.7433L31.6208 34.7353C31.5564 34.7033 31.4762 34.6846 31.3801 34.6793C31.284 34.6686 31.1879 34.6633 31.0919 34.6633C30.9959 34.6579 30.9078 34.6553 30.8278 34.6553C30.7478 34.6553 30.6918 34.6499 30.6596 34.6393C30.6487 34.6179 30.6374 34.5646 30.6258 34.4793C30.6194 34.3939 30.6129 34.2926 30.6062 34.1753C30.6047 34.0526 30.6032 33.922 30.6015 33.7833C30.5999 33.6447 30.6037 33.5113 30.6128 33.3833C30.6128 33.378 30.6101 33.3753 30.6047 33.3753C30.6047 33.3753 30.6047 33.3727 30.6046 33.3673C31.1486 33.362 31.7085 33.3593 32.2845 33.3593Z" fill="black"/>
<path d="M4.57726 17.1229C4.7531 17.2789 4.87826 17.4619 4.95274 17.6719C4.9958 17.7619 5.0269 17.8549 5.04603 17.9509C5.07109 18.0409 5.09019 18.1339 5.10332 18.2298C5.11709 18.3798 5.12486 18.5298 5.12663 18.6798C5.13433 18.8238 5.13607 18.9708 5.13184 19.1208C5.11759 19.4388 5.11524 19.7477 5.12478 20.0477C5.13432 20.3477 5.12893 20.6537 5.10862 20.9657L5.08512 21.2626C5.0756 21.4726 5.04511 21.6856 4.99366 21.9016C4.94214 22.1116 4.86341 22.3036 4.75746 22.4775C4.65716 22.6215 4.52354 22.7385 4.35661 22.8285C4.1956 22.9125 4.02238 22.9785 3.83694 23.0265C3.66951 23.0745 3.49886 23.1045 3.325 23.1165C3.15715 23.1285 2.98615 23.1285 2.812 23.1165C2.68586 23.1045 2.56265 23.0865 2.44237 23.0625C2.32815 23.0445 2.21676 23.0115 2.1082 22.9635C2.00563 22.9155 1.91192 22.8555 1.82707 22.7835C1.74215 22.7055 1.67198 22.6065 1.61657 22.4865C1.5308 22.3366 1.47192 22.1776 1.43994 22.0096C1.41388 21.8356 1.39683 21.6616 1.38878 21.4876C1.36525 21.0197 1.33873 20.5517 1.3092 20.0837C1.28561 19.6097 1.28602 19.1358 1.31042 18.6618C1.31323 18.3918 1.34305 18.1219 1.39986 17.8519C1.4626 17.5759 1.58573 17.3329 1.76926 17.1229C1.82855 17.0629 1.89691 17.0089 1.97434 16.9609C2.17121 16.8649 2.3834 16.7959 2.6109 16.7539C2.84433 16.706 3.07512 16.688 3.30326 16.7C3.5374 16.712 3.7629 16.7539 3.97975 16.8259C4.20253 16.8919 4.4017 16.9909 4.57726 17.1229ZM4.02075 20.2997L4.01566 19.8677L3.99043 19.2558C3.99036 19.2498 3.98365 19.1898 3.97031 19.0758C3.96289 18.9558 3.95558 18.8448 3.94838 18.7428C3.93439 18.5748 3.88459 18.4218 3.79896 18.2838C3.71933 18.1459 3.61013 18.0439 3.47135 17.9779C3.35078 17.9299 3.22767 17.9209 3.10203 17.9509C2.97638 17.9809 2.86598 18.0319 2.77083 18.1039C2.56275 18.2658 2.42419 18.4728 2.35516 18.7248C2.30986 18.9528 2.28269 19.1928 2.27366 19.4448C2.27064 19.6967 2.27661 19.9487 2.29159 20.2007C2.32406 20.4107 2.34761 20.6267 2.36223 20.8487C2.37678 21.0646 2.41523 21.2716 2.47756 21.4696C2.53898 21.5896 2.62708 21.6826 2.74186 21.7486C2.85664 21.8146 2.9801 21.8536 3.11224 21.8656C3.24431 21.8716 3.3761 21.8536 3.5076 21.8116C3.63903 21.7636 3.74915 21.6886 3.83795 21.5866C3.8911 21.5146 3.92942 21.4576 3.95293 21.4156C3.97636 21.3676 3.99076 21.3166 3.99612 21.2626C4.00148 21.2086 4.00074 21.1456 3.99389 21.0736C3.99297 20.9957 3.99777 20.8937 4.00828 20.7677C4.01286 20.6477 4.01462 20.5427 4.01356 20.4527C4.0185 20.3627 4.0209 20.3117 4.02075 20.2997ZM9.30319 16.8979C9.41733 16.9099 9.51065 16.9369 9.58314 16.9789C9.62821 17.7469 9.64938 18.5238 9.64666 19.3098C9.64386 20.0897 9.60503 20.8667 9.53017 21.6406C9.48684 22.0366 9.34081 22.3726 9.09207 22.6485C8.84332 22.9245 8.5032 23.0835 8.0717 23.1255C7.81998 23.1495 7.55884 23.1375 7.28827 23.0895C7.01778 23.0475 6.77086 22.9695 6.54751 22.8555C6.33009 22.7355 6.14525 22.5795 5.99299 22.3876C5.84665 22.1896 5.76585 21.9526 5.75059 21.6766C5.74125 20.8847 5.74083 20.0867 5.74934 19.2828C5.75785 18.4788 5.75143 17.6809 5.73008 16.8889L5.72097 16.8799H5.72997C5.81997 16.8799 5.91894 16.8769 6.02687 16.8709C6.1408 16.8649 6.25476 16.8619 6.36876 16.8619C6.48276 16.8619 6.59383 16.8679 6.70197 16.8799C6.81004 16.8859 6.90922 16.9009 6.9995 16.9249L6.99961 16.9339C6.95075 18.3858 6.99514 19.8587 7.13277 21.3526C7.17647 21.4966 7.25271 21.6016 7.36149 21.6676C7.47627 21.7336 7.59362 21.7636 7.71355 21.7576C7.83348 21.7516 7.94398 21.7096 8.04506 21.6316C8.14614 21.5536 8.21087 21.4456 8.23924 21.3076C8.26074 20.5877 8.2671 19.8557 8.25832 19.1118C8.25554 18.3678 8.25904 17.6479 8.26882 16.9519C8.34675 16.9459 8.44565 16.9369 8.5655 16.9249C8.69129 16.9069 8.81715 16.8949 8.94308 16.8889C9.06901 16.8829 9.18904 16.8859 9.30319 16.8979ZM14.2794 22.2616C14.4141 22.4895 14.5279 22.7265 14.6208 22.9725H14.6298C14.4198 22.9725 14.1859 22.9815 13.9282 22.9995C13.6703 23.0115 13.4063 23.0085 13.136 22.9905H13.127C13.0654 22.8525 12.9885 22.6875 12.8962 22.4955C12.8039 22.3036 12.7026 22.1026 12.5921 21.8926C12.4816 21.6826 12.3622 21.4756 12.2338 21.2716C12.1054 21.0676 11.9772 20.8877 11.8494 20.7317L11.8311 20.7047C11.8147 20.8427 11.8077 21.0137 11.8101 21.2176C11.8125 21.4156 11.8179 21.6226 11.8265 21.8386C11.8409 22.0486 11.8553 22.2496 11.8696 22.4416C11.8838 22.6335 11.8946 22.7865 11.902 22.9005C11.8005 22.9425 11.6658 22.9695 11.4979 22.9815C11.3361 22.9935 11.1742 22.9995 11.0122 22.9995C10.8502 23.0055 10.7032 23.0055 10.5712 22.9995C10.4451 22.9935 10.3671 22.9935 10.3372 22.9995C10.3492 22.9995 10.3572 22.9185 10.3613 22.7565C10.3653 22.5885 10.3657 22.3696 10.3625 22.0996C10.3593 21.8296 10.3557 21.5206 10.3516 21.1726C10.3474 20.8187 10.3401 20.4557 10.3297 20.0837C10.3253 19.7057 10.3149 19.3338 10.2986 18.9678C10.2882 18.5958 10.2782 18.2568 10.2686 17.9509C10.2589 17.6389 10.2468 17.3749 10.2322 17.1589C10.2236 16.9369 10.2128 16.7869 10.1999 16.709C10.5353 16.661 10.9038 16.616 11.3053 16.574C11.7068 16.532 12.1268 16.535 12.5654 16.583C12.9196 16.601 13.2388 16.703 13.523 16.8889C13.8072 17.0749 14.0289 17.3059 14.1882 17.5819C14.3475 17.8579 14.4321 18.1638 14.442 18.4998C14.4579 18.8298 14.3747 19.1508 14.1924 19.4628C14.081 19.6787 13.9301 19.8587 13.7398 20.0027C13.5555 20.1467 13.3194 20.2277 13.0316 20.2457H12.9956H12.9866L12.9868 20.2547C13.1154 20.4767 13.256 20.6987 13.4086 20.9207C13.5612 21.1366 13.7108 21.3556 13.8574 21.5776C14.004 21.7996 14.1447 22.0276 14.2794 22.2616ZM12.1482 17.8339C11.9442 17.8399 11.7378 17.8849 11.5288 17.9689C11.5357 18.0469 11.5398 18.1369 11.541 18.2388C11.5481 18.3348 11.5523 18.4338 11.5535 18.5358C11.5547 18.6378 11.5558 18.7368 11.557 18.8328C11.5641 18.9288 11.5741 19.0098 11.5868 19.0758H11.5958C11.734 19.0878 11.8841 19.0968 12.0462 19.1028C12.2082 19.1088 12.3611 19.0998 12.5048 19.0758C12.6186 19.0518 12.7049 18.9948 12.7638 18.9048C12.8287 18.8088 12.8665 18.7068 12.8772 18.5988C12.8879 18.4848 12.8746 18.3738 12.8373 18.2658C12.7999 18.1518 12.7389 18.0619 12.6541 17.9959C12.5207 17.8759 12.352 17.8219 12.1482 17.8339Z" fill="black"/>
<g clip-path="url(#clip0_65_52)">
<path d="M25.0603 22.4564C25.4616 20.3215 25.3952 19.114 26.5868 18.6105L30.7524 16.853V14.9851C30.7524 14.9851 29.8558 14.6592 29.8558 12.6503C28.9252 12.6503 28.9252 10.7825 29.8558 10.7825C29.8558 10.5135 28.2962 8.51403 30.2562 8.91467C30.722 7.04685 35.3136 7.04685 35.7794 8.91467C35.8405 9.23767 35.835 9.56943 35.7633 9.89031C35.6916 10.2111 35.5551 10.5146 35.362 10.7825C36.2642 10.7825 36.0175 12.6503 35.3687 12.6503C35.3687 14.6592 34.5471 14.9851 34.5471 14.9851V16.853L37.6464 18.1306C37.9915 18.2727 38.2862 18.5121 38.4935 18.8187C38.7008 19.1253 38.8114 19.4853 38.8114 19.8535V22.4564H25.0603Z" fill="#E3E3E3"/>
<path d="M16.9918 22.4564C17.3931 20.3215 17.3267 19.114 18.5182 18.6105L22.6838 16.853V14.9851C22.6838 14.9851 21.7873 14.6592 21.7873 12.6503C20.8567 12.6503 20.8567 10.7825 21.7873 10.7825C21.7873 10.5135 20.2277 8.51403 22.1877 8.91467C22.6535 7.04685 27.245 7.04685 27.7109 8.91467C27.7719 9.23767 27.7664 9.56943 27.6947 9.89031C27.623 10.2111 27.4865 10.5146 27.2934 10.7825C28.1957 10.7825 27.949 12.6503 27.3001 12.6503C27.3001 14.6592 26.4786 14.9851 26.4786 14.9851V16.853L30.6441 18.6105C31.8329 19.1121 31.7674 20.3093 32.1706 22.4564H16.9918Z" stroke="#191919" stroke-linecap="round" stroke-linejoin="round"/>
<path d="M35.3631 12.6503C35.3631 14.6583 34.5415 14.9851 34.5415 14.9851V16.853L37.6835 18.2277C38.0191 18.3743 38.3041 18.6138 38.5041 18.9168C38.7042 19.2198 38.8106 19.5734 38.8106 19.9349V22.4564H35.4902" stroke="#191919" stroke-linecap="round" stroke-linejoin="round"/>
</g>
<defs>
<clipPath id="clip0_65_52">
<rect width="23.8032" height="23.4328" fill="white" transform="translate(16)"/>
</clipPath>
</defs>
</svg>
