<svg width="35" height="41" viewBox="0 0 35 41" fill="none" xmlns="http://www.w3.org/2000/svg">
<path d="M6.34356 34.0581C6.54621 33.9384 6.75686 33.8373 6.97551 33.7547V33.7467C6.97551 33.9333 6.98351 34.1413 6.99951 34.3704C7.01018 34.5996 7.00751 34.8343 6.99151 35.0745V35.0825C6.86886 35.1373 6.7222 35.2057 6.55154 35.2877C6.38089 35.3697 6.20223 35.4598 6.01558 35.558C5.82893 35.6562 5.64494 35.7624 5.46362 35.8765C5.2823 35.9907 5.12231 36.1046 4.98365 36.2182L4.95965 36.2345C5.08231 36.249 5.2343 36.2552 5.41562 36.2531C5.59161 36.251 5.7756 36.2462 5.96758 36.2386C6.15424 36.2257 6.33289 36.2129 6.50355 36.2003C6.6742 36.1876 6.81019 36.178 6.91152 36.1714C6.94885 36.2617 6.97285 36.3814 6.98351 36.5306C6.99418 36.6745 6.99951 36.8184 6.99951 36.9624C7.00485 37.1063 7.00485 37.237 6.99951 37.3544C6.99418 37.4665 6.99418 37.5358 6.99951 37.5624C6.99951 37.5517 6.92752 37.5446 6.78353 37.5409C6.6342 37.5374 6.43955 37.537 6.19957 37.5398C5.95959 37.5427 5.68494 37.5459 5.37563 37.5496C5.06098 37.5533 4.73834 37.5598 4.40769 37.569C4.07172 37.573 3.74107 37.5822 3.41576 37.5967C3.08512 37.6059 2.78381 37.6148 2.51182 37.6234C2.23451 37.632 1.99986 37.6427 1.80787 37.6557C1.61055 37.6633 1.47723 37.6729 1.4079 37.6844C1.36524 37.3862 1.32524 37.0587 1.28791 36.7018C1.25058 36.3449 1.25325 35.9716 1.29591 35.5817C1.31191 35.2669 1.40257 34.9831 1.56789 34.7305C1.73321 34.4779 1.93853 34.2808 2.18385 34.1392C2.42916 33.9977 2.70114 33.9225 2.99979 33.9136C3.2931 33.8995 3.57842 33.9734 3.85573 34.1355C4.04772 34.2346 4.20771 34.3687 4.3357 34.5378C4.46369 34.7017 4.53568 34.9115 4.55168 35.1673V35.1993V35.2073L4.55968 35.2072C4.757 35.0929 4.95432 34.9679 5.15164 34.8322C5.34363 34.6966 5.53828 34.5636 5.7356 34.4333C5.93292 34.303 6.13557 34.1779 6.34356 34.0581ZM2.40783 35.9526C2.41317 36.1339 2.45316 36.3174 2.52782 36.5032C2.59715 36.497 2.67715 36.4934 2.76781 36.4923C2.85313 36.486 2.94113 36.4823 3.03179 36.4812C3.12245 36.4802 3.21044 36.4791 3.29577 36.4781C3.3811 36.4718 3.45309 36.4629 3.51176 36.4516V36.4436C3.52242 36.3208 3.53042 36.1873 3.53575 36.0433C3.54109 35.8992 3.53309 35.7633 3.51176 35.6356C3.49042 35.5345 3.43976 35.4577 3.35977 35.4054C3.27444 35.3477 3.18378 35.3141 3.08778 35.3046C2.98646 35.2951 2.8878 35.3069 2.79181 35.3401C2.69048 35.3733 2.61048 35.4275 2.55182 35.5029C2.44516 35.6215 2.39717 35.7714 2.40783 35.9526ZM5.90359 31.1067C5.91959 30.7652 5.92225 30.4132 5.91159 30.0506L5.92759 30.0504C6.09824 30.0377 6.2769 30.033 6.46355 30.0361C6.64487 30.0393 6.81553 30.0613 6.97551 30.1021C6.97018 30.6461 6.97818 31.2007 6.99951 31.7658C7.01551 32.3256 7.00218 32.8644 6.95952 33.3822C6.49555 33.3877 6.03691 33.3985 5.58361 33.4145C5.12498 33.4306 4.66901 33.4439 4.21571 33.4546C3.7624 33.4653 3.3091 33.4707 2.8558 33.4707C2.4025 33.4707 1.94653 33.4601 1.4879 33.4388C1.47723 33.231 1.46923 33.0071 1.4639 32.7671C1.45323 32.5219 1.44523 32.2767 1.4399 32.0314C1.43457 31.7861 1.42923 31.5489 1.4239 31.3196C1.41857 31.0903 1.4159 30.8877 1.4159 30.7117C1.4159 30.5357 1.41857 30.3943 1.4239 30.2876C1.42923 30.1809 1.43457 30.1275 1.4399 30.1274C1.62655 30.0985 1.81587 30.091 2.00786 30.1047C2.19985 30.1131 2.38917 30.1162 2.57582 30.114L2.58382 30.1139C2.62115 30.2841 2.64515 30.4572 2.65581 30.633C2.66115 30.8036 2.66381 30.977 2.66381 31.153C2.65848 31.329 2.65581 31.505 2.65581 31.681C2.65581 31.857 2.66381 32.033 2.67981 32.2088V32.2328L2.68781 32.2407C2.84247 32.2335 3.00246 32.2396 3.16778 32.259C3.32777 32.2731 3.47976 32.2607 3.62375 32.2216L3.63175 32.2135C3.64241 32.0534 3.64775 31.8907 3.64775 31.7253C3.64775 31.56 3.65041 31.3946 3.65575 31.2292L3.66374 31.2291C3.84507 31.2003 4.02639 31.1902 4.20771 31.1987C4.38903 31.2073 4.57835 31.2077 4.77567 31.2C4.797 31.2798 4.81033 31.3703 4.81566 31.4715C4.81566 31.5729 4.81566 31.6715 4.81566 31.7675C4.81566 31.8582 4.81833 31.9409 4.82366 32.0155C4.829 32.0901 4.84233 32.1406 4.86366 32.167C5.01832 32.1918 5.19164 32.2004 5.38363 32.1928C5.57561 32.1799 5.7356 32.1674 5.86359 32.1552L5.87159 32.1471C5.87159 31.7951 5.88226 31.4483 5.90359 31.1067ZM2.21585 26.3387C2.47716 26.1969 2.8078 26.161 3.20778 26.231V26.239C3.23977 26.4253 3.26111 26.625 3.27177 26.8382C3.2771 27.0515 3.25311 27.2518 3.19978 27.4391C3.05579 27.4088 2.9358 27.4395 2.8398 27.5313C2.74381 27.6231 2.68248 27.7332 2.65581 27.8615C2.62915 27.9898 2.64248 28.115 2.69581 28.237C2.74914 28.3537 2.85047 28.4219 2.99979 28.4414C3.03712 28.4516 3.07445 28.4565 3.11178 28.4561C3.14378 28.4504 3.17845 28.4446 3.21578 28.4389C3.34377 28.3947 3.42909 28.3244 3.47176 28.2279C3.51442 28.1313 3.54375 28.027 3.55975 27.9148C3.59175 27.6318 3.68241 27.3694 3.83173 27.1276C3.98106 26.8805 4.17038 26.6783 4.39969 26.5209C4.52235 26.4234 4.65568 26.3499 4.79967 26.3002C4.93832 26.2505 5.08231 26.2222 5.23164 26.2151C5.38096 26.2026 5.53295 26.2115 5.6876 26.2417C5.83693 26.2666 5.98092 26.3102 6.11957 26.3726C6.2849 26.4346 6.42622 26.5183 6.54354 26.6236C6.66087 26.7289 6.75686 26.8504 6.83152 26.9882C6.90619 27.1206 6.96218 27.2666 6.99951 27.4262C7.03151 27.5805 7.04484 27.7403 7.03951 27.9057C7.03418 28.1405 6.99418 28.3756 6.91952 28.6112C6.83952 28.8414 6.7302 29.0481 6.59154 29.231C6.45288 29.414 6.2849 29.56 6.08758 29.669C5.88492 29.778 5.65561 29.8261 5.39962 29.8131L5.37563 29.8134L5.35163 29.8137C5.32496 29.6273 5.31963 29.422 5.33563 29.1978C5.34629 28.9737 5.34896 28.771 5.34363 28.5898C5.51428 28.5771 5.64227 28.5089 5.7276 28.3852C5.81293 28.2562 5.85559 28.1224 5.85559 27.9837C5.85026 27.8398 5.80226 27.7177 5.7116 27.6174C5.62094 27.5118 5.48228 27.4761 5.29563 27.5103C5.16764 27.5278 5.06631 27.577 4.99165 27.6579C4.91166 27.7389 4.84766 27.8356 4.79967 27.9482C4.75167 28.0554 4.717 28.1732 4.69567 28.3014C4.66901 28.4297 4.64501 28.55 4.62368 28.6623C4.60235 28.7692 4.56768 28.8682 4.51969 28.9595C4.47169 29.0507 4.41569 29.134 4.3517 29.2095C4.11705 29.4576 3.8584 29.6206 3.57575 29.6986C3.2931 29.7713 3.01846 29.7772 2.75181 29.7163C2.48516 29.6555 2.24251 29.5384 2.02386 29.3649C1.80521 29.1862 1.64255 28.9694 1.53589 28.7147C1.48256 28.5873 1.4479 28.4464 1.4319 28.2919C1.41057 28.1375 1.40524 27.9829 1.4159 27.8281C1.42123 27.6681 1.44257 27.5131 1.4799 27.3634C1.51723 27.2083 1.56522 27.0664 1.62389 26.9377C1.75721 26.6801 1.95453 26.4804 2.21585 26.3387ZM1.77588 22.9011C1.91453 22.7448 2.07719 22.6335 2.26384 22.5673C2.34384 22.529 2.4265 22.5014 2.51182 22.4844C2.59182 22.4621 2.67448 22.4451 2.75981 22.4334C2.89313 22.4212 3.02646 22.4143 3.15978 22.4127C3.28777 22.4059 3.41843 22.4043 3.55175 22.4081C3.8344 22.4208 4.10905 22.4228 4.3757 22.4144C4.64234 22.4059 4.91432 22.4107 5.19164 22.4287L5.45562 22.4496C5.64227 22.4581 5.83159 22.4852 6.02358 22.5309C6.21023 22.5767 6.38089 22.6467 6.53554 22.7409C6.66354 22.83 6.76753 22.9488 6.84752 23.0972C6.92218 23.2403 6.98085 23.3943 7.02351 23.5591C7.06617 23.7079 7.09284 23.8596 7.10351 24.0142C7.11417 24.1634 7.11417 24.3154 7.10351 24.4702C7.09284 24.5823 7.07684 24.6918 7.05551 24.7987C7.03951 24.9003 7.01018 24.9993 6.96751 25.0958C6.92485 25.1869 6.87152 25.2702 6.80753 25.3457C6.7382 25.4211 6.6502 25.4835 6.54354 25.5328C6.41022 25.609 6.2689 25.6614 6.11957 25.6898C5.96492 25.7129 5.81026 25.7281 5.65561 25.7353C5.23964 25.7562 4.82366 25.7797 4.40769 25.806C3.98639 25.827 3.56508 25.8266 3.14378 25.8049C2.9038 25.8024 2.66381 25.7759 2.42383 25.7254C2.17851 25.6696 1.96253 25.5602 1.77588 25.3971C1.72255 25.3444 1.67455 25.2836 1.63189 25.2148C1.54656 25.0398 1.48523 24.8512 1.4479 24.6489C1.40524 24.4414 1.38924 24.2363 1.3999 24.0335C1.41057 23.8254 1.4479 23.6249 1.51189 23.4322C1.57056 23.2341 1.65855 23.0571 1.77588 22.9011ZM4.59968 23.3957L4.21571 23.4003L3.67174 23.4227C3.66641 23.4227 3.61308 23.4287 3.51176 23.4406C3.4051 23.4472 3.30644 23.4537 3.21578 23.4601C3.06645 23.4725 2.93046 23.5168 2.8078 23.5929C2.68515 23.6637 2.59449 23.7607 2.53582 23.8841C2.49316 23.9913 2.48516 24.1007 2.51182 24.2124C2.53849 24.3241 2.58382 24.4222 2.64782 24.5068C2.79181 24.6917 2.97579 24.8149 3.19978 24.8762C3.40243 24.9165 3.61575 24.9407 3.83973 24.9487C4.06372 24.9514 4.2877 24.9461 4.51169 24.9328C4.69834 24.9039 4.89033 24.883 5.08765 24.87C5.27963 24.857 5.46362 24.8229 5.63961 24.7674C5.74627 24.7129 5.82893 24.6345 5.88759 24.5325C5.94625 24.4305 5.98092 24.3208 5.99158 24.2033C5.99692 24.0859 5.98092 23.9688 5.94359 23.8519C5.90092 23.735 5.83426 23.6372 5.7436 23.5582C5.6796 23.511 5.62894 23.4769 5.59161 23.456C5.54895 23.4352 5.50362 23.4224 5.45562 23.4176C5.40762 23.4129 5.35163 23.4135 5.28763 23.4196C5.2183 23.4204 5.12764 23.4162 5.01565 23.4068C4.90899 23.4027 4.81566 23.4012 4.73567 23.4021C4.65568 23.3977 4.61035 23.3956 4.59968 23.3957ZM1.57589 18.7002C1.58656 18.5988 1.61055 18.5158 1.64789 18.4514C2.3305 18.4113 3.02112 18.3925 3.71974 18.3949C4.41303 18.3974 5.10364 18.4319 5.7916 18.4985C6.14357 18.537 6.44222 18.6668 6.68753 18.8879C6.93285 19.109 7.07417 19.4113 7.1115 19.7949C7.13284 20.0186 7.12217 20.2508 7.07951 20.4913C7.04218 20.7317 6.97285 20.9512 6.87152 21.1497C6.76486 21.343 6.62621 21.5073 6.45555 21.6426C6.27956 21.7727 6.06891 21.8445 5.82359 21.8581C5.11964 21.8664 4.41036 21.8668 3.69574 21.8592C2.98113 21.8516 2.27184 21.8573 1.56789 21.8763L1.55989 21.8844V21.8764C1.55989 21.7964 1.55722 21.7084 1.55189 21.6125C1.54656 21.5112 1.54389 21.4099 1.54389 21.3086C1.54389 21.2073 1.54923 21.1085 1.55989 21.0124C1.56522 20.9164 1.57856 20.8282 1.59989 20.7479L1.60789 20.7479C2.89846 20.7913 4.20771 20.7518 5.53561 20.6295C5.66361 20.5906 5.75693 20.5229 5.8156 20.4262C5.87426 20.3242 5.90092 20.2198 5.89559 20.1132C5.89026 20.0066 5.85293 19.9084 5.7836 19.8186C5.71427 19.7287 5.61828 19.6712 5.49562 19.646C4.85566 19.6268 4.20504 19.6212 3.54375 19.629C2.88247 19.6315 2.24251 19.6284 1.62389 19.6197C1.61855 19.5504 1.61055 19.4625 1.59989 19.3559C1.58389 19.2441 1.57322 19.1323 1.56789 19.0203C1.56256 18.9084 1.56522 18.8017 1.57589 18.7002ZM6.34356 14.2769C6.54621 14.1572 6.75686 14.056 6.97551 13.9734V13.9654C6.97551 14.1521 6.98351 14.36 6.99951 14.5891C7.01018 14.8184 7.00751 15.0531 6.99151 15.2932V15.3012C6.86886 15.356 6.7222 15.4244 6.55154 15.5064C6.38089 15.5884 6.20223 15.6786 6.01558 15.7768C5.82893 15.875 5.64494 15.9811 5.46362 16.0953C5.2823 16.2094 5.12231 16.3233 4.98365 16.4369L4.95965 16.4532C5.08231 16.4678 5.2343 16.474 5.41562 16.4718C5.59161 16.4698 5.7756 16.4649 5.96758 16.4573C6.15424 16.4445 6.33289 16.4317 6.50355 16.419C6.6742 16.4063 6.81019 16.3967 6.91152 16.3902C6.94885 16.4804 6.97285 16.6001 6.98351 16.7493C6.99418 16.8932 6.99951 17.0371 6.99951 17.1811C7.00485 17.3251 7.00485 17.4557 6.99951 17.5731C6.99418 17.6852 6.99418 17.7545 6.99951 17.7811C6.99951 17.7705 6.92752 17.7633 6.78353 17.7597C6.6342 17.7561 6.43955 17.7558 6.19957 17.7586C5.95959 17.7614 5.68494 17.7647 5.37563 17.7683C5.06098 17.772 4.73834 17.7785 4.40769 17.7877C4.07172 17.7917 3.74107 17.8009 3.41576 17.8154C3.08512 17.8247 2.78381 17.8336 2.51182 17.8421C2.23451 17.8507 1.99986 17.8615 1.80787 17.8744C1.61055 17.8821 1.47723 17.8917 1.4079 17.9032C1.36524 17.605 1.32524 17.2775 1.28791 16.9206C1.25058 16.5637 1.25325 16.1903 1.29591 15.8005C1.31191 15.4856 1.40257 15.2019 1.56789 14.9493C1.73321 14.6966 1.93853 14.4996 2.18385 14.358C2.42916 14.2164 2.70114 14.1412 2.99979 14.1324C3.2931 14.1182 3.57842 14.1922 3.85573 14.3543C4.04772 14.4533 4.20771 14.5874 4.3357 14.7566C4.46369 14.9204 4.53568 15.1302 4.55168 15.386V15.418V15.426L4.55968 15.4259C4.757 15.3116 4.95432 15.1866 5.15164 15.051C5.34363 14.9154 5.53828 14.7824 5.7356 14.6521C5.93292 14.5217 6.13557 14.3967 6.34356 14.2769ZM2.40783 16.1713C2.41317 16.3526 2.45316 16.5361 2.52782 16.7219C2.59715 16.7158 2.67715 16.7122 2.76781 16.7111C2.85313 16.7048 2.94113 16.7011 3.03179 16.7C3.12245 16.6989 3.21044 16.6979 3.29577 16.6969C3.3811 16.6905 3.45309 16.6817 3.51176 16.6703V16.6623C3.52242 16.5395 3.53042 16.4061 3.53575 16.262C3.54109 16.118 3.53309 15.9821 3.51176 15.8543C3.49042 15.7532 3.43976 15.6765 3.35977 15.6241C3.27444 15.5665 3.18378 15.5329 3.08778 15.5233C2.98646 15.5138 2.8878 15.5257 2.79181 15.5588C2.69048 15.592 2.61048 15.6463 2.55182 15.7216C2.44516 15.8402 2.39717 15.9901 2.40783 16.1713ZM2.57582 12.2927C2.59182 12.3672 2.62115 12.4255 2.66381 12.4677C2.67448 12.4782 2.69315 12.4887 2.71981 12.499C2.74114 12.5041 2.75714 12.5093 2.76781 12.5145C2.78381 12.525 2.87713 12.5345 3.04779 12.5432C3.21844 12.5465 3.4211 12.5494 3.65575 12.552C3.8904 12.5546 4.13571 12.5543 4.39169 12.5513C4.64234 12.5483 4.86099 12.5378 5.04765 12.5196C5.2023 12.5017 5.35429 12.4599 5.50362 12.3942C5.64761 12.3231 5.74093 12.21 5.7836 12.0549C5.79426 11.9374 5.77826 11.8283 5.7356 11.7274C5.6876 11.6213 5.61028 11.5423 5.50362 11.4902C5.38096 11.433 5.25297 11.4105 5.11964 11.4227C4.98099 11.4297 4.845 11.4206 4.71167 11.3955C4.72234 11.3207 4.725 11.238 4.71967 11.1474C4.71434 11.0515 4.71167 10.9555 4.71167 10.8595C4.71167 10.7635 4.71434 10.6702 4.71967 10.5794C4.725 10.4834 4.73834 10.3979 4.75967 10.323C5.03698 10.229 5.3143 10.2017 5.59161 10.2411C5.86359 10.2806 6.10891 10.371 6.32756 10.5125C6.54621 10.6539 6.72753 10.8411 6.87152 11.074C7.01018 11.3017 7.08217 11.5622 7.08751 11.8555C7.11417 12.0472 7.11417 12.2445 7.08751 12.4475C7.06617 12.6504 7.01551 12.8403 6.93552 13.0173C6.85019 13.1943 6.73286 13.345 6.58354 13.4694C6.43422 13.5885 6.24756 13.6601 6.02358 13.684C5.83159 13.697 5.63161 13.7073 5.42362 13.7151C5.21564 13.7229 4.98365 13.731 4.72767 13.7393C4.46636 13.7424 4.17304 13.7459 3.84773 13.7497C3.51709 13.7483 3.13578 13.7475 2.70381 13.7472C2.61315 13.759 2.52249 13.7574 2.43183 13.7424C2.33584 13.7222 2.24784 13.6966 2.16785 13.6656C2.02919 13.6192 1.9012 13.562 1.78388 13.4941C1.66655 13.4208 1.56256 13.334 1.4719 13.2338C1.42923 13.1756 1.39457 13.112 1.3679 13.043C1.33591 12.974 1.30924 12.9024 1.28791 12.8279C1.20792 12.5836 1.17592 12.3413 1.19192 12.1011C1.20792 11.8609 1.26391 11.6362 1.3599 11.4271C1.45057 11.2127 1.57322 11.0192 1.72788 10.8467C1.88254 10.6743 2.06119 10.5361 2.26384 10.4324C2.46116 10.3288 2.67715 10.2649 2.9118 10.2408C3.14645 10.2167 3.38643 10.2458 3.63175 10.3283C3.67441 10.5251 3.69041 10.7196 3.67974 10.9117C3.66374 11.0986 3.63708 11.2935 3.59975 11.4967C3.49842 11.5138 3.38376 11.5259 3.25577 11.5327C3.12778 11.5342 3.01046 11.5489 2.9038 11.5769C2.79181 11.6049 2.70114 11.6566 2.63182 11.7321C2.56249 11.8022 2.53049 11.9146 2.53582 12.0692C2.54649 12.1384 2.55982 12.2129 2.57582 12.2927ZM5.90359 7.41921C5.91959 7.07768 5.92225 6.72565 5.91159 6.36311L5.92759 6.36292C6.09824 6.35024 6.2769 6.34547 6.46355 6.3486C6.64487 6.35179 6.81553 6.37378 6.97551 6.41455C6.97018 6.95862 6.97818 7.51319 6.99951 8.07827C7.01551 8.63808 7.00218 9.17691 6.95952 9.69474C6.49555 9.70022 6.03691 9.71097 5.58361 9.72698C5.12498 9.74306 4.66901 9.75645 4.21571 9.76713C3.7624 9.77782 3.3091 9.78317 2.8558 9.78318C2.4025 9.7832 1.94653 9.77258 1.4879 9.75133C1.47723 9.54346 1.46923 9.31955 1.4639 9.07961C1.45323 8.83441 1.44523 8.58917 1.4399 8.3439C1.43457 8.09863 1.42923 7.86136 1.4239 7.63209C1.41857 7.40282 1.4159 7.20018 1.4159 7.02418C1.4159 6.84818 1.41857 6.70682 1.4239 6.60009C1.42923 6.49336 1.43457 6.43996 1.4399 6.4399C1.62655 6.41103 1.81587 6.40346 2.00786 6.41719C2.19985 6.42559 2.38917 6.42869 2.57582 6.42649L2.58382 6.42639C2.62115 6.59662 2.64515 6.76967 2.65581 6.94554C2.66115 7.11615 2.66381 7.28945 2.66381 7.46545C2.65848 7.64151 2.65581 7.81754 2.65581 7.99354C2.65581 8.16954 2.66381 8.34545 2.67981 8.52126V8.54526L2.68781 8.55317C2.84247 8.54601 3.00246 8.55212 3.16778 8.5715C3.32777 8.58561 3.47976 8.57315 3.62375 8.53412L3.63175 8.52602C3.64241 8.3659 3.64775 8.20317 3.64775 8.03784C3.64775 7.8725 3.65041 7.70714 3.65575 7.54174L3.66374 7.54165C3.84507 7.51284 4.02639 7.5027 4.20771 7.51123C4.38903 7.51975 4.57835 7.52018 4.77567 7.51252C4.797 7.59227 4.81033 7.68278 4.81566 7.78405C4.81566 7.88538 4.81566 7.98405 4.81566 8.08005C4.81566 8.17072 4.81833 8.25335 4.82366 8.32795C4.829 8.40256 4.84233 8.45307 4.86366 8.47948C5.01832 8.50432 5.19164 8.51294 5.38363 8.50534C5.57561 8.49241 5.7356 8.47986 5.86359 8.46768L5.87159 8.45958C5.87159 8.10758 5.88226 7.76079 5.90359 7.41921ZM2.21585 2.65118C2.47716 2.50942 2.8078 2.47352 3.20778 2.54347V2.55147C3.23977 2.73776 3.26111 2.9375 3.27177 3.15071C3.2771 3.36398 3.25311 3.56426 3.19978 3.75156C3.05579 3.72126 2.9358 3.75201 2.8398 3.84381C2.74381 3.93561 2.68248 4.04567 2.65581 4.17398C2.62915 4.3023 2.64248 4.42747 2.69581 4.54951C2.74914 4.66621 2.85047 4.73435 2.99979 4.75392C3.03712 4.76415 3.07445 4.76904 3.11178 4.7686C3.14378 4.76289 3.17845 4.75715 3.21578 4.75137C3.34377 4.70719 3.42909 4.63685 3.47176 4.54035C3.51442 4.44385 3.54375 4.3395 3.55975 4.22731C3.59175 3.94427 3.68241 3.68186 3.83173 3.4401C3.98106 3.19301 4.17038 2.99077 4.39969 2.8334C4.52235 2.73595 4.65568 2.66238 4.79967 2.61268C4.93832 2.56304 5.08231 2.53467 5.23164 2.52758C5.38096 2.51515 5.53295 2.52402 5.6876 2.55419C5.83693 2.5791 5.98092 2.62273 6.11957 2.6851C6.2849 2.74714 6.42622 2.83081 6.54354 2.93609C6.66087 3.04137 6.75686 3.16291 6.83152 3.30069C6.90619 3.43314 6.96218 3.57915 6.99951 3.73871C7.03151 3.893 7.04484 4.05284 7.03951 4.21824C7.03418 4.45297 6.99418 4.6881 6.91952 4.92365C6.83952 5.15393 6.7302 5.36055 6.59154 5.54352C6.45288 5.72649 6.2849 5.87248 6.08758 5.98147C5.88492 6.09053 5.65561 6.13857 5.39962 6.12559L5.37563 6.12588L5.35163 6.12616C5.32496 5.93981 5.31963 5.73454 5.33563 5.51035C5.34629 5.28622 5.34896 5.08352 5.34363 4.90225C5.51428 4.88957 5.64227 4.8214 5.7276 4.69772C5.81293 4.56871 5.85559 4.43488 5.85559 4.29621C5.85026 4.15227 5.80226 4.03017 5.7116 3.92991C5.62094 3.82431 5.48228 3.78862 5.29563 3.82282C5.16764 3.84033 5.06631 3.88953 4.99165 3.97041C4.91166 4.05135 4.84766 4.14811 4.79967 4.26068C4.75167 4.36791 4.717 4.48565 4.69567 4.6139C4.66901 4.74222 4.64501 4.8625 4.62368 4.97475C4.60235 5.08167 4.56768 5.18075 4.51969 5.27198C4.47169 5.36321 4.41569 5.44654 4.3517 5.52196C4.11705 5.77007 3.8584 5.93312 3.57575 6.01112C3.2931 6.08379 3.01846 6.0897 2.75181 6.02885C2.48516 5.968 2.24251 5.85086 2.02386 5.67744C1.80521 5.49869 1.64255 5.28194 1.53589 5.0272C1.48256 4.89983 1.4479 4.75891 1.4319 4.60443C1.41057 4.45001 1.40524 4.29541 1.4159 4.14062C1.42123 3.98056 1.44257 3.82564 1.4799 3.67586C1.51723 3.52076 1.56522 3.37886 1.62389 3.25016C1.75721 2.99259 1.95453 2.79293 2.21585 2.65118Z" fill="black"/>
<path d="M22.4421 11.9644V32.5264C22.4399 32.7259 22.39 32.9219 22.2966 33.0983C22.203 33.2746 22.0689 33.426 21.9049 33.5398C21.7402 33.652 21.5504 33.7218 21.3524 33.7431C21.1544 33.7644 20.9541 33.7365 20.7694 33.6619L11.0012 29.7546C10.774 29.6641 10.5792 29.5075 10.442 29.305C10.3049 29.1026 10.2317 28.8636 10.2319 28.6191V7.47103C10.2339 7.27146 10.2837 7.07526 10.3772 6.89892C10.4707 6.72258 10.6051 6.57123 10.7692 6.45758L21.6729 10.8288C21.9001 10.9193 22.0949 11.0759 22.232 11.2784C22.3691 11.4809 22.4424 11.7198 22.4421 11.9644Z" fill="#BEF0FF"/>
<path d="M10.2319 25.7862V28.619C10.2317 28.8636 10.3049 29.1026 10.442 29.305C10.5792 29.5075 10.774 29.6641 11.0012 29.7546L20.7694 33.6619C20.9541 33.7365 21.1544 33.7642 21.3524 33.7431C21.5504 33.7217 21.7402 33.652 21.9049 33.5397C22.0689 33.426 22.203 33.2745 22.2966 33.0982C22.39 32.9219 22.4399 32.7259 22.4421 32.5264V13.5761L10.2319 25.7862Z" fill="#93E6FF"/>
<path d="M22.4421 11.9644V32.5264C22.4399 32.7259 22.39 32.9219 22.2966 33.0983C22.203 33.2746 22.0689 33.426 21.9049 33.5398C21.7402 33.652 21.5504 33.7218 21.3524 33.7431C21.1544 33.7644 20.9541 33.7365 20.7694 33.6619L11.0012 29.7546C10.774 29.6641 10.5792 29.5075 10.442 29.305C10.3049 29.1026 10.2317 28.8636 10.2319 28.6191V7.47103C10.2339 7.27146 10.2837 7.07526 10.3772 6.89892C10.4707 6.72258 10.6051 6.57123 10.7692 6.45758L21.6729 10.8288C21.9001 10.9193 22.0949 11.0759 22.232 11.2784C22.3691 11.4809 22.4424 11.7198 22.4421 11.9644Z" stroke="#191919" stroke-linecap="round" stroke-linejoin="round"/>
<path d="M29.768 7.47101V28.2284C29.768 28.5521 29.6394 28.8627 29.4104 29.0917C29.1815 29.3206 28.8709 29.4494 28.547 29.4494H26.105V10.316C26.1055 10.0312 26.0072 9.75505 25.8267 9.53461C25.6464 9.31419 25.3952 9.16312 25.116 9.10719L10.9033 6.38431C11.0734 6.29715 11.2616 6.25115 11.4528 6.25H28.547C28.8709 6.25 29.1815 6.37864 29.4104 6.60763C29.6394 6.83661 29.768 7.14717 29.768 7.47101Z" fill="#E3E3E3"/>
<path d="M26.105 10.316V30.6704C26.105 30.9942 25.9764 31.3049 25.7474 31.5337C25.5185 31.7627 25.2079 31.8914 24.884 31.8914H22.442V11.9644C22.4423 11.7198 22.369 11.4808 22.2319 11.2784C22.0948 11.0759 21.9 10.9193 21.6728 10.8288L10.769 6.45757C10.8179 6.43315 10.8545 6.40873 10.9034 6.38431L25.116 9.10718C25.3953 9.16313 25.6464 9.31418 25.8269 9.53461C26.0073 9.75505 26.1055 10.0312 26.105 10.316Z" fill="#E3E3E3"/>
<path d="M29.768 7.47101V28.2284C29.768 28.5521 29.6394 28.8627 29.4104 29.0917C29.1815 29.3206 28.8709 29.4494 28.547 29.4494H26.105V10.316C26.1055 10.0312 26.0072 9.75505 25.8267 9.53461C25.6464 9.31419 25.3952 9.16312 25.116 9.10719L10.9033 6.38431C11.0734 6.29715 11.2616 6.25115 11.4528 6.25H28.547C28.8709 6.25 29.1815 6.37864 29.4104 6.60763C29.6394 6.83661 29.768 7.14717 29.768 7.47101Z" stroke="#191919" stroke-linecap="round" stroke-linejoin="round"/>
<path d="M26.105 10.316V30.6704C26.105 30.9942 25.9764 31.3049 25.7474 31.5337C25.5185 31.7627 25.2079 31.8914 24.884 31.8914H22.442V11.9644C22.4423 11.7198 22.369 11.4808 22.2319 11.2784C22.0948 11.0759 21.9 10.9193 21.6728 10.8288L10.769 6.45757C10.8179 6.43315 10.8545 6.40873 10.9034 6.38431L25.116 9.10718C25.3953 9.16313 25.6464 9.31418 25.8269 9.53461C26.0073 9.75505 26.1055 10.0312 26.105 10.316Z" stroke="#191919" stroke-linecap="round" stroke-linejoin="round"/>
</svg>
