<svg width="41" height="36" viewBox="0 0 41 36" fill="none" xmlns="http://www.w3.org/2000/svg">
<path d="M9.87492 4.73438C9.9426 4.73447 10.0077 4.76039 10.0569 4.80685C10.1061 4.85333 10.1358 4.91685 10.1397 4.98443C10.1437 5.05202 10.1217 5.11857 10.0783 5.17049C10.0355 5.22156 9.97517 5.25467 9.90922 5.26335L9.87126 5.26562L9.48451 5.26563C9.48449 5.26563 9.48448 5.26562 9.48446 5.26562C9.41677 5.26554 9.35168 5.23961 9.30246 5.19315C9.25323 5.14667 9.2236 5.08315 9.21963 5.01557C9.21567 4.94798 9.23766 4.88143 9.28111 4.82951C9.32385 4.77844 9.38419 4.74533 9.45014 4.73665L9.48811 4.73438H9.87492Z" fill="#F2FF00" stroke="black" stroke-width="0.25"/>
<path d="M13.1765 1.28588C13.1278 1.24265 13.0651 1.21876 13 1.21875L13.1765 1.28588ZM13.1765 1.28588C13.2243 1.32839 13.2551 1.3867 13.2633 1.45007M13.1765 1.28588L13.2633 1.45007M13.2633 1.45007L13.2656 1.48811L13.2656 1.87486C13.2656 1.87488 13.2656 1.87489 13.2656 1.87491C13.2655 1.9426 13.2396 2.00769 13.1931 2.05691C13.1467 2.10614 13.0832 2.13577 13.0156 2.13974C12.948 2.1437 12.8814 2.12171 12.8295 2.07826C12.7784 2.03552 12.7453 1.97518 12.7366 1.90923L12.7344 1.87126V1.48438C12.7344 1.41393 12.7624 1.34636 12.8122 1.29655C12.862 1.24674 12.9295 1.21875 13 1.21875L13.2633 1.45007Z" fill="#F2FF00" stroke="black" stroke-width="0.25"/>
<path d="M16.5155 4.73438C16.5832 4.73447 16.6483 4.76039 16.6975 4.80685C16.7468 4.85333 16.7764 4.91685 16.7804 4.98443C16.7843 5.05202 16.7623 5.11857 16.7189 5.17049C16.6761 5.22156 16.6158 5.25467 16.5498 5.26335L16.5119 5.26562L16.1251 5.26563C16.1251 5.26563 16.1251 5.26562 16.1251 5.26562C16.0574 5.26554 15.9923 5.23961 15.9431 5.19315C15.8939 5.14667 15.8642 5.08315 15.8603 5.01557C15.8563 4.94798 15.8783 4.88143 15.9217 4.82951C15.9645 4.77844 16.0248 4.74533 16.0908 4.73665L16.1287 4.73438H16.5155Z" fill="#F2FF00" stroke="black" stroke-width="0.25"/>
<path d="M10.4834 2.23496C10.4188 2.23902 10.358 2.26649 10.3122 2.31221C10.3122 2.31222 10.3122 2.31222 10.3122 2.31223M10.4834 2.23496L10.3122 2.31223M10.4834 2.23496C10.5467 2.23098 10.6094 2.24982 10.66 2.288L10.6905 2.31497L10.9611 2.58551C10.9611 2.58553 10.9611 2.58555 10.9611 2.58557C11.0087 2.63337 11.0364 2.69748 11.0384 2.76491C11.0405 2.83236 11.0168 2.89807 10.9722 2.94869C10.9275 2.99931 10.8653 3.03105 10.7981 3.03744C10.7322 3.04373 10.6663 3.02513 10.6134 2.98538L10.5829 2.95848L10.3122 2.6878M10.4834 2.23496L10.3122 2.6878M10.3122 2.31223C10.2624 2.36204 10.2345 2.42958 10.2345 2.50001C10.2345 2.57043 10.2624 2.63798 10.3122 2.68779M10.3122 2.31223L10.3122 2.68779M10.3122 2.68779C10.3122 2.68779 10.3122 2.6878 10.3122 2.6878M10.3122 2.68779L10.3122 2.6878" fill="#F2FF00" stroke="black" stroke-width="0.25"/>
<path d="M15.3121 2.31236C15.3121 2.31234 15.3121 2.31232 15.3121 2.31229C15.3599 2.26469 15.424 2.23706 15.4915 2.235C15.5589 2.23294 15.6246 2.25664 15.6753 2.30127C15.7259 2.3459 15.7576 2.40813 15.764 2.47531C15.7703 2.54127 15.7517 2.60715 15.7119 2.66006L15.685 2.69052L15.4145 2.96106C15.4145 2.96109 15.4145 2.96111 15.4144 2.96113C15.3666 3.00873 15.3025 3.03636 15.2351 3.03842C15.1676 3.04048 15.1019 3.01679 15.0513 2.97215C15.0007 2.92752 14.969 2.86529 14.9626 2.79811C14.9563 2.73215 14.9749 2.66627 15.0146 2.61337L15.0415 2.5829L15.3121 2.31236Z" fill="#F2FF00" stroke="black" stroke-width="0.25"/>
<path d="M13.8807 7.63494C13.8543 7.60857 13.8185 7.59375 13.7812 7.59375H12.2262L12.197 7.5955C12.1648 7.60054 12.1354 7.61659 12.1137 7.64098C12.0908 7.66671 12.0781 7.69994 12.0781 7.73438L13.8807 7.63494ZM13.8807 7.63494C13.9071 7.66131 13.9219 7.69708 13.9219 7.73438M13.8807 7.63494L13.9219 7.73438M13.9219 7.73438C13.9219 7.97887 13.8247 8.21335 13.6519 8.38624M13.9219 7.73438L13.6519 8.38624M13.6519 8.38624C13.479 8.55912 13.2445 8.65625 13 8.65625M13.6519 8.38624L13 8.65625M13 8.65625C12.7555 8.65625 12.521 8.55912 12.3481 8.38624M13 8.65625L12.3481 8.38624M12.3481 8.38624C12.1753 8.21336 12.0781 7.97889 12.0781 7.73441L12.3481 8.38624Z" fill="#D9D9D9" stroke="black" stroke-width="0.5"/>
<path d="M14.2563 6.675L14.2561 6.67511C14.2384 6.68839 14.2179 6.69729 14.1962 6.70114L14.1641 6.70312H11.8281C11.7977 6.70312 11.7681 6.69326 11.7438 6.675C11.3922 6.41133 11.1325 6.04374 11.0015 5.62429C10.8705 5.20484 10.8747 4.75479 11.0137 4.3379C11.1527 3.92101 11.4193 3.55841 11.7758 3.30146C12.1323 3.04452 12.5606 2.90625 13 2.90625C13.4394 2.90625 13.8677 3.04452 14.2242 3.30146C14.5807 3.55841 14.8473 3.92101 14.9863 4.3379C15.1253 4.75479 15.1295 5.20484 14.9985 5.62429C14.8675 6.04374 14.6078 6.41133 14.2563 6.675Z" fill="#F2FF00" stroke="black" stroke-width="0.5"/>
<path d="M15.375 10.75C15.375 10.087 15.6384 9.45107 16.1072 8.98223C16.5761 8.51339 17.212 8.25 17.875 8.25H24.125C24.788 8.25 25.4239 8.51339 25.8928 8.98223C26.3616 9.45107 26.625 10.087 26.625 10.75V14.5C26.625 15.163 26.3616 15.7989 25.8928 16.2678C25.4239 16.7366 24.788 17 24.125 17H17.875C17.212 17 16.5761 16.7366 16.1072 16.2678C15.6384 15.7989 15.375 15.163 15.375 14.5V10.75Z" stroke="black" stroke-linecap="round" stroke-linejoin="round"/>
<path d="M18.5 6.375L19.75 8.25" stroke="black" stroke-linecap="round" stroke-linejoin="round"/>
<path d="M23.5 6.375L22.25 8.25" stroke="black" stroke-linecap="round" stroke-linejoin="round"/>
<path d="M19.125 12.625V11.375" stroke="black" stroke-linecap="round" stroke-linejoin="round"/>
<path d="M22.875 11.375V12.625" stroke="black" stroke-linecap="round" stroke-linejoin="round"/>
<path d="M11.0389 27.4368C11.0695 27.9948 11.0732 28.5618 11.05 29.1377L11.0568 32.0085C10.9667 31.9965 10.8676 31.9905 10.7596 31.9905C10.6516 31.9905 10.5436 31.9905 10.4356 31.9905C10.3276 31.9905 10.2227 31.9935 10.1207 31.9995C10.0247 31.9995 9.94073 31.9995 9.86873 31.9995C9.85369 31.7415 9.8414 31.4625 9.83186 31.1626C9.82831 30.8626 9.8217 30.5566 9.81202 30.2446C9.80834 29.9327 9.79573 29.6267 9.77418 29.3267C9.75864 29.0267 9.73439 28.7507 9.70141 28.4988C9.66019 28.5648 9.61343 28.6697 9.56113 28.8137C9.50876 28.9517 9.45646 29.0957 9.40423 29.2457C9.352 29.3957 9.30256 29.5277 9.2559 29.6417C9.20925 29.7557 9.17392 29.8127 9.14992 29.8127C9.11992 29.8127 9.08357 29.7827 9.04086 29.7227C9.00408 29.6567 8.96412 29.5757 8.92099 29.4797C8.88386 29.3837 8.84365 29.2817 8.80038 29.1737C8.7571 29.0657 8.71994 28.9667 8.68887 28.8767C8.65781 28.7867 8.62993 28.7117 8.60522 28.6517C8.58651 28.5917 8.57715 28.5618 8.57715 28.5618C8.53581 29.1257 8.52454 29.6957 8.54334 30.2716C8.56814 30.8476 8.60183 31.4146 8.64442 31.9725C8.45277 32.0025 8.24291 32.0145 8.01484 32.0085C7.78677 32.0025 7.57673 31.9995 7.38473 31.9995C7.37273 31.9995 7.36363 31.9905 7.35742 31.9725C7.35113 31.9485 7.34446 31.8915 7.3374 31.8015C7.33034 31.7115 7.32274 31.5765 7.31462 31.3966C7.31242 31.2106 7.30955 30.9676 7.30601 30.6676C7.30247 30.3676 7.29808 29.9957 7.29284 29.5517C7.2936 29.1077 7.29037 28.5798 7.28314 27.9678C7.28192 27.3558 7.27949 26.6419 7.27586 25.8259C7.35358 25.8019 7.4434 25.7869 7.54533 25.7809C7.64726 25.7749 7.75226 25.7749 7.86033 25.7809C7.96833 25.7809 8.07637 25.7839 8.18444 25.7899C8.29244 25.7899 8.3974 25.7869 8.49933 25.7809H8.50833C8.56304 25.8409 8.61814 25.9339 8.67362 26.0599C8.72904 26.1799 8.78156 26.3089 8.83119 26.4469C8.88082 26.5849 8.92738 26.7169 8.97087 26.8429C9.02035 26.9689 9.06952 27.0679 9.11837 27.1399C9.13658 27.1578 9.15469 27.1668 9.17269 27.1668C9.19076 27.1728 9.21709 27.1159 9.25167 26.9959C9.29225 26.8759 9.33263 26.7379 9.37278 26.5819C9.41887 26.4199 9.468 26.2609 9.52015 26.1049C9.57831 25.9489 9.63397 25.8349 9.68712 25.7629C9.72919 25.7689 9.80419 25.7689 9.91212 25.7629C10.026 25.7569 10.146 25.7509 10.2719 25.7449C10.4038 25.7389 10.5358 25.7359 10.6678 25.7359C10.8057 25.7299 10.9227 25.7269 11.0187 25.7269C11.0015 26.3029 11.0082 26.8729 11.0389 27.4368ZM14.5784 28.4268C14.6224 28.6007 14.657 28.7387 14.6822 28.8407L15.3944 31.9905L15.3945 31.9995C15.2149 32.0355 15.0171 32.0475 14.8009 32.0355C14.5849 32.0295 14.3806 32.0055 14.1881 31.9635H14.1791C14.142 31.8675 14.1046 31.7535 14.0671 31.6215C14.0355 31.4895 14.0009 31.3546 13.9633 31.2166C13.9317 31.0786 13.8971 30.9466 13.8596 30.8206C13.8221 30.6946 13.7818 30.5866 13.7388 30.4966C13.6606 30.4846 13.6006 30.4786 13.5586 30.4786C13.5166 30.4786 13.4776 30.4786 13.4416 30.4786C13.4116 30.4786 13.3756 30.4816 13.3337 30.4876C13.2977 30.4876 13.2467 30.4876 13.1807 30.4876C13.1398 30.5836 13.1052 30.6976 13.0767 30.8296C13.0542 30.9556 13.0288 31.0906 13.0005 31.2346C12.9781 31.3726 12.9527 31.5075 12.9243 31.6395C12.8958 31.7715 12.8552 31.8885 12.8024 31.9905C12.7964 31.9905 12.7905 31.9935 12.7845 31.9995C12.7845 31.9995 12.7815 31.9995 12.7755 31.9995C12.7277 32.0115 12.6077 32.0115 12.4155 31.9995C12.2234 31.9875 11.9233 31.9845 11.5154 31.9905C11.5094 31.9905 11.5034 31.9875 11.4973 31.9815C11.5088 31.9395 11.5284 31.8225 11.5562 31.6305C11.5839 31.4386 11.623 31.1896 11.6734 30.8836C11.7237 30.5776 11.7826 30.2266 11.8499 29.8307C11.9232 29.4287 12.0081 29.0027 12.1048 28.5528C12.2015 28.1028 12.307 27.6348 12.4213 27.1488C12.5355 26.6629 12.6618 26.1799 12.8002 25.7C12.8421 25.694 12.8871 25.691 12.9351 25.691C12.9831 25.691 13.0461 25.691 13.1241 25.691C13.2021 25.691 13.3011 25.691 13.4211 25.691C13.547 25.685 13.7088 25.673 13.9066 25.655C13.9256 25.7329 13.954 25.8529 13.9919 26.0149C14.0357 26.1709 14.0798 26.3509 14.1243 26.5549C14.1746 26.7529 14.2251 26.9659 14.2758 27.1938C14.3325 27.4218 14.3861 27.6408 14.4366 27.8508C14.487 28.0608 14.5343 28.2528 14.5784 28.4268ZM13.4292 29.4347C13.5432 29.4287 13.6571 29.4257 13.7711 29.4257C13.7051 28.9097 13.6463 28.5078 13.5949 28.2198C13.5495 27.9318 13.5082 27.7368 13.471 27.6348C13.4398 27.5328 13.4066 27.5118 13.3713 27.5718C13.3419 27.6258 13.3132 27.7398 13.2853 27.9138C13.2633 28.0878 13.2359 28.3068 13.2031 28.5708C13.1762 28.8347 13.1435 29.1197 13.1051 29.4257C13.2072 29.4317 13.3152 29.4347 13.4292 29.4347ZM17.161 27.0229C17.0772 27.0409 17.0116 27.0739 16.9642 27.1219C16.9523 27.1339 16.9406 27.1548 16.9289 27.1848C16.9232 27.2088 16.9174 27.2268 16.9116 27.2388C16.8998 27.2568 16.889 27.3618 16.8793 27.5538C16.8756 27.7458 16.8722 27.9738 16.8694 28.2378C16.8665 28.5018 16.8667 28.7777 16.8701 29.0657C16.8735 29.3477 16.8854 29.5937 16.9058 29.8037C16.9259 29.9777 16.9729 30.1486 17.0469 30.3166C17.1268 30.4786 17.2541 30.5836 17.4286 30.6316C17.5608 30.6436 17.6835 30.6256 17.797 30.5776C17.9163 30.5236 18.0053 30.4366 18.0639 30.3166C18.1283 30.1786 18.1536 30.0346 18.1398 29.8847C18.132 29.7287 18.1422 29.5757 18.1704 29.4257C18.2545 29.4377 18.3476 29.4407 18.4495 29.4347C18.5574 29.4287 18.6654 29.4257 18.7734 29.4257C18.8814 29.4257 18.9864 29.4287 19.0885 29.4347C19.1966 29.4407 19.2927 29.4557 19.377 29.4797C19.4827 29.7917 19.5134 30.1036 19.4691 30.4156C19.4247 30.7216 19.3229 30.9976 19.1638 31.2436C19.0047 31.4895 18.7942 31.6935 18.5321 31.8555C18.2759 32.0115 17.9829 32.0925 17.6529 32.0985C17.4373 32.1285 17.2153 32.1285 16.9869 32.0985C16.7587 32.0745 16.545 32.0175 16.3459 31.9275C16.1468 31.8315 15.9772 31.6995 15.8372 31.5315C15.7033 31.3636 15.6228 31.1536 15.5958 30.9016C15.5813 30.6856 15.5696 30.4606 15.5608 30.2266C15.5521 29.9927 15.543 29.7317 15.5336 29.4437C15.5301 29.1497 15.5262 28.8197 15.5219 28.4538C15.5235 28.0818 15.5245 27.6528 15.5247 27.1668C15.5115 27.0649 15.5133 26.9629 15.5301 26.8609C15.5528 26.7529 15.5817 26.6539 15.6166 26.5639C15.6688 26.4079 15.7331 26.2639 15.8095 26.1319C15.8919 25.9999 15.9896 25.8829 16.1024 25.7809C16.1678 25.7329 16.2393 25.694 16.317 25.664C16.3946 25.628 16.4752 25.598 16.5589 25.574C16.8339 25.484 17.1064 25.448 17.3766 25.466C17.6469 25.484 17.8996 25.547 18.1349 25.655C18.3761 25.7569 18.5937 25.8949 18.7878 26.0689C18.9818 26.2429 19.1372 26.4439 19.2539 26.6719C19.3705 26.8939 19.4424 27.1369 19.4695 27.4008C19.4966 27.6648 19.4638 27.9348 19.371 28.2108C19.1496 28.2588 18.9308 28.2768 18.7147 28.2648C18.5045 28.2468 18.2851 28.2168 18.0566 28.1748C18.0373 28.0608 18.0238 27.9318 18.0161 27.7878C18.0144 27.6438 17.9978 27.5118 17.9664 27.3918C17.9349 27.2658 17.8767 27.1638 17.7918 27.0859C17.7128 27.0079 17.5864 26.9719 17.4125 26.9779C17.3346 26.9899 17.2508 27.0049 17.161 27.0229ZM23.2762 25.637C23.3902 25.637 23.4922 25.64 23.5823 25.646L23.8997 31.9455C23.7979 31.9635 23.687 31.9755 23.5671 31.9815C23.4532 31.9875 23.3392 31.9905 23.2252 31.9905C23.1172 31.9905 23.0092 31.9905 22.9012 31.9905C22.7992 31.9905 22.7122 31.9935 22.6403 31.9995H22.6313C22.599 31.8015 22.5756 31.5975 22.5611 31.3876C22.5525 31.1716 22.544 30.9586 22.5355 30.7486C22.5331 30.5386 22.5276 30.3286 22.5191 30.1186C22.5106 29.9087 22.4932 29.7077 22.467 29.5157L22.4579 29.5067C22.2835 29.4767 22.1093 29.4617 21.9353 29.4617C21.7613 29.4617 21.5876 29.4827 21.4141 29.5247C21.3986 29.7347 21.392 29.9417 21.3944 30.1456C21.4028 30.3496 21.4112 30.5536 21.4196 30.7576C21.428 30.9616 21.4304 31.1626 21.4268 31.3606C21.429 31.5525 21.4163 31.7445 21.3886 31.9365C21.317 31.9785 21.2213 31.9995 21.1013 31.9995C20.9813 31.9995 20.8612 31.9935 20.7411 31.9815C20.6209 31.9695 20.5068 31.9605 20.3988 31.9545C20.2967 31.9485 20.2188 31.9605 20.1652 31.9905C20.1512 31.8225 20.1335 31.5945 20.1121 31.3066C20.0966 31.0126 20.0808 30.6856 20.0645 30.3256C20.0482 29.9597 20.0317 29.5727 20.0148 29.1647C20.004 28.7567 19.9932 28.3488 19.9824 27.9408C19.9715 27.5268 19.9638 27.1309 19.9594 26.7529C19.9608 26.3689 19.9628 26.0239 19.9651 25.7179L19.965 25.709H19.974H19.992C20.0823 25.7269 20.1753 25.7329 20.2713 25.7269C20.3732 25.7209 20.4721 25.7149 20.568 25.709C20.67 25.703 20.7689 25.7 20.8649 25.7C20.9609 25.7 21.0511 25.7119 21.1354 25.7359C21.1942 26.1499 21.226 26.5519 21.2306 26.9419C21.2352 27.3318 21.2758 27.7188 21.3523 28.1028H21.3613C21.5117 28.1388 21.6739 28.1508 21.8477 28.1388C22.0215 28.1208 22.1833 28.1058 22.3332 28.0938H22.3422C22.3733 27.6798 22.3867 27.2928 22.3825 26.9329C22.3842 26.5729 22.3736 26.1769 22.3505 25.7449C22.4222 25.7209 22.5089 25.7 22.6107 25.682C22.7185 25.664 22.8294 25.652 22.9433 25.646C23.0572 25.634 23.1681 25.631 23.2762 25.637ZM25.2568 25.673C25.4009 25.679 25.6079 25.679 25.8778 25.673H26.0938L26.0943 25.709C26.1003 26.2249 26.0975 26.7439 26.0856 27.2658C26.0798 27.7878 26.074 28.3128 26.0682 28.8407C26.0684 29.3627 26.0745 29.8847 26.0867 30.4066C26.0989 30.9286 26.123 31.4446 26.159 31.9545C26.1115 32.0025 26.0099 32.0295 25.8539 32.0355C25.7041 32.0475 25.5391 32.0505 25.359 32.0445C25.185 32.0385 25.0169 32.0295 24.8547 32.0175C24.6926 32.0115 24.5817 32.0175 24.5219 32.0355C24.5576 31.4955 24.5692 30.9526 24.5567 30.4066C24.5443 29.8607 24.5259 29.3207 24.5016 28.7867C24.4832 28.2468 24.4679 27.7158 24.4558 27.1938C24.4495 26.6659 24.4705 26.1499 24.5185 25.646L24.5183 25.628C24.5482 25.622 24.6053 25.625 24.6894 25.637C24.7795 25.643 24.8455 25.646 24.8875 25.646C24.9956 25.652 25.1187 25.661 25.2568 25.673ZM30.5407 32.0265C30.4989 32.0385 30.4269 32.0445 30.3249 32.0445C30.2049 32.0445 30.0668 32.0355 29.9106 32.0175C29.7545 32.0055 29.6164 31.9995 29.4964 31.9995C29.2932 31.5555 29.0901 31.1266 28.8872 30.7126C28.6903 30.2926 28.5205 29.8907 28.378 29.5067L28.2848 29.2367C28.26 29.1707 28.2353 29.1107 28.2107 29.0567C28.192 28.9967 28.1766 28.9667 28.1646 28.9667C28.1586 28.9667 28.1504 29.0387 28.1401 29.1827C28.1358 29.3267 28.132 29.5097 28.1286 29.7317C28.1252 29.9537 28.1222 30.1996 28.1193 30.4696C28.1225 30.7396 28.1256 31.0006 28.1286 31.2526C28.1302 31.3906 28.1318 31.5255 28.1334 31.6575C28.1348 31.7835 28.1392 31.8975 28.1464 31.9995C28.0806 32.0175 28.0148 32.0295 27.9488 32.0355C27.8829 32.0415 27.8169 32.0445 27.7509 32.0445C27.6069 32.0445 27.4598 32.0355 27.3096 32.0175C27.1654 31.9995 27.0243 31.9905 26.8863 31.9905L26.8789 31.3606C26.8721 30.7906 26.8597 30.2476 26.8416 29.7317C26.8295 29.2157 26.8202 28.6757 26.8135 28.1118C26.8086 27.6978 26.8098 27.2898 26.8171 26.8879C26.8242 26.4799 26.8406 26.0839 26.866 25.7C26.9259 25.688 26.9888 25.679 27.0547 25.673C27.1266 25.667 27.1986 25.664 27.2706 25.664C27.3066 25.664 27.3666 25.667 27.4507 25.673C27.5347 25.673 27.6188 25.679 27.7029 25.691C27.787 25.697 27.8591 25.706 27.9193 25.7179C27.9854 25.7299 28.0185 25.7419 28.0187 25.7539C28.062 25.8619 28.102 25.9519 28.1389 26.0239C28.1757 26.0959 28.2095 26.1649 28.2403 26.2309C28.2771 26.2969 28.314 26.3719 28.351 26.4559C28.3939 26.5339 28.4431 26.6359 28.4986 26.7619C28.5109 26.7919 28.5386 26.8489 28.5816 26.9329C28.6246 27.0169 28.6738 27.1159 28.7291 27.2298C28.7844 27.3378 28.8428 27.4548 28.9042 27.5808C28.9657 27.7008 29.021 27.8118 29.0702 27.9138C29.1253 28.0098 29.1713 28.0938 29.2081 28.1658C29.2449 28.2318 29.2663 28.2648 29.2723 28.2648C29.2902 28.2528 29.3045 28.1928 29.3152 28.0848C29.3259 27.9768 29.3307 27.8718 29.3295 27.7698C29.3266 27.5298 29.318 27.3078 29.3036 27.1039C29.2951 26.8939 29.2896 26.6809 29.2871 26.4649C29.2856 26.3389 29.2841 26.2129 29.2826 26.0869C29.287 25.9549 29.2914 25.8139 29.2956 25.664C29.4992 25.628 29.715 25.61 29.943 25.61C30.165 25.61 30.3632 25.628 30.5376 25.664L30.5718 28.5618C30.5808 28.8137 30.5868 29.0687 30.5898 29.3267C30.5929 29.5847 30.5959 29.8427 30.599 30.1006C30.601 30.2746 30.6 30.4426 30.5959 30.6046C30.5978 30.7666 30.5998 30.9316 30.6018 31.0996C30.6032 31.2196 30.6046 31.3396 30.606 31.4595C30.6134 31.5795 30.6179 31.6995 30.6193 31.8195L30.6214 31.9995C30.6095 32.0055 30.5826 32.0145 30.5407 32.0265ZM33.9553 30.7666C34.3395 30.7846 34.7355 30.7876 35.1434 30.7756L35.1436 30.7936C35.1579 30.9856 35.1632 31.1866 35.1597 31.3966C35.1561 31.6005 35.1314 31.7925 35.0855 31.9725C34.4734 31.9665 33.8495 31.9755 33.2138 31.9995C32.584 32.0175 31.9779 32.0025 31.3953 31.9545C31.3891 31.4326 31.377 30.9166 31.359 30.4066C31.3409 29.8907 31.3259 29.3777 31.3139 28.8677C31.3018 28.3578 31.2958 27.8478 31.2958 27.3378C31.2958 26.8279 31.3077 26.3149 31.3316 25.7989C31.5655 25.7869 31.8174 25.7779 32.0873 25.7719C32.3632 25.7599 32.6391 25.7509 32.915 25.7449C33.1909 25.7389 33.4578 25.7329 33.7158 25.7269C33.9737 25.7209 34.2017 25.7179 34.3997 25.7179C34.5977 25.7179 34.7567 25.7209 34.8768 25.7269C34.9968 25.7329 35.0569 25.7389 35.057 25.7449C35.0895 25.9549 35.098 26.1679 35.0825 26.3839C35.0731 26.5999 35.0696 26.8129 35.0721 27.0229L35.0722 27.0319C34.8807 27.0739 34.686 27.1009 34.4881 27.1129C34.2962 27.1189 34.1012 27.1219 33.9032 27.1219C33.7052 27.1159 33.5071 27.1129 33.3091 27.1129C33.1111 27.1129 32.9132 27.1219 32.7155 27.1399H32.6885L32.6796 27.1488C32.6876 27.3228 32.6807 27.5028 32.6589 27.6888C32.6431 27.8688 32.6571 28.0398 32.701 28.2018L32.7101 28.2108C32.8902 28.2228 33.0733 28.2288 33.2593 28.2288C33.4453 28.2288 33.6313 28.2318 33.8174 28.2378L33.8175 28.2468C33.8499 28.4508 33.8613 28.6547 33.8517 28.8587C33.8422 29.0627 33.8417 29.2757 33.8503 29.4977C33.7606 29.5217 33.6587 29.5367 33.5448 29.5427C33.4308 29.5427 33.3198 29.5427 33.2118 29.5427C33.1098 29.5427 33.0169 29.5457 32.9329 29.5517C32.849 29.5577 32.7922 29.5727 32.7625 29.5967C32.7345 29.7707 32.7248 29.9657 32.7334 30.1816C32.7479 30.3976 32.762 30.5776 32.7757 30.7216L32.7848 30.7306C33.1808 30.7306 33.571 30.7426 33.9553 30.7666Z" fill="black"/>
<path d="M3.19085 18.655C3.84478 18.649 4.48113 18.679 5.09991 18.7449C5.11425 18.9429 5.11994 19.1709 5.11699 19.4289C5.12003 19.6869 5.10783 19.9239 5.08038 20.1399C4.9661 20.1159 4.82499 20.1069 4.65706 20.1129C4.48913 20.1189 4.26424 20.1279 3.98238 20.1399H3.96438H3.95538C3.95545 20.1459 3.95252 20.1518 3.94659 20.1578C3.94659 20.1578 3.94663 20.1608 3.9467 20.1668C3.94105 20.1968 3.93562 20.2448 3.9304 20.3108C3.93111 20.3708 3.93227 20.4698 3.9339 20.6078C3.93546 20.7398 3.93755 20.9168 3.94017 21.1388C3.94872 21.3548 3.95805 21.6367 3.96816 21.9847C3.97819 22.3267 3.98908 22.7407 4.00082 23.2266C4.01248 23.7066 4.02817 24.2736 4.04789 24.9275L4.048 24.9365L4.04811 24.9455C3.94032 24.9635 3.82046 24.9755 3.68853 24.9815C3.56253 24.9815 3.43353 24.9815 3.30153 24.9815C3.17553 24.9815 3.04953 24.9815 2.92353 24.9815C2.79753 24.9815 2.68064 24.9905 2.57285 25.0085C2.56657 24.9845 2.56529 24.8765 2.56902 24.6845C2.57276 24.4925 2.57239 24.2076 2.56793 23.8296C2.5694 23.4456 2.56063 22.9567 2.54162 22.3627C2.52861 21.7687 2.49914 21.0518 2.45323 20.2118L2.44412 20.2028C2.3717 20.1668 2.28145 20.1459 2.17338 20.1399C2.06524 20.1279 1.95717 20.1219 1.84917 20.1219C1.7411 20.1159 1.64206 20.1129 1.55206 20.1129C1.46206 20.1129 1.39899 20.1069 1.36285 20.0949C1.35056 20.0709 1.33786 20.0109 1.32472 19.9149C1.31759 19.8189 1.31024 19.7049 1.30269 19.5729C1.30106 19.4349 1.29932 19.2879 1.29748 19.1319C1.29564 18.9759 1.29987 18.8259 1.31017 18.682C1.3101 18.676 1.30706 18.673 1.30106 18.673C1.30106 18.673 1.30103 18.67 1.30096 18.664C1.91289 18.658 2.54285 18.655 3.19085 18.655ZM8.24042 23.7666C8.62464 23.7846 9.02067 23.7876 9.42853 23.7756L9.42874 23.7936C9.44301 23.9856 9.44838 24.1866 9.44486 24.3966C9.44127 24.6005 9.41653 24.7925 9.37066 24.9725C8.75859 24.9665 8.13469 24.9755 7.49898 24.9995C6.86919 25.0175 6.26301 25.0025 5.68045 24.9545C5.67428 24.4326 5.66219 23.9166 5.64417 23.4066C5.62608 22.8907 5.61103 22.3777 5.59901 21.8677C5.58699 21.3578 5.58097 20.8478 5.58095 20.3378C5.58093 19.8279 5.59288 19.3149 5.61678 18.7989C5.85064 18.7869 6.10254 18.7779 6.37247 18.7719C6.64832 18.7599 6.92422 18.7509 7.20015 18.7449C7.47608 18.7389 7.74301 18.7329 8.00093 18.7269C8.25886 18.7209 8.48683 18.7179 8.68483 18.7179C8.88283 18.7179 9.04186 18.7209 9.16193 18.7269C9.28201 18.7329 9.34208 18.7389 9.34215 18.7449C9.37463 18.9549 9.38314 19.1679 9.36769 19.3839C9.35824 19.5999 9.35475 19.8129 9.35723 20.0229L9.35734 20.0319C9.16583 20.0739 8.97115 20.1009 8.77329 20.1129C8.58136 20.1189 8.3864 20.1219 8.1884 20.1219C7.99033 20.1159 7.79229 20.1129 7.59429 20.1129C7.39629 20.1129 7.1984 20.1219 7.00061 20.1399H6.97361L6.96472 20.1488C6.97277 20.3228 6.9659 20.5028 6.94409 20.6888C6.92822 20.8688 6.94224 21.0398 6.98615 21.2018L6.99525 21.2108C7.1754 21.2228 7.35847 21.2288 7.54447 21.2288C7.73047 21.2288 7.9165 21.2318 8.10257 21.2378L8.10268 21.2468C8.13509 21.4508 8.14649 21.6547 8.1369 21.8587C8.12731 22.0627 8.12682 22.2757 8.13545 22.4977C8.04573 22.5217 7.94391 22.5367 7.82998 22.5427C7.71598 22.5427 7.60498 22.5427 7.49698 22.5427C7.39498 22.5427 7.30201 22.5457 7.21808 22.5517C7.13415 22.5577 7.07733 22.5727 7.04761 22.5967C7.01967 22.7707 7.00997 22.9657 7.01852 23.1816C7.03307 23.3976 7.04719 23.5776 7.06089 23.7216L7.07 23.7306C7.466 23.7306 7.85614 23.7426 8.24042 23.7666ZM12.7258 21.4268C12.7699 21.6007 12.8045 21.7387 12.8297 21.8407L13.5419 24.9905L13.542 24.9995C13.3624 25.0355 13.1646 25.0475 12.9484 25.0355C12.7323 25.0295 12.5281 25.0055 12.3356 24.9635H12.3266C12.2894 24.8675 12.2521 24.7535 12.2145 24.6215C12.183 24.4895 12.1484 24.3546 12.1107 24.2166C12.0791 24.0786 12.0446 23.9466 12.0071 23.8206C11.9696 23.6946 11.9293 23.5866 11.8862 23.4966C11.8081 23.4846 11.748 23.4786 11.706 23.4786C11.664 23.4786 11.625 23.4786 11.589 23.4786C11.559 23.4786 11.5231 23.4816 11.4811 23.4876C11.4451 23.4876 11.3941 23.4876 11.3281 23.4876C11.2873 23.5836 11.2526 23.6976 11.2242 23.8296C11.2017 23.9556 11.1763 24.0906 11.148 24.2346C11.1256 24.3726 11.1002 24.5075 11.0717 24.6395C11.0433 24.7715 11.0027 24.8885 10.9499 24.9905C10.9439 24.9905 10.9379 24.9935 10.932 24.9995C10.932 24.9995 10.929 24.9995 10.923 24.9995C10.8751 25.0115 10.7551 25.0115 10.563 24.9995C10.3708 24.9875 10.0708 24.9845 9.66288 24.9905C9.65688 24.9905 9.65084 24.9875 9.64477 24.9815C9.65628 24.9395 9.6759 24.8225 9.70363 24.6305C9.73136 24.4386 9.77042 24.1896 9.82081 23.8836C9.8712 23.5776 9.93006 23.2266 9.99738 22.8307C10.0706 22.4287 10.1556 22.0027 10.2523 21.5528C10.349 21.1028 10.4545 20.6348 10.5687 20.1488C10.683 19.6629 10.8093 19.1799 10.9476 18.7C10.9896 18.694 11.0345 18.691 11.0825 18.691C11.1305 18.691 11.1935 18.691 11.2715 18.691C11.3495 18.691 11.4485 18.691 11.5685 18.691C11.6944 18.685 11.8563 18.673 12.0541 18.655C12.073 18.7329 12.1014 18.8529 12.1393 19.0149C12.1832 19.1709 12.2273 19.3509 12.2717 19.5549C12.3221 19.7529 12.3726 19.9659 12.4233 20.1938C12.4799 20.4218 12.5335 20.6408 12.584 20.8508C12.6345 21.0608 12.6818 21.2528 12.7258 21.4268ZM11.5767 22.4347C11.6906 22.4287 11.8046 22.4257 11.9186 22.4257C11.8525 21.9097 11.7938 21.5078 11.7424 21.2198C11.697 20.9318 11.6557 20.7368 11.6185 20.6348C11.5873 20.5328 11.554 20.5118 11.5187 20.5718C11.4894 20.6258 11.4607 20.7398 11.4328 20.9138C11.4108 21.0878 11.3834 21.3068 11.3505 21.5708C11.3236 21.8347 11.291 22.1197 11.2526 22.4257C11.3547 22.4317 11.4627 22.4347 11.5767 22.4347ZM15.3085 20.0229C15.2247 20.0409 15.1591 20.0739 15.1117 20.1219C15.0998 20.1339 15.088 20.1548 15.0764 20.1848C15.0707 20.2088 15.0649 20.2268 15.059 20.2388C15.0472 20.2568 15.0365 20.3618 15.0267 20.5538C15.023 20.7458 15.0197 20.9738 15.0168 21.2378C15.0139 21.5018 15.0142 21.7777 15.0176 22.0657C15.0209 22.3477 15.0328 22.5937 15.0533 22.8037C15.0734 22.9777 15.1204 23.1486 15.1944 23.3166C15.2743 23.4786 15.4015 23.5836 15.5761 23.6316C15.7082 23.6436 15.831 23.6256 15.9444 23.5776C16.0638 23.5236 16.1528 23.4366 16.2114 23.3166C16.2757 23.1786 16.301 23.0346 16.2873 22.8847C16.2794 22.7287 16.2896 22.5757 16.3178 22.4257C16.402 22.4377 16.495 22.4407 16.597 22.4347C16.7049 22.4287 16.8128 22.4257 16.9208 22.4257C17.0288 22.4257 17.1339 22.4287 17.236 22.4347C17.344 22.4407 17.4402 22.4557 17.5245 22.4797C17.6302 22.7917 17.6608 23.1036 17.6165 23.4156C17.5721 23.7216 17.4704 23.9976 17.3113 24.2436C17.1522 24.4895 16.9416 24.6935 16.6795 24.8555C16.4234 25.0115 16.1303 25.0925 15.8004 25.0985C15.5847 25.1285 15.3627 25.1285 15.1344 25.0985C14.9061 25.0745 14.6924 25.0175 14.4934 24.9275C14.2942 24.8315 14.1247 24.6995 13.9847 24.5315C13.8507 24.3636 13.7702 24.1536 13.7433 23.9016C13.7287 23.6856 13.7171 23.4606 13.7083 23.2266C13.6995 22.9927 13.6905 22.7317 13.6811 22.4437C13.6776 22.1497 13.6737 21.8197 13.6694 21.4538C13.671 21.0818 13.6719 20.6528 13.6722 20.1668C13.659 20.0649 13.6608 19.9629 13.6776 19.8609C13.7003 19.7529 13.7291 19.6539 13.7641 19.5639C13.8162 19.4079 13.8805 19.2639 13.957 19.1319C14.0394 18.9999 14.137 18.8829 14.2498 18.7809C14.3153 18.7329 14.3868 18.694 14.4644 18.664C14.542 18.628 14.6227 18.598 14.7064 18.574C14.9813 18.484 15.2539 18.448 15.5241 18.466C15.7943 18.484 16.0471 18.547 16.2823 18.655C16.5235 18.7569 16.7412 18.8949 16.9352 19.0689C17.1293 19.2429 17.2846 19.4439 17.4013 19.6719C17.518 19.8939 17.5898 20.1369 17.6169 20.4008C17.6441 20.6648 17.6112 20.9348 17.5185 21.2108C17.2971 21.2588 17.0783 21.2768 16.8621 21.2648C16.6519 21.2468 16.4326 21.2168 16.2041 21.1748C16.1847 21.0608 16.1712 20.9318 16.1635 20.7878C16.1618 20.6438 16.1453 20.5118 16.1138 20.3918C16.0824 20.2658 16.0241 20.1638 15.9392 20.0859C15.8603 20.0079 15.7339 19.9719 15.56 19.9779C15.4821 19.9899 15.3983 20.0049 15.3085 20.0229ZM21.4237 18.637C21.5377 18.637 21.6397 18.64 21.7298 18.646L22.0471 24.9455C21.9453 24.9635 21.8345 24.9755 21.7145 24.9815C21.6006 24.9875 21.4867 24.9905 21.3727 24.9905C21.2647 24.9905 21.1567 24.9905 21.0487 24.9905C20.9467 24.9905 20.8597 24.9935 20.7878 24.9995H20.7788C20.7464 24.8015 20.723 24.5975 20.7085 24.3876C20.7 24.1716 20.6915 23.9586 20.683 23.7486C20.6805 23.5386 20.675 23.3286 20.6666 23.1186C20.6581 22.9087 20.6407 22.7077 20.6144 22.5157L20.6053 22.5067C20.431 22.4767 20.2568 22.4617 20.0828 22.4617C19.9088 22.4617 19.735 22.4827 19.5615 22.5247C19.546 22.7347 19.5395 22.9417 19.5419 23.1456C19.5503 23.3496 19.5587 23.5536 19.5671 23.7576C19.5755 23.9616 19.5779 24.1626 19.5742 24.3606C19.5765 24.5525 19.5637 24.7445 19.536 24.9365C19.4645 24.9785 19.3688 24.9995 19.2488 24.9995C19.1288 24.9995 19.0087 24.9935 18.8885 24.9815C18.7684 24.9695 18.6543 24.9605 18.5462 24.9545C18.4442 24.9485 18.3663 24.9605 18.3127 24.9905C18.2987 24.8225 18.281 24.5945 18.2596 24.3066C18.2441 24.0126 18.2282 23.6856 18.212 23.3256C18.1957 22.9597 18.1791 22.5727 18.1623 22.1647C18.1515 21.7567 18.1407 21.3488 18.1298 20.9408C18.119 20.5268 18.1113 20.1309 18.1068 19.7529C18.1083 19.3689 18.1102 19.0239 18.1126 18.7179L18.1125 18.709H18.1215H18.1395C18.2297 18.7269 18.3228 18.7329 18.4187 18.7269C18.5206 18.7209 18.6196 18.7149 18.7155 18.709C18.8174 18.703 18.9164 18.7 19.0124 18.7C19.1084 18.7 19.1985 18.7119 19.2828 18.7359C19.3417 19.1499 19.3735 19.5519 19.3781 19.9419C19.3827 20.3318 19.4232 20.7188 19.4998 21.1028H19.5088C19.6592 21.1388 19.8213 21.1508 19.9952 21.1388C20.169 21.1208 20.3308 21.1058 20.4807 21.0938H20.4897C20.5208 20.6798 20.5342 20.2928 20.53 19.9329C20.5317 19.5729 20.521 19.1769 20.4979 18.7449C20.5696 18.7209 20.6564 18.7 20.7582 18.682C20.866 18.664 20.9768 18.652 21.0908 18.646C21.2046 18.634 21.3156 18.631 21.4237 18.637ZM25.4348 21.4268C25.4788 21.6007 25.5135 21.7387 25.5387 21.8407L26.2509 24.9905L26.251 24.9995C26.0714 25.0355 25.8735 25.0475 25.6574 25.0355C25.4413 25.0295 25.237 25.0055 25.0445 24.9635H25.0355C24.9984 24.8675 24.9611 24.7535 24.9235 24.6215C24.8919 24.4895 24.8574 24.3546 24.8197 24.2166C24.7881 24.0786 24.7535 23.9466 24.7161 23.8206C24.6786 23.6946 24.6383 23.5866 24.5952 23.4966C24.5171 23.4846 24.457 23.4786 24.415 23.4786C24.373 23.4786 24.334 23.4786 24.298 23.4786C24.268 23.4786 24.2321 23.4816 24.1901 23.4876C24.1541 23.4876 24.1031 23.4876 24.0371 23.4876C23.9963 23.5836 23.9616 23.6976 23.9332 23.8296C23.9106 23.9556 23.8852 24.0906 23.8569 24.2346C23.8346 24.3726 23.8092 24.5075 23.7807 24.6395C23.7523 24.7715 23.7117 24.8885 23.6589 24.9905C23.6529 24.9905 23.6469 24.9935 23.641 24.9995C23.641 24.9995 23.638 24.9995 23.632 24.9995C23.5841 25.0115 23.4641 25.0115 23.272 24.9995C23.0798 24.9875 22.7798 24.9845 22.3719 24.9905C22.3659 24.9905 22.3598 24.9875 22.3538 24.9815C22.3653 24.9395 22.3849 24.8225 22.4126 24.6305C22.4403 24.4386 22.4794 24.1896 22.5298 23.8836C22.5802 23.5776 22.639 23.2266 22.7064 22.8307C22.7796 22.4287 22.8646 22.0027 22.9613 21.5528C23.058 21.1028 23.1634 20.6348 23.2777 20.1488C23.392 19.6629 23.5183 19.1799 23.6566 18.7C23.6985 18.694 23.7435 18.691 23.7915 18.691C23.8395 18.691 23.9025 18.691 23.9805 18.691C24.0585 18.691 24.1575 18.691 24.2775 18.691C24.4034 18.685 24.5653 18.673 24.7631 18.655C24.782 18.7329 24.8104 18.8529 24.8483 19.0149C24.8922 19.1709 24.9363 19.3509 24.9807 19.5549C25.031 19.7529 25.0816 19.9659 25.1322 20.1938C25.1889 20.4218 25.2425 20.6408 25.293 20.8508C25.3435 21.0608 25.3907 21.2528 25.4348 21.4268ZM24.2857 22.4347C24.3996 22.4287 24.5136 22.4257 24.6276 22.4257C24.5615 21.9097 24.5028 21.5078 24.4514 21.2198C24.406 20.9318 24.3647 20.7368 24.3274 20.6348C24.2962 20.5328 24.263 20.5118 24.2277 20.5718C24.1983 20.6258 24.1697 20.7398 24.1417 20.9138C24.1198 21.0878 24.0924 21.3068 24.0595 21.5708C24.0326 21.8347 24 22.1197 23.9616 22.4257C24.0637 22.4317 24.1717 22.4347 24.2857 22.4347ZM29.6761 21.9307C29.6884 21.9547 29.7097 21.9847 29.7402 22.0207C29.8376 22.1407 29.929 22.2607 30.0144 22.3807C30.1057 22.4947 30.1822 22.6177 30.2438 22.7497C30.3112 22.8757 30.3579 23.0167 30.3837 23.1726C30.4096 23.3286 30.4056 23.5026 30.3719 23.6946C30.3272 23.9766 30.237 24.2076 30.1011 24.3876C29.9711 24.5615 29.8107 24.6965 29.6199 24.7925C29.429 24.8885 29.2168 24.9545 28.9832 24.9905C28.7496 25.0205 28.5067 25.0355 28.2547 25.0355C28.0088 25.0415 27.7597 25.0355 27.5075 25.0175C27.2613 24.9995 27.0302 24.9875 26.8141 24.9815C26.7781 24.9815 26.7421 24.9815 26.7061 24.9815C26.6761 24.9815 26.646 24.9755 26.6159 24.9635C26.5676 23.9256 26.5465 22.8967 26.5525 21.8767C26.5583 20.8508 26.5461 19.8159 26.5158 18.7719L26.5247 18.7629C26.7639 18.697 27.0183 18.646 27.2879 18.61C27.5575 18.574 27.8243 18.562 28.0885 18.574C28.3526 18.586 28.6051 18.625 28.8458 18.691C29.0926 18.7569 29.3099 18.8649 29.4977 19.0149C29.6854 19.1589 29.8346 19.3479 29.9454 19.5819C30.0561 19.8099 30.1134 20.0919 30.1173 20.4278C30.1203 20.6798 30.0782 20.9258 29.9911 21.1658C29.9099 21.4058 29.8105 21.6277 29.6929 21.8317C29.6694 21.8737 29.6638 21.9067 29.6761 21.9307ZM28.6977 23.6766C28.7813 23.6406 28.8526 23.5866 28.9118 23.5146C28.9767 23.4246 29.0054 23.3166 28.998 23.1906C28.9965 23.0646 28.9741 22.9507 28.9309 22.8487C28.8941 22.7767 28.8393 22.7137 28.7667 22.6597C28.694 22.5997 28.6185 22.5607 28.5403 22.5427C28.426 22.5127 28.3088 22.4977 28.1888 22.4977C28.0687 22.4917 27.9516 22.4827 27.8375 22.4707C27.8145 22.5607 27.7947 22.6627 27.7781 22.7767C27.7614 22.8907 27.7508 23.0077 27.7462 23.1276C27.7476 23.2416 27.7579 23.3526 27.7771 23.4606C27.7964 23.5686 27.8305 23.6586 27.8793 23.7306L27.8974 23.7396C27.9814 23.7396 28.0685 23.7426 28.1585 23.7486C28.2545 23.7486 28.3475 23.7456 28.4374 23.7396C28.5333 23.7276 28.6201 23.7066 28.6977 23.6766ZM28.677 21.1568C28.7604 21.1088 28.8256 21.0398 28.8725 20.9498C28.9137 20.8778 28.9487 20.7938 28.9775 20.6978C29.0064 20.6018 28.9963 20.5058 28.9471 20.4098C28.898 20.3138 28.8342 20.2418 28.7556 20.1938C28.6829 20.1399 28.5985 20.1009 28.5022 20.0769C28.3819 20.0529 28.2528 20.0409 28.1148 20.0409C27.9827 20.0349 27.872 20.0559 27.7825 20.1039C27.7962 20.2418 27.7921 20.4098 27.7705 20.6078C27.7548 20.8058 27.7752 21.0098 27.8317 21.2198C27.9218 21.2318 28.0179 21.2408 28.12 21.2468C28.2221 21.2528 28.3211 21.2498 28.4169 21.2378C28.5128 21.2258 28.5994 21.1988 28.677 21.1568ZM34.6018 24.0186C34.6025 24.0786 34.6061 24.1326 34.6127 24.1806C34.6273 24.3966 34.6352 24.5615 34.6366 24.6755C34.6378 24.7835 34.6298 24.8645 34.6124 24.9185C34.601 24.9665 34.5773 24.9935 34.5414 24.9995C34.5054 24.9995 34.4544 24.9995 34.3884 24.9995C34.3223 24.9935 34.2353 24.9935 34.1274 24.9995C34.0254 25.0055 33.8485 25.0115 33.5966 25.0175C33.3507 25.0235 33.0087 25.0265 32.5707 25.0265C32.1387 25.0265 31.5596 25.0205 30.8335 25.0085L30.8316 24.8465C30.8443 24.3966 30.8545 23.9916 30.8622 23.6316C30.8699 23.2656 30.8719 22.9267 30.8682 22.6147C30.8705 22.2967 30.8699 21.9907 30.8664 21.6967C30.8629 21.4028 30.8564 21.1028 30.8468 20.7968C30.8372 20.4908 30.8273 20.1668 30.8173 19.8249C30.8072 19.4769 30.7967 19.0929 30.7857 18.673C30.8454 18.649 30.9382 18.631 31.0641 18.619C31.1898 18.601 31.3247 18.592 31.4687 18.592C31.6127 18.592 31.7538 18.601 31.8921 18.619C32.0303 18.637 32.1416 18.664 32.226 18.7C32.2186 19.0899 32.2174 19.4919 32.2222 19.9059C32.2331 20.3138 32.2439 20.7248 32.2548 21.1388C32.2657 21.5528 32.2736 21.9667 32.2785 22.3807C32.2893 22.7887 32.294 23.1846 32.2925 23.5686L32.2926 23.5776C32.3344 23.5656 32.4124 23.5626 32.5265 23.5686C32.6465 23.5686 32.7845 23.5716 32.9406 23.5776C33.0967 23.5836 33.2618 23.5926 33.4359 23.6046C33.616 23.6106 33.7841 23.6166 33.9401 23.6226C34.1022 23.6286 34.2433 23.6346 34.3633 23.6406C34.4893 23.6406 34.5763 23.6376 34.6242 23.6316C34.625 23.6976 34.6228 23.7636 34.6176 23.8296C34.6123 23.8896 34.607 23.9526 34.6018 24.0186ZM37.6223 23.7666C38.0065 23.7846 38.4025 23.7876 38.8104 23.7756L38.8106 23.7936C38.8248 23.9856 38.8302 24.1866 38.8267 24.3966C38.8231 24.6005 38.7984 24.7925 38.7525 24.9725C38.1404 24.9665 37.5165 24.9755 36.8808 24.9995C36.251 25.0175 35.6448 25.0025 35.0623 24.9545C35.0561 24.4326 35.044 23.9166 35.026 23.4066C35.0079 22.8907 34.9929 22.3777 34.9808 21.8677C34.9688 21.3578 34.9628 20.8478 34.9628 20.3378C34.9628 19.8279 34.9747 19.3149 34.9986 18.7989C35.2325 18.7869 35.4844 18.7779 35.7543 18.7719C36.0302 18.7599 36.3061 18.7509 36.582 18.7449C36.8579 18.7389 37.1248 18.7329 37.3828 18.7269C37.6407 18.7209 37.8687 18.7179 38.0667 18.7179C38.2647 18.7179 38.4237 18.7209 38.5438 18.7269C38.6638 18.7329 38.7239 18.7389 38.724 18.7449C38.7565 18.9549 38.765 19.1679 38.7495 19.3839C38.7401 19.5999 38.7366 19.8129 38.7391 20.0229L38.7392 20.0319C38.5477 20.0739 38.353 20.1009 38.1551 20.1129C37.9632 20.1189 37.7682 20.1219 37.5702 20.1219C37.3722 20.1159 37.1741 20.1129 36.9761 20.1129C36.7781 20.1129 36.5802 20.1219 36.3824 20.1399H36.3554L36.3466 20.1488C36.3546 20.3228 36.3477 20.5028 36.3259 20.6888C36.3101 20.8688 36.3241 21.0398 36.368 21.2018L36.3771 21.2108C36.5572 21.2228 36.7403 21.2288 36.9263 21.2288C37.1123 21.2288 37.2983 21.2318 37.4844 21.2378L37.4845 21.2468C37.5169 21.4508 37.5283 21.6547 37.5187 21.8587C37.5091 22.0627 37.5087 22.2757 37.5173 22.4977C37.4276 22.5217 37.3257 22.5367 37.2118 22.5427C37.0978 22.5427 36.9868 22.5427 36.8788 22.5427C36.7768 22.5427 36.6838 22.5457 36.5999 22.5517C36.516 22.5577 36.4592 22.5727 36.4294 22.5967C36.4015 22.7707 36.3918 22.9657 36.4004 23.1816C36.4149 23.3976 36.429 23.5776 36.4427 23.7216L36.4518 23.7306C36.8478 23.7306 37.238 23.7426 37.6223 23.7666Z" fill="black"/>
</svg>
