<svg width="45" height="38" viewBox="0 0 45 38" fill="none" xmlns="http://www.w3.org/2000/svg">
<path d="M7.70883 32.2898C7.7097 32.3631 7.71402 32.4464 7.72178 32.5398C7.75488 32.5198 7.79461 32.4964 7.84096 32.4698C7.89398 32.4431 7.93699 32.4164 7.97001 32.3898C8.10883 32.2898 8.26456 32.2098 8.43718 32.1498C8.60981 32.0898 8.78608 32.0565 8.966 32.0498C9.15259 32.0431 9.33282 32.0631 9.50671 32.1098C9.68059 32.1564 9.83824 32.2398 9.97966 32.3598C10.0134 32.3931 10.0474 32.4498 10.0817 32.5298C10.1148 32.5098 10.1545 32.4898 10.201 32.4698C10.2473 32.4431 10.287 32.4164 10.32 32.3898C10.4588 32.2898 10.6146 32.2098 10.7872 32.1498C10.9598 32.0898 11.1361 32.0565 11.316 32.0498C11.5026 32.0431 11.6828 32.0631 11.8567 32.1098C12.0306 32.1564 12.1882 32.2398 12.3297 32.3598C12.397 32.4198 12.4485 32.5464 12.4841 32.7397C12.5263 32.9264 12.5524 33.153 12.5622 33.4197C12.5787 33.6863 12.5854 33.9797 12.5826 34.2996C12.5863 34.6129 12.5867 34.9329 12.5839 35.2596C12.581 35.5795 12.578 35.8895 12.5749 36.1895C12.5717 36.4895 12.5782 36.7528 12.5942 36.9794C12.3613 37.0128 12.1514 37.0261 11.9647 37.0194C11.7847 37.0194 11.578 37.0194 11.3447 37.0194C11.3295 36.8661 11.3208 36.6928 11.3185 36.4995C11.3162 36.3062 11.3139 36.1062 11.3114 35.8995C11.3157 35.6929 11.3132 35.4862 11.3041 35.2796C11.3017 35.0729 11.2927 34.8796 11.2773 34.6996C11.2697 34.6196 11.262 34.5329 11.2542 34.4396C11.2464 34.3396 11.2319 34.243 11.2108 34.1496C11.1964 34.0563 11.172 33.973 11.1378 33.8997C11.1103 33.8263 11.0696 33.7697 11.0158 33.7297C11.0091 33.723 11.0024 33.7197 10.9957 33.7197C10.989 33.7197 10.9823 33.7163 10.9756 33.7097C10.9354 33.6897 10.8852 33.673 10.825 33.6597C10.7648 33.6463 10.6981 33.6397 10.6248 33.6397C10.5581 33.6397 10.4883 33.653 10.4152 33.6797C10.3488 33.6997 10.2859 33.733 10.2264 33.7797C10.2362 34.0396 10.2394 34.3163 10.2362 34.6096C10.2329 34.8963 10.2297 35.1829 10.2264 35.4695C10.223 35.7495 10.2196 36.0228 10.216 36.2895C10.2191 36.5495 10.2285 36.7795 10.2442 36.9794C10.0113 37.0128 9.80141 37.0261 9.61466 37.0194C9.43466 37.0194 9.228 37.0194 8.99466 37.0194C8.97952 36.8661 8.97081 36.6928 8.96853 36.4995C8.96624 36.3062 8.96388 36.1062 8.96144 35.8995C8.96567 35.6929 8.96323 35.4862 8.95413 35.2796C8.95169 35.0729 8.94274 34.8796 8.92728 34.6996C8.91967 34.6196 8.91198 34.5329 8.90421 34.4396C8.89636 34.3396 8.88189 34.243 8.86079 34.1496C8.84635 34.0563 8.82204 33.973 8.78784 33.8997C8.7603 33.8263 8.71964 33.7697 8.66583 33.7297C8.65908 33.723 8.65238 33.7197 8.64571 33.7197C8.63905 33.7197 8.63234 33.7163 8.62559 33.7097C8.57195 33.683 8.49171 33.663 8.38489 33.6497C8.28465 33.6297 8.18473 33.6363 8.08512 33.6697C7.98544 33.6963 7.89614 33.7563 7.81725 33.8497C7.73827 33.9363 7.69318 34.0696 7.68197 34.2496C7.67139 34.483 7.67077 34.7129 7.68011 34.9396C7.68938 35.1596 7.69868 35.3829 7.70802 35.6095C7.72395 35.8295 7.73321 36.0495 7.73581 36.2695C7.73841 36.4895 7.72767 36.7095 7.7036 36.9294L7.70407 36.9694C7.59113 37.0028 7.49137 37.0228 7.40478 37.0294C7.32486 37.0361 7.24153 37.0361 7.15478 37.0294C7.06811 37.0294 6.97141 37.0261 6.86466 37.0194C6.75792 37.0128 6.62462 37.0161 6.46478 37.0294C6.4551 36.2095 6.43542 35.3896 6.40574 34.5696C6.38273 33.7497 6.37937 32.8997 6.39565 32.0198C6.47572 32.0265 6.54247 32.0331 6.59588 32.0398C6.64922 32.0398 6.69922 32.0398 6.74588 32.0398C6.79255 32.0398 6.84255 32.0398 6.89588 32.0398C6.94914 32.0331 7.01572 32.0265 7.09565 32.0198C7.12231 32.0198 7.16894 32.0165 7.23553 32.0098C7.30204 31.9965 7.36859 31.9865 7.43517 31.9798C7.50176 31.9731 7.56176 31.9731 7.61517 31.9798C7.66851 31.9798 7.69529 31.9898 7.69553 32.0098C7.7102 32.1231 7.71463 32.2164 7.70883 32.2898ZM16.6912 31.9898C16.858 31.9965 17.0481 32.0065 17.2616 32.0198C17.2687 32.0598 17.2725 32.0998 17.273 32.1398C17.2801 32.1798 17.2839 32.2198 17.2844 32.2598L17.2856 32.3598C17.2741 33.0797 17.2858 33.7897 17.3207 34.4896C17.3556 35.1829 17.3539 35.8862 17.3156 36.5995C17.3167 36.6861 17.3144 36.7728 17.3087 36.8595C17.3097 36.9461 17.2703 36.9961 17.1905 37.0094H17.0705C16.9638 37.0094 16.8538 37.0061 16.7404 36.9994C16.6335 36.9861 16.5268 36.9794 16.4201 36.9794C16.3468 36.9794 16.2735 36.9861 16.2004 36.9994C16.1338 37.0061 16.0638 37.0094 15.9905 37.0094C15.9437 36.9961 15.91 36.9694 15.8895 36.9294C15.8757 36.8895 15.8685 36.8428 15.8679 36.7895C15.867 36.7161 15.873 36.6561 15.8858 36.6095C15.8985 36.5628 15.9045 36.5061 15.9038 36.4395C15.7456 36.5995 15.5439 36.7361 15.2986 36.8495C15.0599 36.9628 14.8239 37.0194 14.5906 37.0194C14.3306 37.0194 14.1062 36.9294 13.9174 36.7495C13.7353 36.5695 13.5827 36.3462 13.4595 36.0795C13.3364 35.8129 13.2429 35.5229 13.1792 35.2096C13.1222 34.8963 13.0921 34.6063 13.089 34.3396C13.085 34.0063 13.1247 33.6997 13.2081 33.4197C13.2915 33.1397 13.4053 32.8997 13.5496 32.6997C13.7005 32.4931 13.8786 32.3331 14.0839 32.2198C14.2892 32.0998 14.5084 32.0365 14.7417 32.0298C14.8617 32.0298 14.9717 32.0331 15.0718 32.0398C15.1785 32.0398 15.2753 32.0565 15.3624 32.0898C15.4494 32.1164 15.5266 32.1631 15.5941 32.2298C15.6614 32.2898 15.7191 32.3764 15.7671 32.4898C15.7592 32.3831 15.7615 32.2931 15.7739 32.2198C15.793 32.1398 15.8021 32.0598 15.8011 31.9798C15.801 31.9731 15.821 31.9698 15.861 31.9698C15.9076 31.9631 15.9576 31.9631 16.011 31.9698C16.0643 31.9698 16.1177 31.9698 16.171 31.9698C16.2243 31.9698 16.261 31.9698 16.281 31.9698C16.3944 31.9765 16.5312 31.9831 16.6912 31.9898ZM14.6499 33.5697C14.498 33.6963 14.4064 33.843 14.3751 34.0097C14.3494 34.0963 14.3338 34.1863 14.3283 34.2796C14.3226 34.3663 14.3203 34.453 14.3213 34.5396C14.3249 34.8396 14.4046 35.0962 14.5604 35.3096C14.7229 35.5162 14.9441 35.6195 15.2241 35.6195C15.3907 35.6195 15.5138 35.5929 15.5931 35.5395C15.6791 35.4795 15.7381 35.3996 15.7703 35.2996C15.809 35.1929 15.8275 35.0662 15.8258 34.9196C15.8307 34.7663 15.832 34.5963 15.8298 34.4096C15.827 34.1763 15.8215 33.993 15.8133 33.8597C15.8116 33.7197 15.7937 33.613 15.7595 33.5397C15.732 33.4664 15.6814 33.4197 15.6079 33.3997C15.541 33.3797 15.4375 33.3697 15.2975 33.3697C15.0242 33.3697 14.8083 33.4364 14.6499 33.5697ZM21.5932 35.0496C21.7065 35.0496 21.8 35.0596 21.8736 35.0796C21.8623 35.2529 21.8509 35.4229 21.8396 35.5895C21.8282 35.7562 21.8134 35.9129 21.7951 36.0595C21.7768 36.1995 21.7516 36.3228 21.7195 36.4295C21.694 36.5295 21.6582 36.6028 21.6121 36.6495C21.5006 36.8095 21.352 36.9228 21.1661 36.9894C20.9869 37.0561 20.7907 37.0961 20.5775 37.1094C20.3644 37.1294 20.1444 37.1294 19.9175 37.1094C19.6907 37.0961 19.484 37.0894 19.2973 37.0894C18.9566 37.0294 18.6682 36.8828 18.4321 36.6495C18.2502 36.4895 18.1245 36.2895 18.055 36.0495C17.9855 35.8095 17.9426 35.5595 17.9262 35.2996C17.9097 35.0329 17.9032 34.7663 17.9067 34.4996C17.9169 34.233 17.9074 33.9897 17.8781 33.7697C17.8753 33.5297 17.8924 33.2897 17.9296 33.0497C17.9354 32.9764 17.9576 32.8764 17.9961 32.7497C18.0346 32.6231 18.0634 32.5264 18.0826 32.4598C18.1281 32.3598 18.2004 32.2731 18.2996 32.1998C18.4054 32.1264 18.5247 32.0665 18.6574 32.0198C18.7968 31.9665 18.943 31.9298 19.0961 31.9098C19.2559 31.8898 19.4158 31.8798 19.5758 31.8798C19.7093 31.8931 19.836 31.8965 19.9559 31.8898C20.0824 31.8765 20.2158 31.8765 20.3559 31.8898C20.5694 31.9031 20.7732 31.9431 20.9673 32.0098C21.1614 32.0765 21.3293 32.1764 21.4709 32.3098C21.565 32.3764 21.636 32.4664 21.6841 32.5798C21.7387 32.6931 21.7803 32.8264 21.8088 32.9797C21.8373 33.133 21.8526 33.3064 21.8549 33.4997C21.8638 33.6863 21.8728 33.8897 21.8821 34.1096C21.7957 34.1296 21.6958 34.1396 21.5825 34.1396C21.4758 34.1396 21.3624 34.1363 21.2423 34.1296C21.1289 34.123 21.0155 34.113 20.902 34.0996C20.7952 34.0863 20.6983 34.073 20.6115 34.0596C20.5754 33.8263 20.4766 33.6463 20.3151 33.5197C20.1536 33.3864 19.9432 33.353 19.684 33.4197C19.5444 33.4597 19.432 33.533 19.3466 33.6397C19.3069 33.6663 19.2777 33.733 19.2589 33.8397C19.2347 34.0463 19.2238 34.2563 19.2264 34.4696C19.2289 34.6829 19.2248 34.9063 19.2143 35.1396C19.2027 35.2929 19.2408 35.4129 19.3285 35.4995C19.4229 35.5862 19.5336 35.6462 19.6606 35.6795C19.7876 35.7062 19.9177 35.7129 20.0509 35.6995C20.184 35.6795 20.2902 35.6429 20.3696 35.5895C20.4357 35.5429 20.4848 35.4662 20.5169 35.3596C20.5555 35.2462 20.5843 35.1462 20.6033 35.0596C20.6701 35.0662 20.7601 35.0696 20.8734 35.0696C20.9867 35.0629 21.1066 35.0562 21.2332 35.0496C21.3598 35.0429 21.4798 35.0429 21.5932 35.0496ZM23.7245 32.2898C23.7261 32.4298 23.7271 32.5131 23.7274 32.5398C23.7605 32.5198 23.8002 32.4964 23.8466 32.4698C23.8996 32.4431 23.9426 32.4164 23.9756 32.3898C24.1145 32.2898 24.2702 32.2098 24.4428 32.1498C24.6154 32.0898 24.7917 32.0565 24.9716 32.0498C25.1582 32.0431 25.3384 32.0631 25.5123 32.1098C25.6862 32.1564 25.8439 32.2398 25.9853 32.3598C26.0527 32.4198 26.1042 32.5464 26.1398 32.7397C26.182 32.9264 26.208 33.153 26.2178 33.4197C26.2343 33.6863 26.2411 33.9797 26.2382 34.2996C26.2419 34.6129 26.2423 34.9329 26.2395 35.2596C26.2366 35.5795 26.2336 35.8895 26.2305 36.1895C26.2274 36.4895 26.2338 36.7528 26.2498 36.9794C26.0169 37.0128 25.807 37.0261 25.6203 37.0194C25.4403 37.0194 25.2336 37.0194 25.0003 37.0194C24.9851 36.8661 24.9764 36.6928 24.9742 36.4995C24.9719 36.3062 24.9695 36.1062 24.9671 35.8995C24.9713 35.6929 24.9689 35.4862 24.9597 35.2796C24.9573 35.0729 24.9484 34.8796 24.9329 34.6996C24.9253 34.6196 24.9176 34.5329 24.9098 34.4396C24.902 34.3396 24.8875 34.243 24.8664 34.1496C24.852 34.0563 24.8277 33.973 24.7935 33.8997C24.7659 33.8263 24.7253 33.7697 24.6715 33.7297C24.6647 33.723 24.658 33.7197 24.6513 33.7197C24.6447 33.7197 24.638 33.7163 24.6312 33.7097C24.5776 33.683 24.4973 33.663 24.3905 33.6497C24.2903 33.6297 24.1904 33.6363 24.0907 33.6697C23.9911 33.6963 23.9018 33.7563 23.8229 33.8497C23.7439 33.9363 23.6988 34.0696 23.6876 34.2496C23.677 34.483 23.6764 34.7129 23.6857 34.9396C23.695 35.1596 23.7043 35.3829 23.7136 35.6095C23.7296 35.8295 23.7388 36.0495 23.7414 36.2695C23.744 36.4895 23.7333 36.7095 23.7092 36.9294L23.7097 36.9694C23.5968 37.0028 23.497 37.0228 23.4104 37.0294C23.3305 37.0361 23.2472 37.0361 23.1604 37.0294C23.0737 37.0294 22.977 37.0261 22.8703 37.0194C22.7635 37.0128 22.6302 37.0161 22.4704 37.0294C22.4672 36.7561 22.46 36.4295 22.4488 36.0495C22.4443 35.6629 22.4361 35.2496 22.4242 34.8096C22.419 34.3696 22.4137 33.9163 22.4081 33.4497C22.4026 32.9764 22.3971 32.5164 22.3919 32.0698C22.3866 31.6232 22.3816 31.2032 22.377 30.8099C22.3789 30.4099 22.3815 30.0633 22.3847 29.7699C22.4648 29.7766 22.5315 29.7833 22.5849 29.7899C22.6383 29.7899 22.6883 29.7899 22.7349 29.7899C22.7816 29.7899 22.8316 29.7899 22.8849 29.7899C22.9382 29.7833 23.0048 29.7766 23.0847 29.7699C23.1114 29.7699 23.158 29.7666 23.2246 29.7599C23.2911 29.7466 23.3577 29.7366 23.4242 29.7299C23.4908 29.7233 23.5508 29.7233 23.6042 29.7299C23.6576 29.7299 23.6844 29.7399 23.6846 29.7599C23.6917 29.7933 23.6961 29.8833 23.6978 30.0299C23.6994 30.1699 23.7014 30.3399 23.7038 30.5399C23.7061 30.7332 23.7086 30.9432 23.7112 31.1698C23.7138 31.3898 23.7163 31.5965 23.7186 31.7898C23.7208 31.9831 23.7228 32.1498 23.7245 32.2898ZM27.5631 31.9698C27.7165 31.9765 27.8998 31.9765 28.1131 31.9698H28.2831L28.2835 31.9998C28.2863 32.8064 28.2794 33.6297 28.2626 34.4696C28.2525 35.3096 28.2756 36.1328 28.3318 36.9394C28.2989 36.9794 28.2158 36.9994 28.0825 36.9994C27.9492 37.0061 27.8026 37.0061 27.6425 36.9994C27.4891 36.9994 27.3424 36.9961 27.2024 36.9894C27.0623 36.9828 26.969 36.9861 26.9225 36.9994C26.9508 36.5795 26.9591 36.1528 26.9474 35.7195C26.9423 35.2862 26.9305 34.8563 26.9121 34.4296C26.8938 34.003 26.8821 33.583 26.8773 33.1697C26.8723 32.7497 26.8875 32.3431 26.9229 31.9498L26.9227 31.9398C26.9493 31.9331 26.9927 31.9331 27.0527 31.9398C27.1195 31.9465 27.1695 31.9498 27.2029 31.9498C27.2896 31.9565 27.4097 31.9631 27.5631 31.9698ZM26.8766 30.5699C26.8607 30.3566 26.8543 30.0966 26.8574 29.7899L28.2177 29.8199C28.2182 29.8599 28.2191 29.9333 28.2203 30.0399C28.2282 30.1399 28.2328 30.2532 28.2343 30.3799C28.2424 30.4999 28.2472 30.6266 28.2488 30.7599C28.257 30.8865 28.2617 30.9999 28.2628 31.0999C28.2366 31.1399 28.1736 31.1665 28.0738 31.1798C27.9806 31.1932 27.8673 31.1998 27.734 31.1998C27.6073 31.1932 27.4705 31.1865 27.3238 31.1798C27.177 31.1665 27.0402 31.1632 26.9137 31.1698C26.9114 30.9765 26.899 30.7765 26.8766 30.5699ZM30.2872 32.2898C30.2881 32.3631 30.2924 32.4464 30.3001 32.5398C30.3332 32.5198 30.373 32.4964 30.4193 32.4698C30.4723 32.4431 30.5154 32.4164 30.5484 32.3898C30.6872 32.2898 30.8429 32.2098 31.0155 32.1498C31.1882 32.0898 31.3644 32.0565 31.5444 32.0498C31.7309 32.0431 31.9112 32.0631 32.0851 32.1098C32.259 32.1564 32.4166 32.2398 32.558 32.3598C32.6254 32.4198 32.6769 32.5464 32.7125 32.7397C32.7547 32.9264 32.7807 33.153 32.7905 33.4197C32.807 33.6863 32.8138 33.9797 32.8109 34.2996C32.8146 34.6129 32.8151 34.9329 32.8122 35.2596C32.8094 35.5795 32.8064 35.8895 32.8032 36.1895C32.8001 36.4895 32.8065 36.7528 32.8226 36.9794C32.5896 37.0128 32.3798 37.0261 32.193 37.0194C32.013 37.0194 31.8064 37.0194 31.573 37.0194C31.5579 36.8661 31.5492 36.6928 31.5469 36.4995C31.5446 36.3062 31.5422 36.1062 31.5398 35.8995C31.544 35.6929 31.5416 35.4862 31.5325 35.2796C31.53 35.0729 31.5211 34.8796 31.5056 34.6996C31.498 34.6196 31.4903 34.5329 31.4826 34.4396C31.4747 34.3396 31.4602 34.243 31.4391 34.1496C31.4247 34.0563 31.4004 33.973 31.3662 33.8997C31.3387 33.8263 31.298 33.7697 31.2442 33.7297C31.2374 33.723 31.2307 33.7197 31.2241 33.7197C31.2174 33.7197 31.2107 33.7163 31.204 33.7097C31.1503 33.683 31.0701 33.663 30.9632 33.6497C30.863 33.6297 30.7631 33.6363 30.6635 33.6697C30.5638 33.6963 30.4745 33.7563 30.3956 33.8497C30.3166 33.9363 30.2715 34.0696 30.2603 34.2496C30.2497 34.483 30.2491 34.7129 30.2585 34.9396C30.2677 35.1596 30.277 35.3829 30.2864 35.6095C30.3023 35.8295 30.3116 36.0495 30.3142 36.2695C30.3168 36.4895 30.306 36.7095 30.282 36.9294L30.2824 36.9694C30.1695 37.0028 30.0697 37.0228 29.9831 37.0294C29.9032 37.0361 29.8199 37.0361 29.7331 37.0294C29.6465 37.0294 29.5498 37.0261 29.443 37.0194C29.3363 37.0128 29.203 37.0161 29.0431 37.0294C29.0335 36.2095 29.0138 35.3896 28.9841 34.5696C28.9611 33.7497 28.9577 32.8997 28.974 32.0198C29.0541 32.0265 29.1208 32.0331 29.1742 32.0398C29.2276 32.0398 29.2776 32.0398 29.3242 32.0398C29.3709 32.0398 29.4209 32.0398 29.4742 32.0398C29.5275 32.0331 29.5941 32.0265 29.674 32.0198C29.7007 32.0198 29.7473 32.0165 29.8139 32.0098C29.8804 31.9965 29.9469 31.9865 30.0135 31.9798C30.0801 31.9731 30.1401 31.9731 30.1935 31.9798C30.2469 31.9798 30.2737 31.9898 30.2739 32.0098C30.2886 32.1231 30.293 32.2164 30.2872 32.2898ZM35.0155 34.5196C34.8687 34.5129 34.7619 34.5029 34.6951 34.4896L34.6972 34.6696C34.7063 34.8696 34.7149 35.0329 34.723 35.1596C34.7378 35.2862 34.7826 35.4096 34.8574 35.5295C34.9392 35.6829 35.0539 35.7962 35.2014 35.8695C35.3489 35.9428 35.4925 35.9662 35.6322 35.9395C35.7719 35.9129 35.8876 35.8329 35.9794 35.6995C36.0777 35.5595 36.1186 35.3529 36.1021 35.0796C36.1688 35.0862 36.2589 35.0896 36.3722 35.0896C36.4854 35.0829 36.602 35.0762 36.722 35.0696C36.8485 35.0629 36.9685 35.0629 37.082 35.0696C37.1953 35.0696 37.2887 35.0796 37.3623 35.0996C37.351 35.2729 37.3397 35.4429 37.3283 35.6095C37.317 35.7762 37.3021 35.9329 37.2839 36.0795C37.2655 36.2195 37.2403 36.3428 37.2082 36.4495C37.1828 36.5495 37.1469 36.6195 37.1007 36.6595C36.9893 36.8195 36.844 36.9328 36.6647 36.9994C36.4855 37.0661 36.2893 37.1061 36.0762 37.1194C35.863 37.1328 35.643 37.1328 35.4162 37.1194C35.196 37.1061 34.9926 37.0994 34.8059 37.0994C34.6189 37.0728 34.4449 37.0128 34.2838 36.9194C34.1023 36.7928 33.9504 36.6295 33.828 36.4295C33.7056 36.2228 33.6063 35.9995 33.5301 35.7595C33.4539 35.5129 33.4008 35.2529 33.3709 34.9796C33.341 34.7063 33.3311 34.433 33.3412 34.1596C33.3583 33.913 33.3755 33.6763 33.3928 33.4497C33.4167 33.2164 33.4674 32.9897 33.5448 32.7697C33.6292 32.5764 33.7606 32.4131 33.939 32.2798C34.1174 32.1398 34.3195 32.0365 34.5454 31.9698C34.7712 31.8965 35.0107 31.8565 35.264 31.8498C35.5172 31.8431 35.7642 31.8698 36.0049 31.9298C36.3122 31.9831 36.5601 32.0898 36.7487 32.2498C36.9372 32.4098 37.0795 32.6031 37.1755 32.8297C37.2782 33.0564 37.3411 33.3064 37.3644 33.5797C37.3876 33.853 37.3909 34.1296 37.3742 34.4096C37.3277 34.423 37.2378 34.4363 37.1046 34.4496C36.9781 34.463 36.825 34.4763 36.6451 34.4896C36.4719 34.5029 36.2854 34.5129 36.0855 34.5196C35.8855 34.5263 35.6923 34.5296 35.5056 34.5296C35.3256 34.5296 35.1622 34.5263 35.0155 34.5196ZM36.17 33.2097C36.1019 33.0897 36.0075 32.9997 35.8868 32.9397C35.8331 32.9064 35.7795 32.8831 35.726 32.8697C35.6724 32.8497 35.609 32.8397 35.5356 32.8397C35.3756 32.8397 35.2458 32.8564 35.1462 32.8897C35.0466 32.9231 34.9672 32.9697 34.9079 33.0297C34.8486 33.0897 34.8027 33.1597 34.7704 33.2397C34.7446 33.3197 34.7256 33.403 34.7133 33.4897C34.7008 33.563 34.6948 33.6163 34.6952 33.6497C34.7022 33.6763 34.7357 33.6963 34.7959 33.7097C34.856 33.7163 34.9494 33.7197 35.076 33.7197C35.2093 33.713 35.4026 33.7097 35.6559 33.7097C35.8292 33.7097 35.9593 33.713 36.046 33.7197C36.1328 33.7263 36.1928 33.7297 36.2261 33.7297C36.2661 33.723 36.2859 33.713 36.2858 33.6997C36.2856 33.6797 36.2851 33.643 36.2845 33.5897C36.2829 33.4564 36.2448 33.3297 36.17 33.2097Z" fill="black"/>
<mask id="mask0_65_116" style="mask-type:alpha" maskUnits="userSpaceOnUse" x="14" y="2" width="15" height="16">
<ellipse cx="21.5" cy="10" rx="7.5" ry="8" fill="#D9D9D9"/>
</mask>
<g mask="url(#mask0_65_116)">
</g>
<g clip-path="url(#clip0_65_116)">
<path d="M16.3125 5.78125C16.3125 5.40829 16.4771 5.0506 16.7701 4.78688C17.0632 4.52316 17.4606 4.375 17.875 4.375H24.125C24.5394 4.375 24.9368 4.52316 25.2299 4.78688C25.5229 5.0506 25.6875 5.40829 25.6875 5.78125V8.59375C25.6875 8.96671 25.5229 9.3244 25.2299 9.58812C24.9368 9.85184 24.5394 10 24.125 10H17.875C17.4606 10 17.0632 9.85184 16.7701 9.58812C16.4771 9.3244 16.3125 8.96671 16.3125 8.59375V5.78125Z" stroke="black" stroke-linecap="round" stroke-linejoin="round"/>
<path d="M21 2.96875V4.375" stroke="black" stroke-linecap="round" stroke-linejoin="round"/>
<path d="M18.6562 10V16.3281" stroke="black" stroke-linecap="round" stroke-linejoin="round"/>
<path d="M23.3438 10V16.3281" stroke="black" stroke-linecap="round" stroke-linejoin="round"/>
<path d="M15.5312 12.8125L18.6562 11.4062" stroke="black" stroke-linecap="round" stroke-linejoin="round"/>
<path d="M23.3438 11.4062L26.4688 12.8125" stroke="black" stroke-linecap="round" stroke-linejoin="round"/>
<path d="M18.6562 14.2188H23.3438" stroke="black" stroke-linecap="round" stroke-linejoin="round"/>
<path d="M19.4375 7.1875V7.19492" stroke="black" stroke-linecap="round" stroke-linejoin="round"/>
<path d="M22.5625 7.1875V7.19492" stroke="black" stroke-linecap="round" stroke-linejoin="round"/>
<g clip-path="url(#clip1_65_116)">
<path d="M29.6042 14.0612L27.2268 16.2009L25.4437 14.5961C25.3649 14.5252 25.3206 14.429 25.3206 14.3287C25.3206 14.2284 25.3649 14.1322 25.4437 14.0612L27.2268 12.4564C27.3056 12.3855 27.4125 12.3457 27.5239 12.3457C27.6354 12.3457 27.7423 12.3855 27.8211 12.4564L29.6042 14.0612Z" stroke="black" stroke-linecap="round" stroke-linejoin="round"/>
<path d="M27.8211 15.666L26.038 14.0612C25.9592 13.9903 25.8523 13.9504 25.7409 13.9504C25.6294 13.9504 25.5225 13.9903 25.4437 14.0612" stroke="black" stroke-linecap="round" stroke-linejoin="round"/>
<path d="M27.5239 13.2588L28.4155 14.0612" stroke="black" stroke-linecap="round" stroke-linejoin="round"/>
</g>
</g>
<path d="M5.82381 21.1699C5.93722 21.1766 6.05052 21.1733 6.16369 21.1599L6.17951 22.4998C6.18053 22.5865 6.18159 22.6765 6.1827 22.7698C6.19046 22.8631 6.19494 22.9598 6.19612 23.0598C6.40271 23.0531 6.61925 23.0431 6.84576 23.0298C7.07894 23.0165 7.36541 22.9998 7.70517 22.9798C7.75247 23.0331 7.78008 23.1131 7.78801 23.2198C7.79585 23.3198 7.79715 23.4298 7.7919 23.5498C7.78665 23.6697 7.77811 23.7931 7.76627 23.9197C7.76102 24.0397 7.76557 24.143 7.77993 24.2297H6.22993C6.23418 24.5897 6.23835 24.943 6.24244 25.2896C6.24645 25.6296 6.25356 25.9496 6.26377 26.2496C6.33154 26.3429 6.42907 26.4162 6.55637 26.4695C6.68366 26.5229 6.82084 26.5662 6.9679 26.5995C7.11488 26.6262 7.26175 26.6429 7.40849 26.6495C7.5619 26.6562 7.69524 26.6562 7.80849 26.6495C7.82293 26.7429 7.83748 26.8462 7.85215 26.9595C7.86682 27.0728 7.8782 27.1895 7.88628 27.3095C7.89437 27.4295 7.89245 27.5495 7.88053 27.6695C7.87528 27.7895 7.85658 27.8994 7.82443 27.9994C7.55792 28.0128 7.28125 28.0128 6.99443 27.9994C6.70752 27.9794 6.43705 27.9394 6.18301 27.8795C5.92897 27.8195 5.70124 27.7295 5.49982 27.6095C5.30507 27.4895 5.16315 27.3262 5.07404 27.1195C4.98131 26.6062 4.92561 26.1229 4.90692 25.6696C4.88816 25.2096 4.87924 24.7363 4.88016 24.2497C4.77358 24.2564 4.66028 24.2597 4.54028 24.2597C4.42695 24.2597 4.30028 24.2597 4.16028 24.2597L4.17588 23.0398C4.30929 23.0465 4.43267 23.0498 4.546 23.0498C4.666 23.0498 4.77933 23.0498 4.886 23.0498C4.88427 22.9031 4.87909 22.7465 4.87045 22.5798C4.86174 22.4065 4.85636 22.2332 4.85431 22.0599C4.85227 21.8865 4.8503 21.7199 4.84841 21.5599C4.85319 21.3999 4.8615 21.2566 4.87334 21.1299C4.95985 21.1166 5.05314 21.1133 5.15322 21.1199C5.25997 21.1266 5.37008 21.1366 5.48357 21.1499C5.59699 21.1566 5.7104 21.1633 5.82381 21.1699ZM9.81234 25.5196C9.6656 25.5129 9.55881 25.5029 9.49199 25.4896L9.49411 25.6696C9.50314 25.8696 9.51173 26.0329 9.5199 26.1596C9.53472 26.2862 9.57951 26.4096 9.65426 26.5295C9.73607 26.6829 9.85074 26.7962 9.99828 26.8695C10.1458 26.9428 10.2894 26.9662 10.4291 26.9395C10.5688 26.9129 10.6845 26.8329 10.7763 26.6995C10.8746 26.5595 10.9155 26.3529 10.899 26.0796C10.9657 26.0862 11.0557 26.0896 11.1691 26.0896C11.2823 26.0829 11.3989 26.0762 11.5188 26.0696C11.6454 26.0629 11.7654 26.0629 11.8788 26.0696C11.9922 26.0696 12.0856 26.0796 12.1592 26.0996C12.1479 26.2729 12.1366 26.4429 12.1252 26.6095C12.1138 26.7762 12.099 26.9329 12.0808 27.0795C12.0624 27.2195 12.0372 27.3428 12.0051 27.4495C11.9796 27.5495 11.9438 27.6195 11.8976 27.6595C11.7862 27.8195 11.6408 27.9328 11.4616 27.9994C11.2824 28.0661 11.0862 28.1061 10.873 28.1194C10.6599 28.1328 10.4399 28.1328 10.213 28.1194C9.99287 28.1061 9.78946 28.0994 9.60279 28.0994C9.41581 28.0728 9.24177 28.0128 9.08067 27.9194C8.89917 27.7928 8.74725 27.6295 8.62489 27.4295C8.50245 27.2228 8.40314 26.9995 8.32698 26.7595C8.25073 26.5129 8.19766 26.2529 8.16777 25.9796C8.13788 25.7063 8.12799 25.433 8.13809 25.1596C8.15518 24.913 8.17239 24.6763 8.18971 24.4497C8.21362 24.2164 8.26428 23.9897 8.34169 23.7697C8.42607 23.5764 8.55748 23.4131 8.7359 23.2798C8.91425 23.1398 9.11636 23.0365 9.34224 22.9698C9.56804 22.8965 9.80757 22.8565 10.0608 22.8498C10.3141 22.8431 10.5611 22.8698 10.8018 22.9298C11.1091 22.9831 11.357 23.0898 11.5455 23.2498C11.7341 23.4098 11.8764 23.6031 11.9724 23.8297C12.0751 24.0564 12.138 24.3064 12.1612 24.5797C12.1845 24.853 12.1877 25.1296 12.171 25.4096C12.1245 25.423 12.0347 25.4363 11.9015 25.4496C11.775 25.463 11.6218 25.4763 11.442 25.4896C11.2688 25.5029 11.0823 25.5129 10.8823 25.5196C10.6824 25.5263 10.4891 25.5296 10.3025 25.5296C10.1225 25.5296 9.95909 25.5263 9.81234 25.5196ZM10.9669 24.2097C10.8988 24.0897 10.8044 23.9997 10.6837 23.9397C10.63 23.9064 10.5764 23.8831 10.5229 23.8697C10.4693 23.8497 10.4058 23.8397 10.3325 23.8397C10.1725 23.8397 10.0427 23.8564 9.9431 23.8897C9.8435 23.9231 9.76405 23.9697 9.70475 24.0297C9.64546 24.0897 9.59962 24.1597 9.56723 24.2397C9.54151 24.3197 9.52249 24.403 9.51018 24.4897C9.49772 24.563 9.49168 24.6163 9.49207 24.6497C9.49905 24.6763 9.53262 24.6963 9.59278 24.7097C9.65286 24.7163 9.74623 24.7197 9.8729 24.7197C10.0062 24.713 10.1994 24.7097 10.4528 24.7097C10.6261 24.7097 10.7562 24.713 10.8429 24.7197C10.9296 24.7263 10.9897 24.7297 11.023 24.7297C11.0629 24.723 11.0828 24.713 11.0827 24.6997C11.0824 24.6797 11.082 24.643 11.0814 24.5897C11.0798 24.4564 11.0416 24.3297 10.9669 24.2097ZM16.1658 22.9898C16.3326 22.9965 16.5227 23.0065 16.7362 23.0198C16.7433 23.0598 16.7471 23.0998 16.7476 23.1398C16.7547 23.1798 16.7586 23.2198 16.759 23.2598L16.7602 23.3598C16.7487 24.0797 16.7604 24.7897 16.7953 25.4896C16.8302 26.1829 16.8285 26.8862 16.7903 27.5995C16.7913 27.6861 16.789 27.7728 16.7833 27.8595C16.7843 27.9461 16.7449 27.9961 16.6651 28.0094H16.5451C16.4384 28.0094 16.3284 28.0061 16.215 27.9994C16.1081 27.9861 16.0014 27.9794 15.8947 27.9794C15.8214 27.9794 15.7481 27.9861 15.675 27.9994C15.6084 28.0061 15.5384 28.0094 15.4651 28.0094C15.4183 27.9961 15.3846 27.9694 15.3641 27.9294C15.3503 27.8895 15.3431 27.8428 15.3425 27.7895C15.3416 27.7161 15.3476 27.6561 15.3604 27.6095C15.3732 27.5628 15.3792 27.5061 15.3784 27.4395C15.2203 27.5995 15.0185 27.7361 14.7732 27.8495C14.5345 27.9628 14.2985 28.0194 14.0652 28.0194C13.8052 28.0194 13.5808 27.9294 13.392 27.7495C13.2099 27.5695 13.0573 27.3462 12.9341 27.0795C12.811 26.8129 12.7175 26.5229 12.6538 26.2096C12.5968 25.8963 12.5667 25.6063 12.5636 25.3396C12.5596 25.0063 12.5994 24.6997 12.6827 24.4197C12.7661 24.1397 12.8799 23.8997 13.0242 23.6997C13.1751 23.4931 13.3532 23.3331 13.5586 23.2198C13.7638 23.0998 13.9831 23.0365 14.2163 23.0298C14.3363 23.0298 14.4464 23.0331 14.5464 23.0398C14.6531 23.0398 14.75 23.0565 14.837 23.0898C14.924 23.1164 15.0012 23.1631 15.0687 23.2298C15.136 23.2898 15.1937 23.3764 15.2417 23.4898C15.2338 23.3831 15.2361 23.2931 15.2486 23.2198C15.2676 23.1398 15.2767 23.0598 15.2757 22.9798C15.2756 22.9731 15.2956 22.9698 15.3356 22.9698C15.3822 22.9631 15.4322 22.9631 15.4856 22.9698C15.5389 22.9698 15.5923 22.9698 15.6456 22.9698C15.6989 22.9698 15.7356 22.9698 15.7556 22.9698C15.869 22.9765 16.0058 22.9831 16.1658 22.9898ZM14.1245 24.5697C13.9726 24.6963 13.881 24.843 13.8497 25.0097C13.824 25.0963 13.8084 25.1863 13.8029 25.2796C13.7972 25.3663 13.7949 25.453 13.7959 25.5396C13.7995 25.8396 13.8792 26.0962 14.035 26.3096C14.1975 26.5162 14.4187 26.6195 14.6987 26.6195C14.8654 26.6195 14.9884 26.5929 15.0677 26.5395C15.1537 26.4795 15.2128 26.3996 15.2449 26.2996C15.2836 26.1929 15.3022 26.0662 15.3004 25.9196C15.3053 25.7663 15.3066 25.5963 15.3044 25.4096C15.3016 25.1763 15.2962 24.993 15.2879 24.8597C15.2863 24.7197 15.2683 24.613 15.2341 24.5397C15.2066 24.4664 15.1561 24.4197 15.0825 24.3997C15.0156 24.3797 14.9121 24.3697 14.7721 24.3697C14.4988 24.3697 14.2829 24.4364 14.1245 24.5697ZM21.0678 26.0496C21.1811 26.0496 21.2746 26.0596 21.3482 26.0796C21.3369 26.2529 21.3256 26.4229 21.3142 26.5895C21.3028 26.7562 21.288 26.9129 21.2697 27.0595C21.2514 27.1995 21.2262 27.3228 21.1941 27.4295C21.1686 27.5295 21.1328 27.6028 21.0867 27.6495C20.9753 27.8095 20.8266 27.9228 20.6407 27.9894C20.4615 28.0561 20.2653 28.0961 20.0521 28.1094C19.839 28.1294 19.619 28.1294 19.3921 28.1094C19.1653 28.0961 18.9586 28.0894 18.7719 28.0894C18.4312 28.0294 18.1428 27.8828 17.9067 27.6495C17.7248 27.4895 17.5991 27.2895 17.5296 27.0495C17.4601 26.8095 17.4172 26.5595 17.4008 26.2996C17.3843 26.0329 17.3778 25.7663 17.3813 25.4996C17.3915 25.233 17.382 24.9897 17.3527 24.7697C17.3499 24.5297 17.367 24.2897 17.4042 24.0497C17.41 23.9764 17.4322 23.8764 17.4707 23.7497C17.5092 23.6231 17.538 23.5264 17.5572 23.4598C17.6027 23.3598 17.675 23.2731 17.7742 23.1998C17.88 23.1264 17.9993 23.0665 18.1321 23.0198C18.2714 22.9665 18.4177 22.9298 18.5708 22.9098C18.7305 22.8898 18.8904 22.8798 19.0504 22.8798C19.1839 22.8931 19.3106 22.8965 19.4305 22.8898C19.557 22.8765 19.6904 22.8765 19.8305 22.8898C20.044 22.9031 20.2478 22.9431 20.4419 23.0098C20.6361 23.0765 20.8039 23.1764 20.9455 23.3098C21.0396 23.3764 21.1107 23.4664 21.1587 23.5798C21.2133 23.6931 21.2549 23.8264 21.2834 23.9797C21.3119 24.133 21.3272 24.3064 21.3295 24.4997C21.3384 24.6863 21.3475 24.8897 21.3567 25.1096C21.2703 25.1296 21.1704 25.1396 21.0571 25.1396C20.9504 25.1396 20.837 25.1363 20.717 25.1296C20.6035 25.123 20.4901 25.113 20.3766 25.0996C20.2698 25.0863 20.173 25.073 20.0861 25.0596C20.05 24.8263 19.9513 24.6463 19.7898 24.5197C19.6282 24.3864 19.4178 24.353 19.1586 24.4197C19.019 24.4597 18.9066 24.533 18.8212 24.6397C18.7815 24.6663 18.7523 24.733 18.7335 24.8397C18.7093 25.0463 18.6985 25.2563 18.701 25.4696C18.7035 25.6829 18.6995 25.9063 18.6889 26.1396C18.6774 26.2929 18.7154 26.4129 18.8031 26.4995C18.8975 26.5862 19.0082 26.6462 19.1353 26.6795C19.2622 26.7062 19.3923 26.7129 19.5255 26.6995C19.6586 26.6795 19.7648 26.6429 19.8442 26.5895C19.9103 26.5429 19.9594 26.4662 19.9915 26.3596C20.0301 26.2462 20.059 26.1462 20.0779 26.0596C20.1447 26.0662 20.2347 26.0696 20.3481 26.0696C20.4613 26.0629 20.5812 26.0562 20.7078 26.0496C20.8344 26.0429 20.9544 26.0429 21.0678 26.0496ZM23.1991 23.2898C23.2007 23.4298 23.2017 23.5131 23.202 23.5398C23.2351 23.5198 23.2748 23.4964 23.3212 23.4698C23.3742 23.4431 23.4172 23.4164 23.4502 23.3898C23.5891 23.2898 23.7448 23.2098 23.9174 23.1498C24.09 23.0898 24.2663 23.0565 24.4462 23.0498C24.6328 23.0431 24.8131 23.0631 24.9869 23.1098C25.1608 23.1564 25.3185 23.2398 25.4599 23.3598C25.5273 23.4198 25.5788 23.5464 25.6144 23.7397C25.6566 23.9264 25.6826 24.153 25.6924 24.4197C25.7089 24.6863 25.7157 24.9797 25.7128 25.2996C25.7165 25.6129 25.7169 25.9329 25.7141 26.2596C25.7112 26.5795 25.7082 26.8895 25.7051 27.1895C25.702 27.4895 25.7084 27.7528 25.7244 27.9794C25.4915 28.0128 25.2816 28.0261 25.0949 28.0194C24.9149 28.0194 24.7082 28.0194 24.4749 28.0194C24.4598 27.8661 24.451 27.6928 24.4488 27.4995C24.4465 27.3062 24.4441 27.1062 24.4417 26.8995C24.4459 26.6929 24.4435 26.4862 24.4344 26.2796C24.4319 26.0729 24.423 25.8796 24.4075 25.6996C24.3999 25.6196 24.3922 25.5329 24.3844 25.4396C24.3766 25.3396 24.3621 25.243 24.341 25.1496C24.3266 25.0563 24.3023 24.973 24.2681 24.8997C24.2405 24.8263 24.1999 24.7697 24.1461 24.7297C24.1393 24.723 24.1326 24.7197 24.1259 24.7197C24.1193 24.7197 24.1126 24.7163 24.1058 24.7097C24.0522 24.683 23.9719 24.663 23.8651 24.6497C23.7649 24.6297 23.665 24.6363 23.5654 24.6697C23.4657 24.6963 23.3764 24.7563 23.2975 24.8497C23.2185 24.9363 23.1734 25.0696 23.1622 25.2496C23.1516 25.483 23.151 25.7129 23.1603 25.9396C23.1696 26.1596 23.1789 26.3829 23.1883 26.6095C23.2042 26.8295 23.2134 27.0495 23.216 27.2695C23.2186 27.4895 23.2079 27.7095 23.1838 27.9294L23.1843 27.9694C23.0714 28.0028 22.9716 28.0228 22.885 28.0294C22.8051 28.0361 22.7218 28.0361 22.635 28.0294C22.5483 28.0294 22.4516 28.0261 22.3449 28.0194C22.2382 28.0128 22.1049 28.0161 21.945 28.0294C21.9418 27.7561 21.9346 27.4295 21.9234 27.0495C21.9189 26.6629 21.9107 26.2496 21.8988 25.8096C21.8936 25.3696 21.8883 24.9163 21.8828 24.4497C21.8772 23.9764 21.8717 23.5164 21.8665 23.0698C21.8612 22.6232 21.8562 22.2032 21.8516 21.8099C21.8535 21.4099 21.8561 21.0633 21.8593 20.7699C21.9394 20.7766 22.0061 20.7833 22.0596 20.7899C22.1129 20.7899 22.1629 20.7899 22.2096 20.7899C22.2562 20.7899 22.3062 20.7899 22.3596 20.7899C22.4128 20.7833 22.4794 20.7766 22.5593 20.7699C22.586 20.7699 22.6326 20.7666 22.6992 20.7599C22.7657 20.7466 22.8323 20.7366 22.8989 20.7299C22.9654 20.7233 23.0254 20.7233 23.0789 20.7299C23.1322 20.7299 23.159 20.7399 23.1592 20.7599C23.1663 20.7933 23.1707 20.8833 23.1724 21.0299C23.174 21.1699 23.1761 21.3399 23.1784 21.5399C23.1807 21.7332 23.1832 21.9432 23.1858 22.1698C23.1884 22.3898 23.1909 22.5965 23.1932 22.7898C23.1954 22.9831 23.1974 23.1498 23.1991 23.2898ZM29.8279 22.9898C29.9947 22.9965 30.1848 23.0065 30.3983 23.0198C30.4054 23.0598 30.4092 23.0998 30.4097 23.1398C30.4169 23.1798 30.4207 23.2198 30.4211 23.2598L30.4223 23.3598C30.4108 24.0797 30.4225 24.7897 30.4575 25.4896C30.4923 26.1829 30.4906 26.8862 30.4524 27.5995C30.4534 27.6861 30.4511 27.7728 30.4454 27.8595C30.4465 27.9461 30.407 27.9961 30.3272 28.0094H30.2072C30.1005 28.0094 29.9905 28.0061 29.8771 27.9994C29.7703 27.9861 29.6635 27.9794 29.5568 27.9794C29.4835 27.9794 29.4103 27.9861 29.3371 27.9994C29.2705 28.0061 29.2005 28.0094 29.1272 28.0094C29.0804 27.9961 29.0467 27.9694 29.0263 27.9294C29.0125 27.8895 29.0052 27.8428 29.0046 27.7895C29.0037 27.7161 29.0097 27.6561 29.0225 27.6095C29.0353 27.5628 29.0413 27.5061 29.0405 27.4395C28.8824 27.5995 28.6806 27.7361 28.4353 27.8495C28.1967 27.9628 27.9607 28.0194 27.7273 28.0194C27.4673 28.0194 27.2429 27.9294 27.0541 27.7495C26.872 27.5695 26.7194 27.3462 26.5962 27.0795C26.4731 26.8129 26.3797 26.5229 26.316 26.2096C26.2589 25.8963 26.2288 25.6063 26.2257 25.3396C26.2218 25.0063 26.2615 24.6997 26.3448 24.4197C26.4282 24.1397 26.542 23.8997 26.6863 23.6997C26.8372 23.4931 27.0153 23.3331 27.2207 23.2198C27.4259 23.0998 27.6452 23.0365 27.8784 23.0298C27.9984 23.0298 28.1085 23.0331 28.2085 23.0398C28.3152 23.0398 28.4121 23.0565 28.4991 23.0898C28.5861 23.1164 28.6633 23.1631 28.7308 23.2298C28.7982 23.2898 28.8558 23.3764 28.9038 23.4898C28.8959 23.3831 28.8982 23.2931 28.9107 23.2198C28.9297 23.1398 28.9388 23.0598 28.9378 22.9798C28.9378 22.9731 28.9577 22.9698 28.9977 22.9698C29.0443 22.9631 29.0943 22.9631 29.1477 22.9698C29.201 22.9698 29.2544 22.9698 29.3077 22.9698C29.361 22.9698 29.3977 22.9698 29.4177 22.9698C29.5311 22.9765 29.6679 22.9831 29.8279 22.9898ZM27.7866 24.5697C27.6348 24.6963 27.5432 24.843 27.5118 25.0097C27.4861 25.0963 27.4705 25.1863 27.465 25.2796C27.4593 25.3663 27.457 25.453 27.458 25.5396C27.4616 25.8396 27.5413 26.0962 27.6971 26.3096C27.8596 26.5162 28.0808 26.6195 28.3608 26.6195C28.5275 26.6195 28.6505 26.5929 28.7299 26.5395C28.8158 26.4795 28.8749 26.3996 28.907 26.2996C28.9458 26.1929 28.9643 26.0662 28.9625 25.9196C28.9674 25.7663 28.9687 25.5963 28.9665 25.4096C28.9638 25.1763 28.9583 24.993 28.95 24.8597C28.9484 24.7197 28.9304 24.613 28.8962 24.5397C28.8687 24.4664 28.8182 24.4197 28.7446 24.3997C28.6777 24.3797 28.5742 24.3697 28.4342 24.3697C28.1609 24.3697 27.945 24.4364 27.7866 24.5697ZM32.2697 20.9499C32.3631 20.9566 32.4099 20.9633 32.41 20.9699L32.4113 21.0799C32.4195 21.2132 32.4241 21.3166 32.4249 21.3899C32.4324 21.4566 32.4365 21.5199 32.4372 21.5799C32.4445 21.6332 32.4485 21.6932 32.4493 21.7599C32.4567 21.8199 32.4611 21.9099 32.4625 22.0299C32.4638 22.1432 32.4656 22.2965 32.4679 22.4898C32.4702 22.6831 32.4698 22.9365 32.4669 23.2498C32.4795 23.1898 32.5522 23.1364 32.685 23.0898C32.8178 23.0431 32.9807 23.0131 33.1739 22.9998C33.367 22.9798 33.5704 22.9798 33.7839 22.9998C34.0041 23.0131 34.2046 23.0531 34.3853 23.1198C34.5326 23.1731 34.6571 23.2664 34.7586 23.3998C34.8668 23.5264 34.952 23.6831 35.0142 23.8697C35.083 24.0497 35.132 24.2497 35.1613 24.4697C35.1972 24.6897 35.2165 24.9163 35.2193 25.1496C35.2099 25.483 35.1905 25.8129 35.161 26.1396C35.1315 26.4662 35.0617 26.7629 34.9515 27.0295C34.8479 27.2895 34.6871 27.5061 34.4692 27.6795C34.2511 27.8461 33.9523 27.9428 33.5726 27.9694C33.3862 27.9961 33.2094 27.9828 33.0421 27.9294C32.8747 27.8695 32.7399 27.7395 32.6375 27.5395C32.617 27.4995 32.5969 27.4895 32.5772 27.5095C32.564 27.5228 32.5509 27.5461 32.538 27.5795C32.5389 27.6528 32.5362 27.7095 32.53 27.7495C32.5305 27.7895 32.5311 27.8428 32.5319 27.9094C32.5323 27.9428 32.5292 27.9661 32.5227 27.9794C32.323 28.0061 32.0998 28.0128 31.8529 27.9994C31.6062 27.9928 31.3795 27.9894 31.1728 27.9894C31.1538 27.5095 31.1413 27.0128 31.1352 26.4995C31.1358 25.9796 31.1362 25.453 31.1366 24.9197C31.1435 24.3797 31.1504 23.8331 31.1572 23.2798C31.164 22.7265 31.1642 22.1732 31.1576 21.6199L31.1498 20.9599C31.2563 20.9399 31.3828 20.9299 31.5295 20.9299C31.6761 20.9233 31.8127 20.9233 31.9395 20.9299C32.0728 20.9299 32.1829 20.9366 32.2697 20.9499ZM34.0692 25.1396C34.0613 25.0396 34.0402 24.943 34.0058 24.8497C33.9697 24.6163 33.8676 24.4397 33.6995 24.3197C33.5381 24.1997 33.3207 24.1397 33.0474 24.1397C32.9074 24.1397 32.7942 24.153 32.7079 24.1797C32.6281 24.1997 32.5687 24.2497 32.5296 24.3297C32.4906 24.4097 32.4653 24.5264 32.4538 24.6797C32.4488 24.8263 32.4479 25.0296 32.451 25.2896C32.4535 25.5029 32.4591 25.6996 32.4679 25.8796C32.4833 26.0529 32.5151 26.2029 32.5632 26.3296C32.6181 26.4562 32.6926 26.5562 32.7868 26.6295C32.881 26.7029 33.0147 26.7395 33.1881 26.7395C33.3281 26.7395 33.4543 26.7029 33.5668 26.6295C33.6792 26.5562 33.7748 26.4595 33.8533 26.3396C33.9319 26.2129 33.9902 26.0729 34.0284 25.9196C34.0665 25.7596 34.0846 25.5963 34.0826 25.4296C34.0815 25.3363 34.077 25.2396 34.0692 25.1396ZM35.6973 22.5498C35.6901 21.9432 35.713 21.3366 35.7658 20.7299L37.1262 20.7599C37.1294 21.0333 37.1299 21.3632 37.1278 21.7499C37.1257 22.1365 37.124 22.5498 37.1225 22.9898C37.121 23.4298 37.1197 23.8864 37.1187 24.3597C37.1242 24.833 37.1296 25.2896 37.1348 25.7296C37.14 26.1696 37.1482 26.5829 37.1595 26.9695C37.1706 27.3495 37.1844 27.6728 37.2009 27.9394C37.168 27.9794 37.0849 27.9994 36.9516 27.9994C36.8184 28.0061 36.6717 28.0061 36.5116 27.9994C36.3583 27.9994 36.2116 27.9961 36.0715 27.9894C35.9314 27.9828 35.8381 27.9861 35.7916 27.9994C35.8312 27.3995 35.8407 26.7962 35.8203 26.1896C35.8064 25.5829 35.7859 24.9763 35.7588 24.3697C35.7316 23.7631 35.7111 23.1564 35.6973 22.5498ZM39.3729 25.5196C39.2261 25.5129 39.1194 25.5029 39.0525 25.4896L39.0547 25.6696C39.0637 25.8696 39.0723 26.0329 39.0804 26.1596C39.0953 26.2862 39.1401 26.4096 39.2148 26.5295C39.2966 26.6829 39.4113 26.7962 39.5588 26.8695C39.7064 26.9428 39.85 26.9662 39.9896 26.9395C40.1293 26.9129 40.2451 26.8329 40.3368 26.6995C40.4352 26.5595 40.4761 26.3529 40.4595 26.0796C40.5262 26.0862 40.6163 26.0896 40.7296 26.0896C40.8429 26.0829 40.9595 26.0762 41.0794 26.0696C41.206 26.0629 41.326 26.0629 41.4394 26.0696C41.5527 26.0696 41.6462 26.0796 41.7197 26.0996C41.7084 26.2729 41.6971 26.4429 41.6858 26.6095C41.6744 26.7762 41.6596 26.9329 41.6413 27.0795C41.623 27.2195 41.5977 27.3428 41.5657 27.4495C41.5402 27.5495 41.5043 27.6195 41.4581 27.6595C41.3467 27.8195 41.2014 27.9328 41.0222 27.9994C40.8429 28.0661 40.6468 28.1061 40.4336 28.1194C40.2204 28.1328 40.0004 28.1328 39.7736 28.1194C39.5534 28.1061 39.35 28.0994 39.1633 28.0994C38.9764 28.0728 38.8023 28.0128 38.6412 27.9194C38.4597 27.7928 38.3078 27.6295 38.1854 27.4295C38.063 27.2228 37.9637 26.9995 37.8875 26.7595C37.8113 26.5129 37.7582 26.2529 37.7283 25.9796C37.6984 25.7063 37.6885 25.433 37.6986 25.1596C37.7157 24.913 37.7329 24.6763 37.7503 24.4497C37.7742 24.2164 37.8248 23.9897 37.9022 23.7697C37.9866 23.5764 38.118 23.4131 38.2964 23.2798C38.4748 23.1398 38.6769 23.0365 38.9028 22.9698C39.1286 22.8965 39.3681 22.8565 39.6214 22.8498C39.8746 22.8431 40.1216 22.8698 40.3623 22.9298C40.6696 22.9831 40.9175 23.0898 41.1061 23.2498C41.2947 23.4098 41.4369 23.6031 41.5329 23.8297C41.6356 24.0564 41.6986 24.3064 41.7218 24.5797C41.745 24.853 41.7483 25.1296 41.7316 25.4096C41.6851 25.423 41.5952 25.4363 41.4621 25.4496C41.3356 25.463 41.1824 25.4763 41.0025 25.4896C40.8294 25.5029 40.6428 25.5129 40.4429 25.5196C40.243 25.5263 40.0497 25.5296 39.863 25.5296C39.683 25.5296 39.5196 25.5263 39.3729 25.5196ZM40.5274 24.2097C40.4593 24.0897 40.3649 23.9997 40.2442 23.9397C40.1905 23.9064 40.1369 23.8831 40.0834 23.8697C40.0298 23.8497 39.9664 23.8397 39.8931 23.8397C39.7331 23.8397 39.6033 23.8564 39.5036 23.8897C39.404 23.9231 39.3246 23.9697 39.2653 24.0297C39.206 24.0897 39.1602 24.1597 39.1278 24.2397C39.1021 24.3197 39.083 24.403 39.0707 24.4897C39.0583 24.563 39.0522 24.6163 39.0526 24.6497C39.0596 24.6763 39.0932 24.6963 39.1533 24.7097C39.2134 24.7163 39.3068 24.7197 39.4334 24.7197C39.5667 24.713 39.76 24.7097 40.0133 24.7097C40.1867 24.7097 40.3167 24.713 40.4034 24.7197C40.4902 24.7263 40.5502 24.7297 40.5836 24.7297C40.6235 24.723 40.6434 24.713 40.6432 24.6997C40.643 24.6797 40.6425 24.643 40.6419 24.5897C40.6403 24.4564 40.6022 24.3297 40.5274 24.2097Z" fill="black"/>
<defs>
<clipPath id="clip0_65_116">
<rect width="20" height="18" fill="white" transform="translate(11 1)"/>
</clipPath>
<clipPath id="clip1_65_116">
<rect width="5.11765" height="5.11765" fill="white" transform="matrix(0.743294 0.668965 -0.743294 0.668965 27.3754 10.7714)"/>
</clipPath>
</defs>
</svg>
