<svg width="36" height="35" viewBox="0 0 36 35" fill="none" xmlns="http://www.w3.org/2000/svg">
<g clip-path="url(#clip0_1_12)">
<path d="M19.9701 29.1256C20.3714 26.9906 20.305 25.7831 21.4966 25.2797L25.6622 23.5221V21.6542C25.6622 21.6542 24.7656 21.3283 24.7656 19.3194C23.835 19.3194 23.835 17.4516 24.7656 17.4516C24.7656 17.1827 23.206 15.1832 25.166 15.5838C25.6318 13.716 30.2234 13.716 30.6892 15.5838C30.7502 15.9068 30.7448 16.2386 30.6731 16.5594C30.6014 16.8803 30.4649 17.1837 30.2718 17.4516C31.1739 17.4516 30.9273 19.3194 30.2784 19.3194C30.2784 21.3283 29.4568 21.6542 29.4568 21.6542V23.5221L32.5562 24.7997C32.9013 24.9418 33.196 25.1812 33.4033 25.4878C33.6106 25.7944 33.7212 26.1544 33.7212 26.5227V29.1256H19.9701Z" fill="#E3E3E3"/>
<path d="M11.9016 29.1256C12.3029 26.9906 12.2365 25.7831 13.428 25.2797L17.5936 23.5221V21.6542C17.5936 21.6542 16.6971 21.3283 16.6971 19.3194C15.7665 19.3194 15.7665 17.4516 16.6971 17.4516C16.6971 17.1827 15.1375 15.1832 17.0975 15.5838C17.5633 13.716 22.1548 13.716 22.6207 15.5838C22.6817 15.9068 22.6762 16.2386 22.6045 16.5594C22.5328 16.8803 22.3963 17.1837 22.2032 17.4516C23.1055 17.4516 22.8588 19.3194 22.2099 19.3194C22.2099 21.3283 21.3883 21.6542 21.3883 21.6542V23.5221L25.5539 25.2797C26.7427 25.7812 26.6772 26.9784 27.0804 29.1256H11.9016Z" fill="#E7FAFF" stroke="#191919" stroke-linecap="round" stroke-linejoin="round"/>
<path d="M30.2729 19.3194C30.2729 21.3274 29.4513 21.6542 29.4513 21.6542V23.5221L32.5933 24.8968C32.9288 25.0435 33.2139 25.2829 33.4139 25.5859C33.614 25.8889 33.7204 26.2426 33.7204 26.604V29.1256H30.4" stroke="#191919" stroke-linecap="round" stroke-linejoin="round"/>
</g>
<path d="M4.89189 13.2071C5.01544 13.3636 5.11311 13.4879 5.18491 13.5799L7.33497 16.4525L7.33915 16.4616C7.17329 16.5795 6.97801 16.6814 6.7533 16.7671C6.53139 16.859 6.31327 16.9272 6.09896 16.9719L6.08983 16.9759C6.00865 16.8954 5.9191 16.7967 5.82117 16.6798C5.72934 16.5602 5.63306 16.4389 5.53235 16.316C5.43772 16.1904 5.34284 16.0721 5.24771 15.9613C5.15257 15.8505 5.06277 15.7592 4.9783 15.6874C4.89359 15.7106 4.82993 15.7318 4.78732 15.7508C4.74471 15.7698 4.70515 15.7875 4.66863 15.8038C4.63819 15.8174 4.60307 15.8368 4.56325 15.8619C4.52673 15.8782 4.47499 15.9013 4.40804 15.9312C4.41008 16.0471 4.42659 16.1785 4.45756 16.3253C4.49183 16.4633 4.52723 16.6117 4.56378 16.7706C4.60363 16.9208 4.63904 17.0692 4.67001 17.216C4.70098 17.3628 4.71279 17.4999 4.70546 17.6273C4.69937 17.63 4.69468 17.6358 4.69138 17.6445C4.69138 17.6445 4.68834 17.6459 4.68225 17.6486C4.63914 17.6825 4.51741 17.7369 4.31704 17.8118C4.11668 17.8867 3.81095 18.0196 3.39983 18.2106C3.39375 18.2133 3.38627 18.213 3.37739 18.2097C3.37002 18.1619 3.3369 18.0343 3.27802 17.8269C3.21914 17.6196 3.14592 17.3493 3.05836 17.0161C2.9708 16.6828 2.87144 16.3001 2.76027 15.8679C2.6524 15.4269 2.54554 14.9562 2.43969 14.4559C2.33384 13.9556 2.22874 13.4331 2.12441 12.8883C2.02007 12.3435 1.9293 11.7963 1.8521 11.2467C1.89192 11.2216 1.93617 11.1982 1.98487 11.1765C2.03356 11.1547 2.09748 11.1261 2.1766 11.0908C2.25573 11.0554 2.35617 11.0106 2.4779 10.9562C2.60293 10.893 2.7617 10.8075 2.95419 10.6996C3.00873 10.7701 3.09194 10.879 3.20382 11.0261C3.319 11.1645 3.44534 11.3271 3.58284 11.5139C3.72364 11.692 3.87141 11.8851 4.02617 12.0934C4.18701 12.299 4.34062 12.4969 4.487 12.687C4.63338 12.8772 4.76834 13.0505 4.89189 13.2071ZM4.18299 14.7504C4.29584 14.6927 4.4101 14.638 4.52575 14.5863C4.22485 14.0928 3.98307 13.7117 3.80041 13.4428C3.62383 13.1712 3.49356 12.9921 3.40959 12.9055C3.33171 12.8162 3.28846 12.81 3.27985 12.8868C3.27453 12.9549 3.29713 13.0836 3.34764 13.2727C3.40423 13.4592 3.47567 13.6938 3.56195 13.9765C3.65432 14.2564 3.75038 14.5603 3.85011 14.8881C3.95638 14.848 4.06734 14.8021 4.18299 14.7504ZM9.42297 11.796C9.44631 11.8148 9.48157 11.8356 9.52875 11.8583C9.68196 11.9359 9.82908 12.0162 9.97012 12.0992C10.1144 12.1734 10.2478 12.2635 10.37 12.3696C10.4956 12.4668 10.6068 12.5887 10.7037 12.7352C10.8007 12.8817 10.8755 13.06 10.9283 13.2701C11.0108 13.5764 11.0239 13.8516 10.9676 14.0958C10.9147 14.3312 10.8131 14.5408 10.663 14.7247C10.5129 14.9086 10.3275 15.0718 10.1068 15.2141C9.88342 15.3505 9.64388 15.4757 9.38823 15.59C9.14146 15.7075 8.88607 15.8143 8.62205 15.9104C8.36412 16.0037 8.12419 16.0963 7.90228 16.1881C7.86575 16.2044 7.82923 16.2207 7.79271 16.2371C7.76228 16.2507 7.72905 16.2582 7.69304 16.2597C7.17367 15.2286 6.68588 14.1944 6.22966 13.157C5.77065 12.1135 5.2892 11.0692 4.7853 10.0239L4.79024 10.0107C5.00302 9.83535 5.23798 9.66832 5.49514 9.50962C5.7523 9.35092 6.01759 9.2178 6.29099 9.11026C6.56439 9.00271 6.83818 8.92785 7.11235 8.88567C7.39261 8.84078 7.66198 8.85186 7.92045 8.91891C8.17612 8.97992 8.41317 9.104 8.63158 9.29117C8.8472 9.47229 9.03316 9.73236 9.18946 10.0714C9.30668 10.3257 9.37546 10.5943 9.3958 10.8773C9.42223 11.1575 9.42202 11.4278 9.39518 11.688C9.39037 11.7412 9.39963 11.7773 9.42297 11.796ZM9.22171 14.0106C9.29018 13.9362 9.3381 13.8491 9.36547 13.7493C9.39056 13.6285 9.37076 13.506 9.30606 13.3815C9.24745 13.2544 9.17312 13.1489 9.08306 13.065C9.01305 13.0087 8.92896 12.9696 8.8308 12.9477C8.72985 12.9198 8.63562 12.9144 8.54812 12.9316C8.41851 12.953 8.29284 12.9909 8.17111 13.0453C8.04658 13.0936 7.9237 13.1376 7.80247 13.1771C7.81998 13.2788 7.84613 13.3913 7.8809 13.5145C7.91567 13.6376 7.95792 13.7611 8.00765 13.885C8.06068 14 8.12145 14.1079 8.18994 14.2087C8.25844 14.3095 8.33379 14.3854 8.41597 14.4363L8.43842 14.4372C8.52364 14.3992 8.61329 14.3628 8.70738 14.328C8.80477 14.2845 8.89772 14.2393 8.98624 14.1925C9.07804 14.1369 9.15653 14.0762 9.22171 14.0106ZM8.0586 11.4637C8.12149 11.3772 8.15635 11.2777 8.16318 11.1651C8.17229 11.0734 8.16974 10.9724 8.15552 10.8619C8.14129 10.7514 8.08751 10.6586 7.99416 10.5835C7.9008 10.5084 7.8034 10.4643 7.70194 10.4512C7.60378 10.4294 7.50043 10.4281 7.39187 10.4474C7.25897 10.4776 7.12252 10.5239 6.98253 10.5865C6.84582 10.6402 6.74299 10.7117 6.67401 10.801C6.75038 10.9348 6.82244 11.107 6.8902 11.3177C6.96404 11.5256 7.0772 11.7233 7.22967 11.9107C7.32655 11.8821 7.42813 11.8476 7.53439 11.8074C7.64066 11.7673 7.7397 11.7194 7.8315 11.6638C7.92331 11.6081 7.99901 11.5415 8.0586 11.4637ZM12.5409 6.98606C12.79 7.06461 12.9999 7.19352 13.1707 7.37279C13.2551 7.44457 13.3288 7.52481 13.3917 7.61352C13.458 7.69346 13.5195 7.77915 13.5763 7.87058C13.6583 8.01649 13.7341 8.16513 13.8039 8.31649C13.877 8.45907 13.9453 8.6074 14.009 8.76148C14.1387 9.09052 14.2764 9.40503 14.422 9.70503C14.5676 10.005 14.7008 10.3179 14.8216 10.6436L14.9324 10.9555C15.0179 11.1728 15.0835 11.4027 15.1292 11.6452C15.1721 11.8815 15.1793 12.112 15.1506 12.3365C15.1141 12.528 15.0316 12.7073 14.903 12.8742C14.7778 13.0324 14.632 13.1779 14.4656 13.3106C14.3175 13.4352 14.158 13.543 13.987 13.6339C13.8222 13.7222 13.6487 13.7997 13.4666 13.8664C13.3332 13.9114 13.2001 13.949 13.0672 13.9792C12.9431 14.0127 12.8152 14.0297 12.6833 14.0302C12.5575 14.028 12.4352 14.0096 12.3165 13.975C12.195 13.9344 12.079 13.8658 11.9684 13.7692C11.8134 13.6559 11.6816 13.5213 11.573 13.3654C11.4677 13.2007 11.3716 13.0319 11.2845 12.859C11.0486 12.395 10.8096 11.9322 10.5675 11.4709C10.3288 11.0007 10.1144 10.5197 9.9243 10.0279C9.80479 9.75269 9.71267 9.46529 9.64795 9.16565C9.58651 8.85724 9.6013 8.55493 9.6923 8.25873C9.72526 8.171 9.77014 8.08523 9.82694 8.00145C9.98315 7.81484 10.1671 7.64868 10.3789 7.50296C10.594 7.34847 10.8199 7.22561 11.0568 7.13438C11.2998 7.04044 11.5476 6.98084 11.8002 6.95559C12.0561 6.92157 12.303 6.93173 12.5409 6.98606ZM13.4162 10.461L13.2152 10.0251L12.9123 9.41574C12.9095 9.40969 12.8755 9.35187 12.8103 9.24227C12.7484 9.12391 12.6907 9.01462 12.6371 8.91442C12.5468 8.75034 12.427 8.61771 12.2775 8.51653C12.1342 8.41263 11.9772 8.35866 11.8065 8.35461C11.6624 8.36056 11.5335 8.40722 11.4196 8.4946C11.3057 8.58198 11.2169 8.68375 11.153 8.79991C11.0153 9.05856 10.9685 9.33134 11.0127 9.61825C11.0701 9.87007 11.1513 10.1258 11.2563 10.3856C11.3675 10.6426 11.4877 10.8955 11.6171 11.1443C11.7453 11.3426 11.867 11.5511 11.9825 11.7696C12.0951 11.9821 12.2279 12.1747 12.3809 12.3473C12.4976 12.4412 12.6291 12.4956 12.7755 12.5105C12.9218 12.5255 13.0647 12.5091 13.2042 12.4614C13.3409 12.4076 13.4665 12.3296 13.5809 12.2274C13.6924 12.1191 13.7702 11.9931 13.814 11.8494C13.8353 11.7523 13.8483 11.6771 13.8532 11.6238C13.8552 11.5645 13.8467 11.5063 13.8276 11.4491C13.8086 11.3919 13.7793 11.3283 13.7397 11.2584C13.7034 11.1797 13.6621 11.074 13.6156 10.9414C13.5659 10.8176 13.5201 10.7103 13.4782 10.6195C13.4425 10.526 13.4218 10.4731 13.4162 10.461ZM17.2333 4.61589C17.3545 4.57633 17.4614 4.56143 17.554 4.57117C17.9478 5.32981 18.3214 6.1084 18.6748 6.90695C19.0255 7.69945 19.3382 8.50524 19.6131 9.32432C19.7486 9.74565 19.7527 10.1527 19.6255 10.5454C19.4982 10.9381 19.2252 11.2535 18.8065 11.4917C18.562 11.6302 18.2917 11.7363 17.9954 11.8103C17.702 11.8903 17.4161 11.9231 17.1379 11.9086C16.8629 11.8855 16.6047 11.811 16.3632 11.6852C16.1251 11.5507 15.9357 11.3469 15.7951 11.0738C15.4267 10.2747 15.0646 9.46538 14.7089 8.64595C14.3531 7.82651 13.985 7.01993 13.6044 6.2262L13.5911 6.2212L13.6002 6.21712C13.6915 6.17633 13.7905 6.12843 13.8973 6.07343C14.0102 6.01571 14.1244 5.96101 14.2401 5.90934C14.3557 5.85767 14.4711 5.81342 14.5863 5.77658C14.6986 5.73368 14.806 5.70395 14.9085 5.68738L14.9127 5.69646C15.5212 7.19151 16.2338 8.66561 17.0505 10.1187C17.1601 10.245 17.285 10.317 17.4252 10.3346C17.5716 10.3495 17.7042 10.3268 17.8232 10.2663C17.9421 10.2059 18.0352 10.1132 18.1024 9.98828C18.1696 9.86334 18.1863 9.72445 18.1525 9.57161C17.8481 8.8315 17.5228 8.08607 17.1767 7.33534C16.8367 6.58189 16.5139 5.84993 16.2084 5.13947C16.2848 5.09807 16.381 5.04412 16.4972 4.97762C16.6166 4.90235 16.7389 4.83313 16.8639 4.76997C16.9889 4.70681 17.1121 4.65545 17.2333 4.61589ZM19.7396 3.20048C20.4002 2.89801 21.0594 2.64003 21.717 2.42653C21.8213 2.62088 21.9304 2.84959 22.0443 3.11264C22.1644 3.37298 22.2594 3.61892 22.3294 3.85047C22.2026 3.87792 22.0554 3.93275 21.8877 4.01494C21.7201 4.09714 21.496 4.2082 21.2155 4.34812L21.1973 4.35628L21.1881 4.36036C21.1909 4.36641 21.1907 4.37382 21.1874 4.3826C21.1874 4.3826 21.1888 4.38562 21.1916 4.39168C21.1994 4.42467 21.2157 4.47582 21.2403 4.54514C21.2682 4.60568 21.3143 4.70558 21.3785 4.84483C21.4399 4.97802 21.5222 5.15663 21.6255 5.38063C21.732 5.59587 21.8693 5.8777 22.0373 6.22613C22.2024 6.56851 22.4011 6.98354 22.6333 7.47122C22.8626 7.95284 23.1355 8.52089 23.4519 9.17537L23.4561 9.18445L23.4603 9.19354C23.3591 9.26065 23.2429 9.32714 23.1118 9.39302C22.984 9.45013 22.8531 9.5086 22.7192 9.56842C22.5914 9.62553 22.4636 9.68264 22.3358 9.73975C22.2079 9.79685 22.0934 9.85896 21.9922 9.92607C21.975 9.90458 21.9247 9.7956 21.8415 9.59914C21.7583 9.40268 21.6288 9.11374 21.4529 8.73232C21.2804 8.34213 21.0499 7.85006 20.7614 7.25613C20.479 6.65947 20.1242 5.9455 19.6969 5.11421L19.6836 5.10921C19.5938 5.10552 19.4927 5.12512 19.3804 5.16801C19.2652 5.20485 19.1529 5.24775 19.0433 5.29669C18.9309 5.33959 18.8291 5.38143 18.7378 5.42222C18.6465 5.46301 18.5798 5.48551 18.5377 5.48972C18.5144 5.47094 18.4743 5.41584 18.4175 5.32441C18.3667 5.23026 18.3076 5.11794 18.2401 4.98747C18.1759 4.84822 18.1075 4.69989 18.035 4.54248C17.9624 4.38507 17.8987 4.23099 17.8439 4.08025C17.8411 4.07419 17.8367 4.07253 17.8306 4.07525C17.8306 4.07525 17.8292 4.07222 17.8264 4.06616C18.4445 3.78273 19.0822 3.49417 19.7396 3.20048ZM7.85904 17.5655C7.98027 17.5259 8.08718 17.511 8.17976 17.5207C8.57353 18.2794 8.94714 19.058 9.3006 19.8565C9.65126 20.649 9.964 21.4548 10.2388 22.2739C10.3743 22.6952 10.3785 23.1022 10.2512 23.495C10.124 23.8877 9.85096 24.2031 9.43225 24.4413C9.18777 24.5797 8.91741 24.6859 8.62117 24.7598C8.32773 24.8398 8.04189 24.8726 7.76364 24.8582C7.4887 24.835 7.23048 24.7605 6.989 24.6348C6.75081 24.5003 6.56144 24.2965 6.42088 24.0234C6.05246 23.2242 5.69038 22.4149 5.33464 21.5955C4.97891 20.7761 4.61074 19.9695 4.23015 19.1758L4.21684 19.1708L4.22597 19.1667C4.31727 19.1259 4.4163 19.078 4.52308 19.023C4.63594 18.9653 4.75019 18.9106 4.86584 18.8589C4.98149 18.8072 5.09689 18.763 5.21203 18.7261C5.32438 18.6833 5.4318 18.6535 5.53426 18.6369L5.53845 18.646C6.14692 20.1411 6.85951 21.6152 7.67622 23.0683C7.78581 23.1946 7.91074 23.2665 8.051 23.2842C8.19735 23.2991 8.33 23.2764 8.44895 23.2159C8.56789 23.1555 8.66096 23.0628 8.72815 22.9378C8.79535 22.8129 8.81206 22.674 8.7783 22.5212C8.47381 21.7811 8.14852 21.0356 7.80244 20.2849C7.46243 19.5315 7.13968 18.7995 6.83418 18.089C6.91052 18.0476 7.00677 17.9937 7.12292 17.9272C7.24237 17.8519 7.36461 17.7827 7.48965 17.7195C7.61468 17.6564 7.73781 17.605 7.85904 17.5655ZM12.9224 16.1795C13.2174 16.4055 13.4269 16.7645 13.5511 17.2566L13.5419 17.2607C13.3456 17.3922 13.1285 17.5184 12.8906 17.6393C12.65 17.7541 12.4092 17.8289 12.1682 17.8635C12.1294 17.6837 12.0331 17.5625 11.8794 17.4997C11.7257 17.437 11.5688 17.4231 11.4087 17.4581C11.2487 17.4931 11.1126 17.5721 11.0006 17.6952C10.8946 17.8156 10.8685 17.966 10.9223 18.1464C10.9296 18.1942 10.9431 18.2393 10.9626 18.2816C10.9854 18.3153 11.0097 18.3519 11.0353 18.3916C11.151 18.5151 11.2748 18.5766 11.4067 18.5761C11.5385 18.5756 11.6726 18.5559 11.8088 18.5169C12.1481 18.4091 12.4938 18.3788 12.8459 18.4259C13.204 18.4704 13.5314 18.5833 13.8279 18.7648C14.0017 18.8551 14.1536 18.9697 14.2837 19.1087C14.4111 19.2417 14.5169 19.3915 14.6011 19.5583C14.6914 19.7224 14.7588 19.9004 14.8032 20.0923C14.8509 20.2754 14.8746 20.462 14.8741 20.652C14.8876 20.8724 14.8641 21.0763 14.8038 21.2639C14.7435 21.4515 14.6537 21.623 14.5345 21.7785C14.4214 21.9312 14.2834 22.0695 14.1203 22.1935C13.9605 22.3087 13.7849 22.4054 13.5934 22.4837C13.3228 22.5973 13.034 22.6715 12.7272 22.7064C12.4236 22.7325 12.132 22.7131 11.8525 22.6481C11.573 22.5832 11.3207 22.4659 11.0957 22.2963C10.8679 22.1206 10.6961 21.8834 10.5804 21.5846L10.5679 21.5574L10.5553 21.5301C10.7544 21.4047 10.9859 21.2939 11.25 21.1979C11.5112 21.0958 11.7439 20.9955 11.9481 20.897C12.0495 21.0853 12.1926 21.1966 12.3773 21.2309C12.568 21.2625 12.7425 21.2429 12.9008 21.1722C13.0623 21.0928 13.1772 20.9757 13.2454 20.8211C13.3197 20.6638 13.2897 20.4874 13.1555 20.2918C13.0703 20.1546 12.9625 20.0641 12.8321 20.0201C12.6989 19.9701 12.5559 19.9464 12.4029 19.949C12.2561 19.9489 12.104 19.9694 11.9468 20.0104C11.7867 20.0454 11.6372 20.0794 11.4982 20.1123C11.3653 20.1424 11.2346 20.1534 11.106 20.1451C10.9774 20.1369 10.8537 20.1154 10.735 20.0809C10.3322 19.9396 10.0143 19.7275 9.78111 19.4447C9.55406 19.1592 9.40728 18.8487 9.34077 18.5134C9.27426 18.1781 9.28422 17.8414 9.37065 17.5034C9.46317 17.1627 9.62761 16.8666 9.86395 16.615C9.98213 16.4892 10.1253 16.3778 10.2934 16.2807C10.4588 16.1776 10.6325 16.0927 10.8146 16.026C11 15.9505 11.1877 15.8958 11.3777 15.862C11.5737 15.8256 11.7601 15.808 11.9369 15.8093C12.2989 15.8301 12.6273 15.9535 12.9224 16.1795Z" fill="black"/>
<defs>
<clipPath id="clip0_1_12">
<rect width="23.8032" height="23.4328" fill="white" transform="translate(10.9098 6.66913)"/>
</clipPath>
</defs>
</svg>
